SplineFontDB: 3.0
FontName: AcathistUnicode
FullName: Acathist Unicode
FamilyName: Acathist Unicode
Weight: Regular
Copyright: Copyright 2013-2020 Aleksandr Andreev and Nikita Simmons (<https://sci.ponomar.net/>).
Version: 1.0
ItalicAngle: 0
UnderlinePosition: -45
UnderlineWidth: 7
Ascent: 800
Descent: 200
InvalidEm: 0
LayerCount: 2
Layer: 0 0 "Back" 1
Layer: 1 0 "Fore" 0
XUID: [1021 16 -658691101 2596357]
StyleMap: 0x0000
FSType: 0
OS2Version: 2
OS2_WeightWidthSlopeOnly: 0
OS2_UseTypoMetrics: 0
CreationTime: 1220731200
ModificationTime: 1586323291
PfmFamily: 17
TTFWeight: 400
TTFWidth: 5
LineGap: 17
VLineGap: 0
Panose: 2 0 5 0 9 0 0 2 0 3
OS2TypoAscent: 844
OS2TypoAOffset: 0
OS2TypoDescent: -582
OS2TypoDOffset: 0
OS2TypoLinegap: 33
OS2WinAscent: 939
OS2WinAOffset: 0
OS2WinDescent: 582
OS2WinDOffset: 0
HheadAscent: 939
HheadAOffset: 0
HheadDescent: -582
HheadDOffset: 0
OS2SubXSize: 203
OS2SubYSize: 203
OS2SubXOff: 0
OS2SubYOff: 286
OS2SupXSize: 203
OS2SupYSize: 203
OS2SupXOff: 0
OS2SupYOff: 286
OS2StrikeYSize: 50
OS2StrikeYPos: 250
OS2CapHeight: 663
OS2XHeight: 437
OS2Vendor: '    '
OS2CodePages: 00000005.00000000
OS2UnicodeRanges: 80000203.0000004a.00000000.00000000
Lookup: 4 0 0 "'ccmp' Precomposed Glyphs" { "'ccmp' Precomposed Glyphs-1"  } ['ccmp' ('DFLT' <'dflt' > 'cyrl' <'dflt' > 'latn' <'dflt' > ) ]
Lookup: 5 0 0 "'ccmp' Alternative Forms for Uppercase Letters" { "'ccmp' Alternative Forms for Uppercase Letters-1"  } ['ccmp' ('DFLT' <'dflt' > 'cyrl' <'dflt' > 'latn' <'dflt' > ) ]
Lookup: 1 0 0 "Uppercase diacritics" { "Uppercase diacritics-1"  } []
Lookup: 258 8 0 "'kern' Horizontal Kerning lookup 0" { "'kern' Horizontal Kerning lookup 0 subtable" [150,15,0] } ['kern' ('DFLT' <'dflt' > 'cyrl' <'dflt' > 'latn' <'dflt' > ) ]
Lookup: 260 0 0 "'mark' Mark Positioning lookup 1" { "'mark' Mark Positioning lookup 1-1"  } ['mark' ('DFLT' <'dflt' > 'cyrl' <'dflt' > 'latn' <'dflt' > ) ]

StartChar: .notdef
Encoding: 1114112 -1 0
Width: 366
Flags: W
HStem: 0 18<24 342> 645 18<24 342>
VStem: 0 18<31 632> 348 18<31 632>
DStem2: 24 645 18 632 0.466696 -0.884418<8.69726 339.948 362.058 694.242> 18 31 24 18 0.466696 0.884418<0 331.25 353.361 685.545>
LayerCount: 2
Fore
SplineSet
0 663 m 1
 366 663 l 1
 366 0 l 1
 0 0 l 1
 0 663 l 1
24 645 m 1
 182 344 l 1
 342 645 l 1
 24 645 l 1
189 331 m 1
 348 31 l 1
 348 632 l 1
 189 331 l 1
342 18 m 1
 182 319 l 1
 24 18 l 1
 342 18 l 1
18 632 m 1
 18 31 l 1
 176 331 l 1
 18 632 l 1
EndSplineSet
Validated: 1
EndChar

StartChar: period
Encoding: 46 46 2
Width: 216
Flags: W
HStem: -2 129<54.2469 149.754>
VStem: 37 130<14.6734 110.049>
LayerCount: 2
Fore
SplineSet
37 62 m 256
 37 97.7134243418 66.2875842389 127 102 127 c 256
 137.713424341 127 167 97.7124157615 167 62 c 256
 167 26.7855947545 136.868728944 -2 102 -2 c 256
 67.1327050829 -2 37 26.7890214122 37 62 c 256
EndSplineSet
Validated: 524289
EndChar

StartChar: slash
Encoding: 47 47 3
Width: 405
Flags: W
VStem: -53 59<-353 -294> 362 59<880 939>
DStem2: -53 -353 6 -353 0.305818 0.95209<18.0433 1357.01>
LayerCount: 2
Fore
SplineSet
6 -353 m 1
 -53 -353 l 1
 362 939 l 1
 421 939 l 1
 6 -353 l 1
EndSplineSet
Validated: 1
EndChar

StartChar: uni0443
Encoding: 1091 1091 4
Width: 433
Flags: W
HStem: -11 21G<102.333 120.5> 9 18<188 208> 423 20G<48 66.2783 376.511 403.333>
VStem: 99 89<26 246.559> 206 45<-260.634 8.00146>
DStem2: 220.5 191 273 278 0.0526315 0.998614<-302.473 -182.406 0 140.202>
AnchorPoint: "Yerok" 346 557 basechar 0
AnchorPoint: "Diacritic" 201 556 basechar 0
LayerCount: 2
Back
SplineSet
402 443 m 0x78
 404.666666667 443 406 440.333333333 406 435 c 1
 396.666666667 423.666666667 389.833333333 412.5 385.5 401.5 c 0
 381.166666667 390.5 379 378.333333333 379 365 c 0
 379 357 380 348 382 338 c 0
 382 336 381.666666667 334 381 332 c 0
 380.333333333 330 379 329 377 329 c 0
 368.333333333 332.333333333 360.5 335.5 353.5 338.5 c 0
 346.5 341.5 338.333333333 343 329 343 c 0
 313 343 300.166666667 336 290.5 322 c 0
 280.833333333 308 275 293.333333333 273 278 c 0
 270.333333333 255.333333333 268 233.666666667 266 213 c 0
 264 192.333333333 262.166666667 171.5 260.5 150.5 c 0
 258.833333333 129.5 257.333333333 107.666666667 256 85 c 0
 254.666666667 62.3333333333 253.666666667 37.6666666667 253 11 c 0
 251.666666667 -13.6666666667 251 -35.8333333333 251 -55.5 c 0
 251 -85 251 -85 251 -113.5 c 0
 251 -132.5 250.833333333 -152 250.5 -172 c 0
 250.166666667 -192 249 -214 247 -238 c 0
 245 -264.666666667 242.833333333 -291.666666667 240.5 -319 c 0
 238.166666667 -346.333333333 235.333333333 -372 232 -396 c 0
 228.666666667 -420 225 -441.666666667 221 -461 c 0
 217 -480.333333333 212.666666667 -495.333333333 208 -506 c 0
 206.666666667 -509.333333333 204.333333333 -512.5 201 -515.5 c 0
 197.666666667 -518.5 191 -520.333333333 181 -521 c 1
 177.666666667 -518.333333333 176 -514.333333333 176 -509 c 1
 179.333333333 -507.666666667 182 -503.166666667 184 -495.5 c 0
 186 -487.833333333 187.333333333 -481 188 -475 c 0
 191.333333333 -433.666666667 194.166666667 -392.5 196.5 -351.5 c 0
 198.833333333 -310.5 201 -264 203 -212 c 0
 203.666666667 -190 204.166666667 -170.166666667 204.5 -152.5 c 0
 204.833333333 -134.833333333 205.166666667 -117.5 205.5 -100.5 c 0
 205.833333333 -83.5 206 -66.3333333333 206 -49 c 0
 206 -31.6666666667 206.666666667 -12.3333333333 208 9 c 1x78
 190.666666667 7 173.333333333 4.33333333333 156 1 c 0
 138.666666667 -2.33333333333 121.333333333 -6.33333333333 104 -11 c 0xb8
 100.666666667 -11 99 -9 99 -5 c 0
 99 55.6666666667 95.8333333333 114 89.5 170 c 0
 83.1666666667 226 75.6666666667 279.333333333 67 330 c 0
 63.6666666667 346.666666667 60.1666666667 364.833333333 56.5 384.5 c 0
 52.8333333333 404.166666667 49.3333333333 421.333333333 46 436 c 0
 46 440.666666667 47 443 49 443 c 0
 54.3333333333 443 61.1666666667 442.833333333 69.5 442.5 c 0
 77.8333333333 442.166666667 86.6666666667 441.5 96 440.5 c 0
 105.333333333 439.5 114.833333333 438.5 124.5 437.5 c 0
 134.166666667 436.5 143 435.333333333 151 434 c 1
 155 411.333333333 159 383.5 163 350.5 c 0
 167 317.5 170.666666667 282.5 174 245.5 c 0
 177.333333333 208.5 180.166666667 170.833333333 182.5 132.5 c 0
 184.833333333 94.1666666667 186.666666667 58.6666666667 188 26 c 1
 209 27 l 1
 210.333333333 49.6666666667 211.5 70.1666666667 212.5 88.5 c 0
 213.5 106.833333333 214.666666667 124.333333333 216 141 c 0
 217.333333333 157.666666667 218.833333333 174.333333333 220.5 191 c 0
 223 216 223 216 226 246 c 256
 228 266 231 286 235 306 c 0
 239 326 244.5 344.5 251.5 361.5 c 0
 258.5 378.5 267.333333333 393.333333333 278 406 c 0
 288.666666667 418.666666667 302.333333333 427.333333333 319 432 c 0
 333.666666667 436 348 438.666666667 362 440 c 0
 376 441.333333333 389.333333333 442.333333333 402 443 c 0x78
EndSplineSet
Fore
SplineSet
208 9 m 1x78
 171.493381517 4.78769786732 136.999649984 -2.1154788504 104 -11 c 0xb8
 100.666666667 -11 99 -9 99 -5 c 0
 99 137.65608905 78.6951838821 265.453104632 56.5 384.5 c 0
 52.8333333333 404.166666667 49.3333333333 421.333333333 46 436 c 0
 46 440.666666667 47 443 49 443 c 0
 83.5565463741 443 120.195961009 439.134006497 151 434 c 1
 172.418399996 312.629066687 182.425106725 162.584885282 188 26 c 1
 209 27 l 1
 212.450865049 85.6647058433 215.018134531 136.18134532 220.5 191 c 2
 226 246 l 258
 232.299842864 308.998428637 246.27092001 368.321717512 278 406 c 0
 303.348369953 436.101189319 351.021914026 440.316942842 402 443 c 0
 404.666666667 443 406 440.333333333 406 435 c 1
 389.940125688 415.49872405 379 396.752188321 379 365 c 0
 379 357 380 348 382 338 c 0
 382 334.078156998 381.026144022 329 377 329 c 0
 360.861076059 335.207278438 349.654342342 343 329 343 c 0
 296.280946933 343 276.780383989 306.982943918 273 278 c 0
 260.583813186 172.462412096 251 61.1052768269 251 -55.5 c 2
 251 -113.5 l 2
 251 -234.936044525 242.263642049 -358.225730097 221 -461 c 0
 214.367274575 -493.058172885 214.203484842 -518.786434343 181 -521 c 1
 177.666666667 -518.333333333 176 -514.333333333 176 -509 c 1
 183.175748745 -506.129700503 186.952920078 -484.423719291 188 -475 c 0
 198.900344315 -339.835730479 206 -198.270621434 206 -49 c 0
 206 -31.6666666667 206.666666667 -12.3333333333 208 9 c 1x78
EndSplineSet
Validated: 524289
EndChar

StartChar: acutecomb
Encoding: 769 769 5
Width: 1
Flags: W
HStem: 544 262.5
VStem: -207 165
AnchorPoint: "Stacking" -189 857 basemark 0
AnchorPoint: "Stacking" -190 542 mark 0
AnchorPoint: "Diacritic" -190 542 mark 0
LayerCount: 2
Fore
SplineSet
-111 787 m 1
 -103.895195487 797.657206772 -89.8005414045 800.328455413 -75 803.5 c 2
 -61 806.5 l 2
 -56.3333333333 807.5 -52.6666666667 808 -50 808 c 0
 -44.6666666667 808 -42 805.333333333 -42 800 c 1
 -166 549 l 2
 -168 545.666666667 -171.333333333 544 -176 544 c 0
 -187.771957191 545.17719572 -204.199508785 546.198280745 -207 556 c 1
 -111 787 l 1
EndSplineSet
Validated: 524289
EndChar

StartChar: gravecomb
Encoding: 768 768 6
Width: 1
Flags: W
HStem: 555 137
VStem: -315 236
DStem2: -308 692 -310 642 0.93185 -0.362844<3.34803 253.671>
AnchorPoint: "Stacking" -166 557 mark 0
AnchorPoint: "Stacking" -165 726 basemark 0
AnchorPoint: "Diacritic" -166 557 mark 0
LayerCount: 2
Fore
SplineSet
-79 563 m 256
 -79 557.666666667 -81.6666666667 555 -87 555 c 1
 -310 642 l 1
 -313.376551435 654.380688593 -315 670.49199294 -315 685 c 0
 -315 689.666666667 -312.666666667 692 -308 692 c 1
 -82 604 l 1
 -79.7820646432 591.801355538 -79 576.199343341 -79 563 c 256
EndSplineSet
Validated: 524289
EndChar

StartChar: uni0486
Encoding: 1158 1158 7
Width: 1
Flags: W
HStem: 644 61<-205.587 -126.879>
VStem: -254 25<575.031 614.944> -145 54<587.44 663.234>
AnchorPoint: "Stacking" -176 773 basemark 0
AnchorPoint: "Stacking" -177 542 mark 0
AnchorPoint: "Diacritic" -177 542 mark 0
LayerCount: 2
Back
SplineSet
-254 595 m 0
 -254 609 -250.833333333 622.666666667 -244.5 636 c 0
 -238.166666667 649.333333333 -229.833333333 661.166666667 -219.5 671.5 c 0
 -209.166666667 681.833333333 -197.333333333 690 -184 696 c 0
 -170.666666667 702 -157 705 -143 705 c 0
 -125.666666667 705 -112.666666667 699 -104 687 c 0
 -95.3333333333 675 -91 662 -91 648 c 0
 -91 638 -93 628 -97 618 c 0
 -101 608 -106 598.666666667 -112 590 c 0
 -118 581.333333333 -124.666666667 573.333333333 -132 566 c 0
 -139.333333333 558.666666667 -146.333333333 552.333333333 -153 547 c 0
 -157 547 -160.5 548.166666667 -163.5 550.5 c 0
 -166.5 552.833333333 -168 556.666666667 -168 562 c 1
 -162.666666667 570.666666667 -157.5 578.833333333 -152.5 586.5 c 0
 -147.5 594.166666667 -145 603.666666667 -145 615 c 0
 -145 625.666666667 -147.833333333 633.166666667 -153.5 637.5 c 0
 -159.166666667 641.833333333 -166.666666667 644 -176 644 c 0
 -190.666666667 644 -202.333333333 637.666666667 -211 625 c 0
 -219.666666667 612.333333333 -225.666666667 599.666666667 -229 587 c 0
 -230.333333333 583.666666667 -231.833333333 580.833333333 -233.5 578.5 c 0
 -235.166666667 576.166666667 -237.666666667 575 -241 575 c 0
 -246.333333333 575 -249.833333333 577.333333333 -251.5 582 c 0
 -253.166666667 586.666666667 -254 591 -254 595 c 0
EndSplineSet
Fore
SplineSet
-241 575 m 0
 -251.005033398 575 -254 585.768184115 -254 595 c 0
 -254 644.153651288 -218.886603254 680.301028535 -184 696 c 0
 -170.666666667 702 -157 705 -143 705 c 0
 -110.758458384 705 -91 678.468826123 -91 648 c 0
 -91 601.389668693 -126.602334627 568.118132296 -153 547 c 1
 -162.02770213 547 -168 552.297890455 -168 562 c 1
 -158.139918793 578.022631963 -145 590.678543526 -145 615 c 0
 -145 635.450965766 -156.323206552 644 -176 644 c 0
 -205.988643289 644 -222.756273512 610.726160658 -229 587 c 0
 -231.25571266 581.360718349 -233.677691786 575 -241 575 c 0
EndSplineSet
Validated: 524289
Substitution2: "Uppercase diacritics-1" uniE000
EndChar

StartChar: uniE001
Encoding: 57345 57345 8
Width: 1
Flags: W
HStem: 645 74<-289.432 -217.961>
VStem: -330 28<557.503 624.686> -215 46<576.358 668.585>
AnchorPoint: "Stacking" -206 786 basemark 0
AnchorPoint: "Stacking" -207 537 mark 0
AnchorPoint: "Diacritic" -209 535 mark 0
LayerCount: 2
Back
SplineSet
-330 615 m 0
 -330 627 -327.833333333 639.166666667 -323.5 651.5 c 0
 -319.166666667 663.833333333 -312.833333333 675 -304.5 685 c 0
 -296.166666667 695 -286.166666667 703.166666667 -274.5 709.5 c 0
 -262.833333333 715.833333333 -250 719 -236 719 c 0
 -214.666666667 719 -198.166666667 712 -186.5 698 c 0
 -174.833333333 684 -169 667.666666667 -169 649 c 0
 -169 625.666666667 -174.666666667 604.166666667 -186 584.5 c 0
 -197.333333333 564.833333333 -209.666666667 548.666666667 -223 536 c 0
 -226.333333333 536 -229.333333333 537 -232 539 c 0
 -234.666666667 541 -236 544 -236 548 c 0
 -230 557.333333333 -225 566.5 -221 575.5 c 0
 -217 584.5 -215 594.666666667 -215 606 c 256
 -215 617.333333333 -217.833333333 626.666666667 -223.5 634 c 0
 -229.166666667 641.333333333 -236.666666667 645 -246 645 c 0
 -264.666666667 645 -278.666666667 638.5 -288 625.5 c 0
 -297.333333333 612.5 -302 597.333333333 -302 580 c 0
 -302 575.333333333 -301.5 571.333333333 -300.5 568 c 0
 -299.5 564.666666667 -298.333333333 561 -297 557 c 0
 -297 550.333333333 -300.666666667 547 -308 547 c 1
 -315.333333333 553.666666667 -320.833333333 563.166666667 -324.5 575.5 c 0
 -328.166666667 587.833333333 -330 601 -330 615 c 0
-61 770 m 1
 -55.6666666667 773.333333333 -48.3333333333 775.833333333 -39 777.5 c 0
 -29.6666666667 779.166666667 -22 780 -16 780 c 0
 -12 780 -9.16666666667 778.666666667 -7.5 776 c 0
 -5.83333333333 773.333333333 -5 770.666666667 -5 768 c 2
 -114 554 l 1
 -120.666666667 552.666666667 -127 552 -133 552 c 0
 -138.333333333 552 -143 552.666666667 -147 554 c 0
 -151 555.333333333 -153 558.666666667 -153 564 c 2
 -61 770 l 1
EndSplineSet
Fore
SplineSet
-308 547 m 1
 -322.483213506 560.166557734 -330 587.283207227 -330 615 c 0
 -330 659.92787512 -304.603532789 693.158082202 -274.5 709.5 c 0
 -262.833333333 715.833333333 -250 719 -236 719 c 0
 -195.425311896 719 -169 688.169713594 -169 649 c 0
 -169 601.088574052 -198.076590773 559.677238767 -223 536 c 1
 -230.150641815 536 -236 540.490303882 -236 548 c 1
 -225.266074681 564.697217162 -215 580.679546694 -215 606 c 256
 -215 626.785191704 -226.01067177 645 -246 645 c 0
 -282.388771685 645 -302 615.483218395 -302 580 c 0
 -302 569.98297999 -299.613867705 564.841603116 -297 557 c 0
 -297 550.333333333 -300.666666667 547 -308 547 c 1
-61 770 m 1
 -52.2870697376 775.445581413 -29.6725185662 780 -16 780 c 0
 -8.91058281229 780 -5 774.43289713 -5 768 c 1
 -114 554 l 1
 -120.666666667 552.666666667 -127 552 -133 552 c 0
 -143.562457337 552 -153 553.228757247 -153 564 c 1
 -61 770 l 1
EndSplineSet
Validated: 524289
Substitution2: "Uppercase diacritics-1" uniE002
LCarets2: 1 0
Ligature2: "'ccmp' Precomposed Glyphs-1" uni0486 acutecomb
EndChar

StartChar: uniE003
Encoding: 57347 57347 9
Width: 1
Flags: W
HStem: 502 15<-197.212 -183.339> 610 53<-238.855 -161.341> 667 21G<-130.373 -44.6667>
VStem: -271 26<540.579 596.264> -157 47<527.861 604.393>
DStem2: -284 772 -291 726 0.971767 -0.235943<-6.33146 258.325>
AnchorPoint: "Stacking" -186 816 basemark 0
AnchorPoint: "Stacking" -194 497 mark 0
AnchorPoint: "Diacritic" -192 495 mark 0
LayerCount: 2
Back
SplineSet
-110 583 m 0
 -110 572.333333333 -112.166666667 562.333333333 -116.5 553 c 0
 -120.833333333 543.666666667 -126 535.333333333 -132 528 c 0
 -138 520.666666667 -144.5 514.666666667 -151.5 510 c 0
 -158.5 505.333333333 -165 502.666666667 -171 502 c 0
 -180.333333333 499.333333333 -188.666666667 499.333333333 -196 502 c 1
 -198 507.333333333 -197.666666667 512.333333333 -195 517 c 1
 -180.333333333 519 -170.333333333 524.833333333 -165 534.5 c 0
 -159.666666667 544.166666667 -157 556 -157 570 c 0
 -157 583.333333333 -161.5 593.333333333 -170.5 600 c 0
 -179.5 606.666666667 -190 610 -202 610 c 0
 -213.333333333 610 -223.333333333 605.833333333 -232 597.5 c 0
 -240.666666667 589.166666667 -245 578.333333333 -245 565 c 0
 -245 556.333333333 -243.666666667 548.666666667 -241 542 c 1
 -243 537.333333333 -247 534.333333333 -253 533 c 1
 -265 545 -271 560 -271 578 c 0
 -271 603.333333333 -262.666666667 623.833333333 -246 639.5 c 0
 -229.333333333 655.166666667 -209.333333333 663 -186 663 c 256
 -162.666666667 663 -144.166666667 655.5 -130.5 640.5 c 0
 -116.833333333 625.5 -110 606.333333333 -110 583 c 0
-41 713 m 1
 -39.6666666667 709 -38.8333333333 704 -38.5 698 c 0
 -38.1666666667 692 -38 686.333333333 -38 681 c 0
 -38 671.666666667 -41.3333333333 667 -48 667 c 2
 -291 726 l 1
 -294.333333333 732.666666667 -296 741.333333333 -296 752 c 0
 -296 756.666666667 -295.333333333 761.166666667 -294 765.5 c 0
 -292.666666667 769.833333333 -289.333333333 772 -284 772 c 2
 -41 713 l 1
EndSplineSet
Fore
SplineSet
-186 663 m 256
 -139.489647329 663 -110 629.405226449 -110 583 c 0
 -110 549.930137096 -131.334330902 523.4437794 -151.5 510 c 0
 -159.622858158 504.584761228 -171.388782506 499.834178936 -183.134560766 499.834178936 c 0
 -187.487978828 499.834178936 -191.838629387 500.486774322 -196 502 c 1
 -198 507.333333333 -197.666666667 512.333333333 -195 517 c 1
 -167.191977734 520.792003036 -157 539.887942936 -157 570 c 0
 -157 595.707093056 -177.094898756 610 -202 610 c 0
 -226.008692745 610 -245 589.925593211 -245 565 c 0
 -245 556.333333333 -243.666666667 548.666666667 -241 542 c 1
 -243 537.333333333 -247 534.333333333 -253 533 c 1
 -265 545 -271 560 -271 578 c 0
 -271 626.864198345 -233.880720775 663 -186 663 c 256
-41 713 m 1
 -38.4400238522 705.320071556 -38 691.31961607 -38 681 c 0
 -38 671.666666667 -41.3333333333 667 -48 667 c 1
 -291 726 l 1
 -294.333333333 732.666666667 -296 741.333333333 -296 752 c 0
 -296 761.861972576 -294.418803778 772 -284 772 c 1
 -41 713 l 1
EndSplineSet
Validated: 524289
Substitution2: "Uppercase diacritics-1" uniE004
LCarets2: 1 0
Ligature2: "'ccmp' Precomposed Glyphs-1" uni0486 gravecomb
EndChar

StartChar: uni0311
Encoding: 785 785 10
Width: 1
Flags: W
HStem: 653 46<-252.855 -146.59>
VStem: -317 46<557 634.009> -129 46<557 635.012>
AnchorPoint: "Stacking" -199 767 basemark 0
AnchorPoint: "Stacking" -200 558 mark 0
AnchorPoint: "Diacritic" -199 558 mark 0
LayerCount: 2
Fore
SplineSet
-200 653 m 256
 -240.78152587 653 -271 624.471745586 -271 583 c 2
 -271 557 l 1
 -317 557 l 1
 -317 583 l 2
 -317 636.016901999 -283.746649635 673.989774571 -245.5 690 c 0
 -231.166666667 696 -216 699 -200 699 c 256
 -145.146288394 699 -109.922589418 666.513092398 -92.5 628 c 0
 -86.1666666667 614 -83 599 -83 583 c 2
 -83 557 l 1
 -129 557 l 1
 -129 583 l 2
 -129 625.356734108 -158.677237935 653 -200 653 c 256
EndSplineSet
Validated: 524289
EndChar

StartChar: uni0483
Encoding: 1155 1155 11
Width: 1
Flags: W
HStem: 584 18<-29 -11> 648 18<-409 -391>
VStem: -367 96<537 625> -152 96<624 712>
DStem2: -409 666 -411 648 0.987316 -0.158764<-2.34129 45.4364 142.759 260.408 357.572 407.166>
AnchorPoint: "Stacking" -206 769 basemark 0
AnchorPoint: "Stacking" -207 554 mark 0
AnchorPoint: "Diacritic" -209 554 mark 0
LayerCount: 2
Back
SplineSet
-11 602 m 2
 -9 600 -8 597.666666667 -8 595 c 0
 -8 591 -9.66666666667 587.333333333 -13 584 c 1
 -271 625 l 1
 -271 537 l 1
 -367 537 l 1
 -367 641 l 1
 -411 648 l 2
 -412.333333333 650.666666667 -413 653.333333333 -413 656 c 0
 -413 660.666666667 -411.666666667 664 -409 666 c 2
 -152 624 l 1
 -152 712 l 1
 -56 712 l 1
 -56 609 l 1
 -11 602 l 2
EndSplineSet
Fore
SplineSet
-11 602 m 1
 -9 600 -8 597.666666667 -8 595 c 0
 -8 591 -9.66666666667 587.333333333 -13 584 c 1
 -271 625 l 1
 -271 537 l 1
 -367 537 l 1
 -367 641 l 1
 -411 648 l 1
 -412.333333333 650.666666667 -413 653.333333333 -413 656 c 0
 -413 660.666666667 -411.666666667 664 -409 666 c 1
 -152 624 l 1
 -152 712 l 1
 -56 712 l 1
 -56 609 l 1
 -11 602 l 1
EndSplineSet
Validated: 524289
EndChar

StartChar: uni033E
Encoding: 830 830 12
Width: 1
Flags: W
HStem: 525 288
VStem: -325 293
DStem2: -325 543 -315 525 0.88429 0.466938<-3.97054 135.065> -256 700 -152 732 0.88429 0.466938<106.908 246.411>
AnchorPoint: "Stacking" -279 855 basemark 0
AnchorPoint: "Stacking" -280 526 mark 0
AnchorPoint: "Yerok" -272 526 mark 0
LayerCount: 2
Fore
SplineSet
-152 732 m 1
 -100 646 l 2
 -97.3330078125 642 -97.6669921875 639.333007812 -101 638 c 2
 -315 525 l 1
 -321.403765951 526.067815466 -328.246156771 534.883419003 -325 543 c 1
 -205 605 l 1
 -257 692 l 2
 -259.666992188 696 -259.333007812 698.666992188 -256 700 c 2
 -42 813 l 1
 -35.596234049 811.932184534 -28.7538432283 803.116580996 -32 795 c 1
 -152 732 l 1
EndSplineSet
Validated: 524289
EndChar

StartChar: colon
Encoding: 58 58 13
Width: 202
Flags: W
VStem: 33 131
LayerCount: 2
Fore
SplineSet
102 261 m 2
 99.3333333333 258.333333333 96.6666666667 258.333333333 94 261 c 2
 33 333 l 2
 31 336.333333333 31 339 33 341 c 2
 94 413 l 1
 97.3333333333 415 100 415 102 413 c 2
 164 342 l 2
 166.666666667 339.333333333 166.666666667 336.666666667 164 334 c 2
 102 261 l 2
102 3 m 2
 99.3333333333 0.333333333333 96.6666666667 0.333333333333 94 3 c 2
 33 75 l 2
 31 78.3333333333 31 81 33 83 c 2
 94 155 l 1
 97.3333333333 157 100 157 102 155 c 2
 164 84 l 2
 166.666666667 81.3333333333 166.666666667 78.6666666667 164 76 c 2
 102 3 l 2
EndSplineSet
Validated: 524289
EndChar

StartChar: semicolon
Encoding: 59 59 14
Width: 263
Flags: W
HStem: 43 73<88.0334 166.545> 208 129<79.2469 174.754>
VStem: 62 130<224.673 320.049> 140 72<-57.1988 34.2399>
LayerCount: 2
Fore
SplineSet
62 272 m 256xe0
 62 307.713424341 91.2875842389 337 127 337 c 256
 162.713424341 337 192 307.712415761 192 272 c 256
 192 236.785594754 161.868728944 208 127 208 c 256
 92.1327050826 208 62 236.789021413 62 272 c 256xe0
100 43 m 0
 76.0667888345 43 61.1960916468 24.1960916468 49 12 c 1
 42.3893572474 14.644257101 36 19.6574993125 36 29 c 1
 60.9199646568 59.2599570833 86.5436391825 87.6102836889 123.5 108 c 0
 133.166666667 113.333333333 143.333333333 116 154 116 c 0
 179.090415336 110.424352149 196.76517819 82.0870545257 206 59 c 0
 210 49 212 39 212 29 c 0
 212 -31.1603411468 183.947873682 -73.7613766612 156 -109 c 0
 138 -132.333333333 119 -149.666666667 99 -161 c 1
 93 -157 88.6666666667 -151.666666667 86 -145 c 1
 115.505003703 -120.034227637 140 -86.7111841942 140 -33 c 0xd0
 140 -6.11516749038 130.844070451 20.7663248525 117.5 35 c 0
 112.5 40.3333333333 106.666666667 43 100 43 c 0
EndSplineSet
Validated: 524289
EndChar

StartChar: uni2DEF
Encoding: 11759 11759 15
Width: 1
Flags: W
HStem: 783 26<-366 -318.429>
VStem: -425 59<687.8 775.67>
DStem2: -242 692 -225 673 0.696475 0.717581<-120.235 -1.79395> -248 810 -242 692 0.622014 -0.783006<-7.23617 87.4552 121.578 244.098>
AnchorPoint: "Stacking" -216 896 basemark 0
AnchorPoint: "Stacking" -217 590 mark 0
AnchorPoint: "Diacritic" -215 590 mark 0
LayerCount: 2
Back
SplineSet
-44 721 m 0
 -56.2779067031 733.277906703 -87.6758711928 761.336873536 -105 768 c 0
 -110.333333333 768 -114.333333333 767 -117 765 c 0
 -135.97484451 751.200113084 -157.105241477 735.78330214 -176 718 c 1
 -145.207314161 676.496814737 -112.309714682 634.268527914 -78 596 c 0
 -76.6666666667 594.666666667 -76 593.166666667 -76 591.5 c 0
 -76 589 -76 589 -76 587 c 1
 -101.374651577 587 -124.548175112 588.554817512 -149 591 c 0
 -161.637107153 593.808246033 -167.394024536 596.751634349 -174 606 c 0
 -191.741137811 631.929355261 -204.518686038 649.787844177 -225 673 c 1
 -250.16982579 647.83017421 -279.178967706 614.938322623 -301 590 c 1
 -315.505627042 590 -334 588.653709505 -334 600 c 1
 -242 692 l 1
 -262.044102871 715.581297495 -294.812080418 755.904066227 -318 775 c 0
 -326.896349167 777.224087291 -352.461349787 780.560385654 -361 783 c 0
 -364.333333333 783 -366 781.333333333 -366 778 c 0
 -366 766 -366 766 -366 755 c 0
 -366 730.300846431 -368.480586028 703.918681437 -376 687 c 1
 -388.761646972 684.679700551 -408.737978086 679 -423 679 c 0
 -424.333333333 679 -425 679.833333333 -425 681.5 c 0
 -425 684 -425 684 -425 685 c 0
 -414.562281724 718.922584398 -406.188178708 769.61489686 -396 804 c 0
 -395.333333333 808 -391.666666667 810 -385 810 c 0
 -379.666666667 809.333333333 -374 809 -368 809 c 0
 -359 809 -359 809 -350 809 c 0
 -318.501954701 809 -285.475366655 810.436924639 -256 813 c 0
 -252.981390411 813 -250.229359732 811.114679866 -248 810 c 0
 -229.333333333 788.666666667 -211 766 -193 742 c 1
 -171.666666667 767.333333333 -152.666666667 788 -136 804 c 0
 -114 823.333333333 -85.6666666667 834.333333333 -51 837 c 0
 -27.0449384968 837 2 836.000497418 2 819 c 1
 -9.1342563114 806.47396165 -20.3306470247 798.340317737 -27 781 c 0
 -33.1745267276 763.711325163 -36.5181516263 746.74587723 -38 726 c 0
 -38 722.666666667 -40 721 -44 721 c 0
EndSplineSet
Fore
SplineSet
-44 721 m 0
 -56.2779067031 733.277906703 -87.6758711928 761.336873536 -105 768 c 0
 -110.333333333 768 -114.333333333 767 -117 765 c 0
 -135.97484451 751.200113084 -157.105241477 735.78330214 -176 718 c 1
 -145.207314161 676.496814737 -112.309714682 634.268527914 -78 596 c 0
 -76.6666666667 594.666666667 -76 593.166666667 -76 591.5 c 2
 -76 587 l 1
 -101.374651577 587 -124.548175112 588.554817512 -149 591 c 0
 -161.637107153 593.808246033 -167.394024536 596.751634349 -174 606 c 0
 -191.741137811 631.929355261 -204.518686038 649.787844177 -225 673 c 1
 -250.16982579 647.83017421 -279.178967706 614.938322623 -301 590 c 1
 -303.782102228 590 -306.710931282 589.950476431 -309.627864117 589.950476431 c 0
 -321.919552804 589.950476431 -334 590.829867762 -334 600 c 1
 -242 692 l 1
 -262.044102871 715.581297495 -294.812080418 755.904066227 -318 775 c 0
 -326.896349167 777.224087291 -352.461349787 780.560385654 -361 783 c 0
 -364.333333333 783 -366 781.333333333 -366 778 c 2
 -366 755 l 2
 -366 730.300846431 -368.480586028 703.918681437 -376 687 c 1
 -388.761646972 684.679700551 -408.737978086 679 -423 679 c 0
 -424.333333333 679 -425 679.833333333 -425 681.5 c 2
 -425 685 l 1
 -414.562281724 718.922584398 -406.188178708 769.61489686 -396 804 c 0
 -395.333333333 808 -391.666666667 810 -385 810 c 0
 -379.666666667 809.333333333 -374 809 -368 809 c 2
 -350 809 l 2
 -318.501954701 809 -285.475366655 810.436924639 -256 813 c 0
 -252.981390411 813 -250.229359732 811.114679866 -248 810 c 0
 -229.333333333 788.666666667 -211 766 -193 742 c 1
 -171.666666667 767.333333333 -152.666666667 788 -136 804 c 0
 -114 823.333333333 -85.6666666667 834.333333333 -51 837 c 0
 -27.0449384968 837 2 836.000497418 2 819 c 1
 -9.1342563114 806.47396165 -20.3306470247 798.340317737 -27 781 c 0
 -33.1745267276 763.711325163 -36.5181516263 746.74587723 -38 726 c 0
 -38 722.666666667 -40 721 -44 721 c 0
EndSplineSet
Validated: 524289
EndChar

StartChar: uni2DE9
Encoding: 11753 11753 16
Width: 1
Flags: W
HStem: 553 140<-298.694 -219.57 -175.694 -96.5695> 614 25<-219 -176> 676 17<-310 -299 -182 -176>
VStem: -299 80<556.7 614 639 676> -176 80<556.7 614 639 693>
AnchorPoint: "Stacking" -198 772 basemark 0
AnchorPoint: "Stacking" -199 553 mark 0
AnchorPoint: "Diacritic" -198 552 mark 0
LayerCount: 2
Back
SplineSet
-182 676 m 1x78
 -182 693 l 1x78
 -96 697 l 1
 -96 565 l 1
 -102.666666667 561 -110.666666667 558 -120 556 c 0
 -129.333333333 554 -138.333333333 553 -147 553 c 0x98
 -153 553 -158.5 553.333333333 -163.5 554 c 0
 -168.5 554.666666667 -172.666666667 556.666666667 -176 560 c 1
 -176 614 l 1
 -219 614 l 1x58
 -219 565 l 1
 -225.666666667 561 -233.666666667 558 -243 556 c 0
 -252.333333333 554 -261.333333333 553 -270 553 c 0x98
 -276 553 -281.5 553.333333333 -286.5 554 c 0
 -291.5 554.666666667 -295.666666667 556.666666667 -299 560 c 1
 -299 676 l 1
 -310 675 l 1
 -310 693 l 1
 -219 697 l 1
 -219 639 l 1
 -176 639 l 1
 -176 676 l 1
 -182 676 l 1x78
EndSplineSet
Fore
SplineSet
-270 553 m 0x98
 -282.599979289 553 -292.529158131 553.529158131 -299 560 c 1
 -299 676 l 1
 -310 675 l 1
 -310 693 l 1
 -219 697 l 1
 -219 639 l 1
 -176 639 l 1
 -176 676 l 1
 -182 676 l 1
 -182 693 l 1x78
 -96 697 l 1
 -96 565 l 1
 -108.019248055 557.788451168 -128.417824982 553 -147 553 c 0x98
 -159.599979289 553 -169.529158131 553.529158131 -176 560 c 1
 -176 614 l 1
 -219 614 l 1x58
 -219 565 l 1
 -231.019248055 557.788451168 -251.417824982 553 -270 553 c 0x98
EndSplineSet
Validated: 524289
EndChar

StartChar: uni2DEC
Encoding: 11756 11756 17
Width: 1
Flags: W
HStem: 561 17<-392 -376.398> 622 29<-296 -266.55> 711 24<-293.993 -266.265>
VStem: -376 80<578.001 627 651 710.192> -263 77<651.396 710.5>
AnchorPoint: "Stacking" -284 800 basemark 0
AnchorPoint: "Stacking" -285 559 mark 0
AnchorPoint: "Diacritic" -284 559 mark 0
LayerCount: 2
Back
SplineSet
-186 675 m 0
 -186 654.333333333 -192.666666667 640.333333333 -206 633 c 0
 -219.333333333 625.666666667 -234 622 -250 622 c 256
 -266 622 -281.333333333 623.666666667 -296 627 c 1
 -296 577 l 1
 -309.333333333 569 -325 564.333333333 -343 563 c 0
 -361 561.666666667 -377 561 -391 561 c 1
 -391.666666667 564.333333333 -392 567 -392 569 c 0
 -392 572 -392 572 -392 578 c 1
 -386.666666667 578 -381.333333333 579 -376 581 c 1
 -376 672 l 2
 -376 693.333333333 -366.833333333 709.166666667 -348.5 719.5 c 0
 -330.166666667 729.833333333 -309 735 -285 735 c 0
 -273.666666667 735 -262.166666667 734 -250.5 732 c 0
 -238.833333333 730 -228.166666667 726.833333333 -218.5 722.5 c 0
 -208.833333333 718.166666667 -201 712.166666667 -195 704.5 c 0
 -189 696.833333333 -186 687 -186 675 c 0
-286 651 m 2
 -280.666666667 651 -275.5 653.666666667 -270.5 659 c 0
 -265.5 664.333333333 -263 671.333333333 -263 680 c 0
 -263 687.333333333 -264 694.333333333 -266 701 c 0
 -268 707.666666667 -273 711 -281 711 c 0
 -288.333333333 711 -292.666666667 707.666666667 -294 701 c 0
 -295.333333333 694.333333333 -296 687.333333333 -296 680 c 2
 -296 651 l 1
 -286 651 l 2
EndSplineSet
Fore
SplineSet
-285 735 m 0
 -237.53357086 735 -186 722.606083853 -186 675 c 0
 -186 636.467389635 -214.08253628 622 -250 622 c 256
 -266 622 -281.333333333 623.666666667 -296 627 c 1
 -296 577 l 1
 -318.84542708 563.292743752 -356.788513625 561 -391 561 c 1
 -391.666666667 564.333333333 -392 567 -392 569 c 2
 -392 578 l 1
 -386.666666667 578 -381.333333333 579 -376 581 c 1
 -376 672 l 2
 -376 716.366167591 -329.96316728 735 -285 735 c 0
-281 711 m 0
 -295.849032996 711 -296 694.431370471 -296 680 c 2
 -296 651 l 1
 -286 651 l 2
 -273.002984314 651 -263 665.632285051 -263 680 c 0
 -263 695.123437537 -265.189022551 711 -281 711 c 0
EndSplineSet
Validated: 524289
EndChar

StartChar: uni2DF1
Encoding: 11761 11761 18
Width: 1
Flags: W
HStem: 552 114<-204.938 -148.394> 629 98<-272.533 -208.032>
VStem: -297 94<666.879 718.767>
AnchorPoint: "Stacking" -206 796 basemark 0
AnchorPoint: "Stacking" -209 548 mark 0
AnchorPoint: "Diacritic" -209 550 mark 0
LayerCount: 2
Back
SplineSet
-121 708 m 1xa0
 -117.666666667 706.666666667 -115.5 705.333333333 -114.5 704 c 0
 -113.5 702.666666667 -111.666666667 701 -109 699 c 1
 -115.666666667 670.333333333 -121 643.166666667 -125 617.5 c 0
 -129 591.833333333 -131.333333333 572.333333333 -132 559 c 1
 -136.666666667 554.333333333 -144.666666667 552 -156 552 c 0xa0
 -168 552 -178.333333333 552.833333333 -187 554.5 c 0
 -195.666666667 556.166666667 -203.666666667 558.333333333 -211 561 c 1
 -210.333333333 572.333333333 -209.5 585 -208.5 599 c 0
 -207.5 613 -206.333333333 624.666666667 -205 634 c 1
 -210.333333333 632.666666667 -215.666666667 631.5 -221 630.5 c 0
 -226.333333333 629.5 -233 629 -241 629 c 0
 -247 629 -252.5 629.833333333 -257.5 631.5 c 0
 -262.5 633.166666667 -267.666666667 635 -273 637 c 0
 -279 643 -284.5 650.666666667 -289.5 660 c 0
 -294.5 669.333333333 -297 679.666666667 -297 691 c 0
 -297 698.333333333 -296 706 -294 714 c 1
 -282.666666667 717.333333333 -269.166666667 720.333333333 -253.5 723 c 0
 -237.833333333 725.666666667 -224 727 -212 727 c 0x60
 -210 725.666666667 -208.666666667 724.333333333 -208 723 c 0
 -208 715.666666667 -207.666666667 706.166666667 -207 694.5 c 0
 -206.333333333 682.833333333 -205 673.333333333 -203 666 c 1
 -189 666 -174.833333333 670.666666667 -160.5 680 c 0
 -146.166666667 689.333333333 -133 698.666666667 -121 708 c 1xa0
EndSplineSet
Fore
SplineSet
-203 666 m 1xa0
 -171.678885754 666 -140.233371791 693.04071083 -121 708 c 1
 -113.8263068 705.13052272 -114.765850672 703.324388004 -109 699 c 1
 -118.971109095 656.124230893 -129.889098631 601.218027367 -132 559 c 1
 -136.666666667 554.333333333 -144.666666667 552 -156 552 c 0xa0
 -178.773453337 552 -194.943483452 555.161266709 -211 561 c 1
 -209.795220308 581.481254758 -207.648082436 615.463422942 -205 634 c 1
 -216.830590546 631.042352364 -225.575197947 629 -241 629 c 0
 -253.9909043 629 -263.020733172 633.257774939 -273 637 c 1
 -284.514803008 648.514803008 -297 668.082909206 -297 691 c 0
 -297 698.333333333 -296 706 -294 714 c 1
 -274.198158933 719.824070902 -236.928116799 727 -212 727 c 0x60
 -210 725.666666667 -208.666666667 724.333333333 -208 723 c 0
 -208 707.788654759 -206.307045627 678.125833965 -203 666 c 1xa0
EndSplineSet
Validated: 524289
EndChar

StartChar: uni0450
Encoding: 1104 1104 19
Width: 274
Flags: W
HStem: -9 90<77 143> 363 83<152.346 228.255> 644 20G<22.1318 80.3333>
VStem: 55 84<257.335 348.698> 65 74<80.0278 172.956>
DStem2: 27 664 22 615 0.936329 -0.351123<-0.816085 217.463>
AnchorPoint: "Yerok" 141 717 basechar 0
AnchorPoint: "Diacritic" 141 716 basechar 0
LayerCount: 2
Back
SplineSet
22 615 m 1xe0
 20 620.333333333 18.6666666667 625.166666667 18 629.5 c 0
 17.3333333333 633.833333333 17 638.333333333 17 643 c 0
 17 645.666666667 17.3333333333 649.833333333 18 655.5 c 0
 18.6666666667 661.166666667 21.6666666667 664 27 664 c 2
 219 592 l 1
 221.666666667 584 223 575.333333333 223 566 c 0
 223 563.333333333 222.666666667 558.833333333 222 552.5 c 0
 221.333333333 546.166666667 218.666666667 543 214 543 c 2
 22 615 l 1xe0
65 92 m 0xe8
 65 109.333333333 64.3333333333 124.166666667 63 136.5 c 0
 61.6666666667 148.833333333 60.3333333333 163.666666667 59 181 c 0
 57.6666666667 197 56.6666666667 211.166666667 56 223.5 c 0
 55.3333333333 235.833333333 55 250 55 266 c 0
 55 323.333333333 70 368 100 400 c 0
 110 410.666666667 124.666666667 420.666666667 144 430 c 0
 163.333333333 439.333333333 184 444.666666667 206 446 c 0
 210 446 214.5 445.666666667 219.5 445 c 0
 224.5 444.333333333 227.666666667 441.333333333 229 436 c 0
 229.666666667 434 230 431.666666667 230 429 c 0
 230 425 230 425 230 420 c 0
 230 413.333333333 229.833333333 406.666666667 229.5 400 c 0
 229.166666667 393.333333333 228.666666667 387.666666667 228 383 c 0
 226.666666667 374.333333333 222.666666667 369 216 367 c 0
 207.333333333 364.333333333 200.166666667 363 194.5 363 c 0
 188.833333333 363 181.666666667 361 173 357 c 0
 161.666666667 351.666666667 153.166666667 344.666666667 147.5 336 c 0
 141.833333333 327.333333333 139 318.666666667 139 310 c 2
 139 257 l 1xf0
 145 263 153.5 269.333333333 164.5 276 c 0
 175.5 282.666666667 186.666666667 287.666666667 198 291 c 0
 201.333333333 292.333333333 204.333333333 293 207 293 c 0
 211 293 211 293 216 293 c 256
 219.333333333 293 221 291.333333333 221 288 c 0
 221 278 220.666666667 265.833333333 220 251.5 c 0
 219.333333333 237.166666667 218.666666667 225.666666667 218 217 c 0
 218 212.333333333 215.333333333 209 210 207 c 0
 188.666666667 199.666666667 172.5 188.833333333 161.5 174.5 c 0
 150.5 160.166666667 142.666666667 140.666666667 138 116 c 0
 138 108.666666667 138.166666667 101.833333333 138.5 95.5 c 0
 138.833333333 89.1666666667 139 84 139 80 c 1
 140.333333333 80.6666666667 141.666666667 81 143 81 c 0
 146.333333333 81 148.666666667 81.3333333333 150 82 c 0
 163.333333333 86 173.833333333 92 181.5 100 c 0
 189.166666667 108 196.666666667 115.333333333 204 122 c 1
 208 122 210.666666667 121 212 119 c 2
 212 104 l 2
 212 89.3333333333 211 76.6666666667 209 66 c 1
 196.333333333 47.3333333333 178.5 30.3333333333 155.5 15 c 0
 132.5 -0.333333333333 106.333333333 -8.33333333333 77 -9 c 0
 73 -9 68.8333333333 -7.5 64.5 -4.5 c 0
 60.1666666667 -1.5 58 2.33333333333 58 7 c 0
 60 21.6666666667 61.6666666667 35.5 63 48.5 c 0
 64.3333333333 61.5 65 76 65 92 c 0xe8
EndSplineSet
Fore
SplineSet
22 615 m 1xe0
 18.4747943525 624.400548393 17 631.488627802 17 643 c 0
 17 651.321440553 17.2636301625 664 27 664 c 1
 219 592 l 1
 221.666666667 584 223 575.333333333 223 566 c 0
 223 558.364019154 222.745414922 543 214 543 c 1
 22 615 l 1xe0
58 7 m 0
 62.0353460613 36.5925377827 65 58.7945845547 65 92 c 0xe8
 65 152.112067348 55 203.909888306 55 266 c 0
 55 323.333333333 70 368 100 400 c 0
 120.620480936 421.995179665 164.583337262 443.489899229 206 446 c 0
 220.257880595 446 230 444.353646221 230 429 c 2
 230 420 l 2
 230 416.509968164 230.043982646 412.832631271 230.043982646 409.106770781 c 0
 230.043982646 390.595991491 228.958363276 370.887508983 216 367 c 0
 207.333333333 364.333333333 200.166666667 363 194.5 363 c 0
 166.632724725 363 139 336.729197156 139 310 c 2xf0
 139 257 l 1
 151.643591913 269.643591913 177.63765077 285.011073756 198 291 c 0
 201.333333333 292.333333333 204.333333333 293 207 293 c 2
 216 293 l 258
 219.333333333 293 221 291.333333333 221 288 c 0
 221 270.121936215 219.253896491 233.300654376 218 217 c 0
 218 212.333333333 215.333333333 209 210 207 c 0
 166.6948503 192.113854791 147.299462858 165.154303677 138 116 c 0
 138 104.03375781 139 90.498923202 139 80 c 1xe8
 140.333333333 80.6666666667 141.666666667 81 143 81 c 0
 159.234886126 81 173.92607174 92.0967705121 181.5 100 c 0
 189.166666667 108 196.666666667 115.333333333 204 122 c 1
 208 122 210.666666667 121 212 119 c 1
 212 104 l 2
 212 89.3333333333 211 76.6666666667 209 66 c 1
 184.536497532 29.94852268 136.082201529 -7.65722269251 77 -9 c 0
 68.5790435929 -9 58 -1.79935621587 58 7 c 0
EndSplineSet
Validated: 524289
Ligature2: "'ccmp' Precomposed Glyphs-1" afii10070 gravecomb
EndChar

StartChar: uni0472
Encoding: 1138 1138 20
Width: 823
Flags: W
HStem: -10 21G<107 110.667 340.412 377.319 711.667 716> 231 18<169.161 232 345 489 592 652.891> 653 20G<427.966 461.258>
VStem: 103 29<-3.11975 78.2318> 216 101<250.869 478.884> 333 43<17 84.0565> 423 44<553.34 638.057> 492 102<171.768 231 249 380.829> 706 14<-9.98169 5.93784>
AnchorPoint: "Yerok" 535 716 basechar 0
AnchorPoint: "Diacritic" 415 716 basechar 0
LayerCount: 2
Back
SplineSet
794 249 m 2
 796 249 797 247.333333333 797 244 c 0
 797 239.333333333 796 236 794 234 c 0
 784 218.666666667 775 201.333333333 767 182 c 0
 759 162.666666667 751.666666667 142.5 745 121.5 c 0
 738.333333333 100.5 733 79 729 57 c 0
 725 35 722 13.6666666667 720 -7 c 0
 720 -9 718 -10 714 -10 c 0
 709.333333333 -10 706.666666667 -9 706 -7 c 0
 700.666666667 4.33333333333 695.166666667 20.3333333333 689.5 41 c 0
 683.833333333 61.6666666667 678.5 83.5 673.5 106.5 c 0
 668.5 129.5 664 152.166666667 660 174.5 c 0
 656 196.833333333 653.333333333 215.666666667 652 231 c 1
 589 231 l 1
 583.666666667 200.333333333 573.666666667 170.666666667 559 142 c 0
 544.333333333 113.333333333 526.333333333 87.8333333333 505 65.5 c 0
 483.666666667 43.1666666667 459.166666667 25.1666666667 431.5 11.5 c 0
 403.833333333 -2.16666666667 374 -9.66666666667 342 -11 c 0
 340 -9 340 -9 337.5 -6.5 c 0
 335.833333333 -4.83333333333 334.333333333 -3 333 -1 c 0
 333 1.66666666667 332.833333333 5.33333333333 332.5 10 c 0
 332.166666667 14.6666666667 331.666666667 18.6666666667 331 22 c 0
 328.333333333 36.6666666667 325.166666667 49.3333333333 321.5 60 c 0
 317.833333333 70.6666666667 313.666666667 80.3333333333 309 89 c 0
 304.333333333 97.6666666667 299.333333333 106.166666667 294 114.5 c 0
 288.666666667 122.833333333 283 132.333333333 277 143 c 0
 261.666666667 171 248.666666667 200.333333333 238 231 c 1
 170 231 l 1
 168.666666667 215.666666667 166 196.666666667 162 174 c 0
 158 151.333333333 153.5 128.5 148.5 105.5 c 0
 143.5 82.5 138 60.8333333333 132 40.5 c 0
 126 20.1666666667 120.666666667 4.33333333333 116 -7 c 0
 114.666666667 -9 112.333333333 -10 109 -10 c 0
 105 -10 103 -9 103 -7 c 0
 101 13.6666666667 98 35 94 57 c 0
 90 79 84.6666666667 100.5 78 121.5 c 0
 71.3333333333 142.5 64 162.5 56 181.5 c 0
 48 200.5 39 217.666666667 29 233 c 0
 26.3333333333 235.666666667 25 239 25 243 c 256
 25 247 26.3333333333 249 29 249 c 2
 232 249 l 1
 221.333333333 285.666666667 216 326.333333333 216 371 c 0
 216 409.666666667 223.5 446 238.5 480 c 0
 253.5 514 272.833333333 544.166666667 296.5 570.5 c 0
 320.166666667 596.833333333 346.5 619 375.5 637 c 0
 404.5 655 432.666666667 667 460 673 c 0
 461.333333333 672.333333333 462.666666667 671 464 669 c 0
 465.333333333 667 466.333333333 665.333333333 467 664 c 0
 467 636 471.166666667 607.833333333 479.5 579.5 c 0
 487.833333333 551.166666667 504 519.333333333 528 484 c 0
 547.333333333 456 563.166666667 426 575.5 394 c 0
 587.833333333 362 594 325 594 283 c 0
 594 277 593.833333333 271.166666667 593.5 265.5 c 0
 593.166666667 259.833333333 592.666666667 254.333333333 592 249 c 1
 794 249 l 2
492 275 m 0
 492 303 487.833333333 329.333333333 479.5 354 c 0
 471.166666667 378.666666667 461.666666667 403.666666667 451 429 c 0
 445 443 440.166666667 456 436.5 468 c 0
 432.833333333 480 430 491.833333333 428 503.5 c 0
 426 515.166666667 424.666666667 527.166666667 424 539.5 c 0
 423.333333333 551.833333333 423 565.666666667 423 581 c 0
 423 593.666666667 423.666666667 604.166666667 425 612.5 c 0
 426.333333333 620.833333333 428 629.666666667 430 639 c 1
 425 638 l 1
 410.333333333 628 396.5 614.5 383.5 597.5 c 0
 370.5 580.5 359 560.833333333 349 538.5 c 0
 339 516.166666667 331.166666667 492 325.5 466 c 0
 319.833333333 440 317 413.666666667 317 387 c 0
 317 359 318.833333333 334.333333333 322.5 313 c 0
 326.166666667 291.666666667 331.666666667 270.333333333 339 249 c 1
 491 249 l 1
 491 253 491.166666667 257.166666667 491.5 261.5 c 0
 491.833333333 265.833333333 492 270.333333333 492 275 c 0
352 211 m 0
 358 194.333333333 362.5 177.333333333 365.5 160 c 0
 368.5 142.666666667 370.833333333 125.5 372.5 108.5 c 0
 374.166666667 91.5 375.166666667 75.1666666667 375.5 59.5 c 0
 375.833333333 43.8333333333 376 29.6666666667 376 17 c 1
 384 18 l 1
 397.333333333 24.6666666667 409.833333333 35.1666666667 421.5 49.5 c 0
 433.166666667 63.8333333333 443.5 80.6666666667 452.5 100 c 0
 461.5 119.333333333 469.166666667 140.333333333 475.5 163 c 0
 481.833333333 185.666666667 486.333333333 208.333333333 489 231 c 1
 345 231 l 1
 347 223.666666667 349.333333333 217 352 211 c 0
EndSplineSet
Fore
SplineSet
594 283 m 0
 594 271.000000001 593.333333334 259.666666666 592 249 c 1
 794 249 l 2
 796 249 797 247.333333333 797 244 c 0
 797 239.333333333 796 236 794 234 c 0
 753.346411513 171.664497655 728.931610586 85.2933093935 720 -7 c 0
 720 -9 718 -10 714 -10 c 0
 709.333333333 -10 706.666666667 -9 706 -7 c 0
 683.653098817 40.4871650166 670.589638257 115.374519733 660 174.5 c 0
 656 196.833333333 653.333333333 215.666666667 652 231 c 1
 589 231 l 1
 577.576804954 165.316628483 544.167101086 106.50305895 505 65.5 c 0
 466.906498685 25.6208658102 412.638390685 -8.05673372147 342 -11 c 0
 338.82409279 -7.82409278985 335.542927643 -4.81439146611 333 -1 c 0
 333 65.1379398228 300.875123833 100.555335407 277 143 c 0
 261.666666667 171 248.666666667 200.333333333 238 231 c 1
 170 231 l 1
 164.536970476 168.175160456 148.216833022 95.4570452409 132 40.5 c 0
 126 20.1666666667 120.666666667 4.33333333333 116 -7 c 0
 114.666666667 -9 112.333333333 -10 109 -10 c 0
 105 -10 103 -9 103 -7 c 0
 96.2135082217 63.1270817095 78.8782069678 127.164258452 56 181.5 c 0
 48 200.5 39 217.666666667 29 233 c 0
 26.3333333333 235.666666667 25 239 25 243 c 256
 25 247 26.3333333333 249 29 249 c 2
 232 249 l 1
 221.333333333 285.666666667 216 326.333333333 216 371 c 0
 216 455.570949639 254.257589894 523.497881714 296.5 570.5 c 0
 336.669037185 615.195125881 395.932682153 658.936442424 460 673 c 0
 462.515875277 671.742062361 465.748961914 666.502076171 467 664 c 0
 467 636 471.166666667 607.833333333 479.5 579.5 c 0
 487.833333333 551.166666667 504 519.333333333 528 484 c 0
 565.011171045 430.397614348 594 371.030855291 594 283 c 0
491 249 m 1
 491 257.499439998 492 266.173355672 492 275 c 0
 492 381.548897647 429.621161143 435.508518906 424 539.5 c 0
 423.333333333 551.833333333 423 565.666666667 423 581 c 0
 423 606.165222335 425.662440895 618.758057512 430 639 c 1
 425 638 l 1
 374.402425914 603.501654033 340.974282084 536.999647205 325.5 466 c 0
 319.833333333 440 317 413.666666667 317 387 c 0
 317 329.625139742 324.179439443 292.114357986 339 249 c 1
 491 249 l 1
345 231 m 1
 351.375438879 207.623390778 361.154061673 185.10986589 365.5 160 c 0
 373.096147884 116.11114556 376 67.3044248456 376 17 c 1
 384 18 l 1
 432.20475689 42.1023784459 459.326461305 105.115756246 475.5 163 c 0
 481.833333333 185.666666667 486.333333333 208.333333333 489 231 c 1
 345 231 l 1
EndSplineSet
Validated: 524289
EndChar

StartChar: uni0406
Encoding: 1030 1030 21
Width: 316
Flags: W
HStem: 0 18<45 60.9656> 645 18<245.478 261>
VStem: 59 198<286.71 380.524 630.527 661> 135 45<400.863 567.163>
AnchorPoint: "Yerok" 154 716 basechar 0
AnchorPoint: "Diacritic" 154 716 basechar 0
LayerCount: 2
Back
SplineSet
271 0 m 1xe0
 257.666666667 0 244.333333333 0.333333333333 231 1 c 0
 219.666666667 1 207.5 1.16666666667 194.5 1.5 c 0
 181.5 1.83333333333 169.333333333 2 158 2 c 256
 146.666666667 2 134.5 1.83333333333 121.5 1.5 c 0
 108.5 1.16666666667 96.3333333333 1 85 1 c 0
 71.6666666667 0.333333333333 58.3333333333 0 45 0 c 1
 45 18 l 1
 61.6666666667 24.6666666667 75.5 36.3333333333 86.5 53 c 0
 97.5 69.6666666667 106.333333333 89.1666666667 113 111.5 c 0
 119.666666667 133.833333333 124.666666667 158 128 184 c 0
 131.333333333 210 133.666666667 236 135 262 c 1xd0
 115 265.333333333 97.3333333333 273 82 285 c 0
 66.6666666667 297 59 313.666666667 59 335 c 256xe0
 59 356.333333333 66.6666666667 372.666666667 82 384 c 0
 97.3333333333 395.333333333 115 402.666666667 135 406 c 1
 134.333333333 431.333333333 132.833333333 456.833333333 130.5 482.5 c 0
 128.166666667 508.166666667 124.166666667 531.833333333 118.5 553.5 c 0
 112.833333333 575.166666667 104.833333333 594.166666667 94.5 610.5 c 0
 84.1666666667 626.833333333 71 638.333333333 55 645 c 1
 55 663 l 1
 67 662.333333333 79 662 91 662 c 0
 101.666666667 661.333333333 113 661 125 661 c 0
 143 661 143 661 158 661 c 256
 173 661 173 661 190.5 661 c 0
 202.166666667 661 213.333333333 661.333333333 224 662 c 0
 236 662 248.333333333 662.333333333 261 663 c 1
 261 645 l 1
 244.333333333 638.333333333 230.833333333 626.833333333 220.5 610.5 c 0
 210.166666667 594.166666667 202.166666667 575.166666667 196.5 553.5 c 0
 190.833333333 531.833333333 186.833333333 508.166666667 184.5 482.5 c 0
 182.166666667 456.833333333 180.666666667 431.333333333 180 406 c 1xd0
 200 402.666666667 217.833333333 395 233.5 383 c 0
 249.166666667 371 257 355 257 335 c 0
 257 313.666666667 249.333333333 297 234 285 c 0
 218.666666667 273 201 265.333333333 181 262 c 1
 182.333333333 236 184.666666667 210 188 184 c 0
 191.333333333 158 196.333333333 133.833333333 203 111.5 c 0
 209.666666667 89.1666666667 218.5 69.6666666667 229.5 53 c 0
 240.5 36.3333333333 254.333333333 24.6666666667 271 18 c 1
 271 0 l 1xe0
EndSplineSet
Fore
SplineSet
257 335 m 0xe0
 257 291.103137922 218.949156168 268.324859361 181 262 c 1
 185.094328807 182.160588236 196.158596322 103.5172783 229.5 53 c 0
 240.5 36.3333333333 254.333333333 24.6666666667 271 18 c 1
 271 0 l 1
 257.666666667 0 244.333333333 0.333333333333 231 1 c 0
 208.861390036 1 180.135910105 2 158 2 c 256
 135.861390036 2 107.135910105 1 85 1 c 0
 71.6666666667 0.333333333333 58.3333333333 0 45 0 c 1
 45 18 l 1
 117.731548179 47.0926192717 130.054879983 165.570159652 135 262 c 1xd0
 97.0399848055 268.326669198 59 291.098792421 59 335 c 256xe0
 59 378.91696439 97.0559099529 399.675984993 135 406 c 1
 132.940628073 484.25613319 125.53321325 561.447501636 94.5 610.5 c 0
 84.1666666667 626.833333333 71 638.333333333 55 645 c 1
 55 663 l 1
 67 662.333333333 79 662 91 662 c 0
 101.666666667 661.333333333 113 661 125 661 c 2
 190.5 661 l 2
 202.166666667 661 213.333333333 661.333333333 224 662 c 0
 236 662 248.333333333 662.333333333 261 663 c 1
 261 645 l 1
 189.916539406 616.566615761 182.540454008 502.537252266 180 406 c 1xd0
 216.771472118 399.871421314 257 376.978703417 257 335 c 0xe0
EndSplineSet
Validated: 524289
EndChar

StartChar: uni047A
Encoding: 1146 1146 22
Width: 982
Flags: W
HStem: -59 122<445.607 536.936> -12 23<370.494 433.752 548.612 612.665> 598 122<445.064 536.862> 650 23<369.259 433.388 548.612 611.506>
VStem: 55 109<199.352 463.692> 818 109<197.003 461.342>
AnchorPoint: "Yerok" 845 716 basechar 0
AnchorPoint: "Diacritic" 490 776 basechar 0
LayerCount: 2
Back
SplineSet
927 330 m 0x1c
 927 300.666666667 924.166666667 272.333333333 918.5 245 c 0
 912.833333333 217.666666667 904.5 192 893.5 168 c 0
 882.5 144 869.166666667 122.166666667 853.5 102.5 c 0
 837.833333333 82.8333333333 820 66.6666666667 800 54 c 0
 768 33.3333333333 733.333333333 17.1666666667 696 5.5 c 0
 658.666666667 -6.16666666667 623 -12 589 -12 c 0x5c
 575.666666667 -12 563 -11 551 -9 c 1
 548.333333333 -23 541.333333333 -34.8333333333 530 -44.5 c 0
 518.666666667 -54.1666666667 505.666666667 -59 491 -59 c 0x8c
 475.666666667 -59 462.5 -54.1666666667 451.5 -44.5 c 0
 440.5 -34.8333333333 433.666666667 -23 431 -9 c 1
 417.666666667 -11 405 -12 393 -12 c 0
 359 -12 323.333333333 -6.16666666667 286 5.5 c 0
 248.666666667 17.1666666667 214 33.3333333333 182 54 c 0
 162 66.6666666667 144.166666667 82.8333333333 128.5 102.5 c 0
 112.833333333 122.166666667 99.5 144 88.5 168 c 0
 77.5 192 69.1666666667 217.666666667 63.5 245 c 0
 57.8333333333 272.333333333 55 300.666666667 55 330 c 0
 55 358.666666667 57.8333333333 387 63.5 415 c 0
 69.1666666667 443 77.5 469 88.5 493 c 0
 99.5 517 112.833333333 538.833333333 128.5 558.5 c 0
 144.166666667 578.166666667 162 594.333333333 182 607 c 0
 214 627.666666667 248.666666667 643.833333333 286 655.5 c 0
 323.333333333 667.166666667 359 673 393 673 c 0x5c
 405 673 417.666666667 672 431 670 c 1
 433.666666667 684 440.5 695.833333333 451.5 705.5 c 0
 462.5 715.166666667 475.666666667 720 491 720 c 256x2c
 506.333333333 720 519.333333333 715.166666667 530 705.5 c 0
 540.666666667 695.833333333 547.666666667 684 551 670 c 1
 563 672 575.666666667 673 589 673 c 0
 623 673 658.666666667 667.166666667 696 655.5 c 0
 733.333333333 643.833333333 768 627.666666667 800 607 c 0
 820 594.333333333 837.833333333 578.166666667 853.5 558.5 c 0
 869.166666667 538.833333333 882.5 517 893.5 493 c 0
 904.5 469 912.833333333 443 918.5 415 c 0
 924.166666667 387 927 358.666666667 927 330 c 0x1c
491 598 m 256x2c
 475.666666667 598 462.333333333 603 451 613 c 0
 439.666666667 623 433 635.333333333 431 650 c 1
 426 650 426 650 421 650 c 0
 417.666666667 650 414.333333333 649.666666667 411 649 c 0
 383 644.333333333 357 636.333333333 333 625 c 0
 309 613.666666667 287.5 600.166666667 268.5 584.5 c 0
 249.5 568.833333333 233.333333333 551.666666667 220 533 c 0
 206.666666667 514.333333333 196.666666667 495.333333333 190 476 c 0
 182.666666667 455.333333333 176.5 432.333333333 171.5 407 c 0
 166.5 381.666666667 164 356.333333333 164 331 c 0
 164 305 166.5 279.333333333 171.5 254 c 0
 176.5 228.666666667 182.666666667 205.666666667 190 185 c 0
 196.666666667 165.666666667 206.666666667 146.666666667 220 128 c 0
 233.333333333 109.333333333 249.5 92.1666666667 268.5 76.5 c 0
 287.5 60.8333333333 309 47.3333333333 333 36 c 0
 357 24.6666666667 383 16.6666666667 411 12 c 0
 414.333333333 11.3333333333 417.666666667 11 421 11 c 0
 426 11 426 11 431 11 c 1x5c
 433.666666667 25.6666666667 440.5 38 451.5 48 c 0
 462.5 58 475.666666667 63 491 63 c 256x8c
 506.333333333 63 519.666666667 58 531 48 c 0
 542.333333333 38 549 25.6666666667 551 11 c 1
 556 11 556 11 561 11 c 0
 564.333333333 11 567.666666667 11.3333333333 571 12 c 0
 599 16.6666666667 624.833333333 24.6666666667 648.5 36 c 0
 672.166666667 47.3333333333 693.5 60.8333333333 712.5 76.5 c 0
 731.5 92.1666666667 747.833333333 109.333333333 761.5 128 c 0
 775.166666667 146.666666667 785.333333333 165.666666667 792 185 c 0
 799.333333333 205.666666667 805.5 228.666666667 810.5 254 c 0
 815.5 279.333333333 818 305 818 331 c 0
 818 356.333333333 815.5 381.666666667 810.5 407 c 0
 805.5 432.333333333 799.333333333 455.333333333 792 476 c 0
 785.333333333 495.333333333 775.166666667 514.333333333 761.5 533 c 0
 747.833333333 551.666666667 731.5 568.833333333 712.5 584.5 c 0
 693.5 600.166666667 672.166666667 613.666666667 648.5 625 c 0
 624.833333333 636.333333333 599 644.333333333 571 649 c 0
 567.666666667 649.666666667 564.333333333 650 561 650 c 0
 556 650 556 650 551 650 c 1x5c
 549 635.333333333 542.333333333 623 531 613 c 0
 519.666666667 603 506.333333333 598 491 598 c 256x2c
EndSplineSet
Fore
SplineSet
491 720 m 256x2c
 522.906473224 720 544.738663981 696.297611283 551 670 c 1
 563 672 575.666666667 673 589 673 c 0
 669.388699875 673 746.505347368 641.548629825 800 607 c 0
 878.283588521 557.420393935 927 456.147721657 927 330 c 0
 927 233.100148732 897.234575105 157.4008496 853.5 102.5 c 0
 816.033135634 55.4671277117 757.982568499 24.869552656 696 5.5 c 0
 658.666666667 -6.16666666667 623 -12 589 -12 c 0x5c
 575.666666667 -12 563 -11 551 -9 c 1
 545.995617111 -35.2730101631 521.567639988 -59 491 -59 c 0x8c
 459.552600475 -59 436.098720783 -35.7682841096 431 -9 c 1
 417.666666667 -11 405 -12 393 -12 c 0
 312.611300125 -12 235.494652632 19.4513701753 182 54 c 0
 121.305083258 92.4401139368 80.4840856241 163.076763462 63.5 245 c 0
 57.8333333333 272.333333333 55 300.666666667 55 330 c 0
 55 426.746696587 84.8898168003 503.755301941 128.5 558.5 c 0
 165.966864365 605.532872288 224.017431502 636.130447344 286 655.5 c 0
 323.333333333 667.166666667 359 673 393 673 c 0x5c
 405 673 417.666666667 672 431 670 c 1
 436.099960411 696.774792154 459.548791138 720 491 720 c 256x2c
551 650 m 1
 547.169684931 621.911022825 522.443074377 598 491 598 c 256x2c
 459.560825008 598 434.829443897 621.917411422 431 650 c 1
 421 650 l 2
 417.666666667 650 414.333333333 649.666666667 411 649 c 0
 326.852627717 634.975437952 260.897833577 590.256967011 220 533 c 0
 193.366105351 495.71254749 181.739509807 458.880183022 171.5 407 c 0
 166.5 381.666666667 164 356.333333333 164 331 c 0
 164 278.096154848 175.970506364 224.537663886 190 185 c 0
 213.557736883 116.682563044 269.06747424 66.1903593866 333 36 c 0
 357 24.6666666667 383 16.6666666667 411 12 c 0
 414.333333333 11.3333333333 417.666666667 11 421 11 c 2
 431 11 l 1x5c
 436.018124859 38.5996867217 459.079584664 63 491 63 c 256x8c
 522.439174992 63 547.170556103 39.0825885772 551 11 c 1
 561 11 l 2
 564.333333333 11 567.666666667 11.3333333333 571 12 c 0
 655.181071861 26.0301786435 719.938572534 71.2331722418 761.5 128 c 0
 788.704452245 165.157300627 800.21405343 201.884537377 810.5 254 c 0
 815.5 279.333333333 818 305 818 331 c 0
 818 382.977500123 805.852148424 436.962127166 792 476 c 0
 768.6059504 543.842743836 711.629661934 594.768894286 648.5 625 c 0
 624.833333333 636.333333333 599 644.333333333 571 649 c 0
 567.666666667 649.666666667 564.333333333 650 561 650 c 2
 551 650 l 1
EndSplineSet
Validated: 524289
EndChar

StartChar: uni0470
Encoding: 1136 1136 23
Width: 607
Flags: W
HStem: 0 18<226.395 276 341 399.482> 535 132<531.298 591.875> 786 18<208.667 246.051>
VStem: 261 107<549.232 786.965> 276 65<-55.0952 0 18 245.52>
DStem2: 399 18 421 71 0.0715218 0.997439<0 442.814>
AnchorPoint: "Yerok" 525 756 basechar 0
AnchorPoint: "Diacritic" 86 758 basechar 0
LayerCount: 2
Back
SplineSet
142 0 m 1xe8
 140 28.6666666667 137 61.3333333333 133 98 c 0
 129 134.666666667 124 173.5 118 214.5 c 0
 112 255.5 105.333333333 297 98 339 c 0
 90.6666666667 381 82.6666666667 421.5 74 460.5 c 0
 65.3333333333 499.5 56 535.833333333 46 569.5 c 0
 36 603.166666667 25.6666666667 631.666666667 15 655 c 0
 15 656.333333333 15.5 657.833333333 16.5 659.5 c 0
 17.5 661.166666667 18.6666666667 662.666666667 20 664 c 0
 32.6666666667 666 49.3333333333 667 70 667 c 0
 88.6666666667 667 106 666 122 664 c 1
 129.333333333 648 136.666666667 625.833333333 144 597.5 c 0
 151.333333333 569.166666667 158.5 536.666666667 165.5 500 c 0
 172.5 463.333333333 179.166666667 424.166666667 185.5 382.5 c 0
 191.833333333 340.833333333 197.666666667 298.666666667 203 256 c 0
 208.333333333 213.333333333 213 171.5 217 130.5 c 0
 221 89.5 224.333333333 52 227 18 c 1
 276 18 l 1xe8
 276 46 275.666666667 81.1666666667 275 123.5 c 0
 274.333333333 165.833333333 273.333333333 211.666666667 272 261 c 0
 270.666666667 310.333333333 269 361.333333333 267 414 c 0
 265 466.666666667 263 517 261 565 c 0
 259 613 256.666666667 656.666666667 254 696 c 0
 251.333333333 735.333333333 248.666666667 766.666666667 246 790 c 1
 237 789 237 789 228 788 c 0
 222 787.333333333 215.666666667 786.666666667 209 786 c 1
 207 804 l 1
 226.333333333 806 243.333333333 808.166666667 258 810.5 c 0
 272.666666667 812.833333333 289.333333333 816.666666667 308 822 c 256
 326.666666667 827.333333333 343.666666667 832.333333333 359 837 c 0
 374.333333333 841.666666667 388.666666667 847.333333333 402 854 c 1
 410 838 l 1
 403.333333333 834.666666667 396.5 831.666666667 389.5 829 c 0
 382.5 826.333333333 375.333333333 823.666666667 368 821 c 1
 366 789.666666667 364.166666667 753.5 362.5 712.5 c 0
 360.833333333 671.5 359 628 357 582 c 0
 355 536 353.166666667 488.166666667 351.5 438.5 c 0xf0
 349.833333333 388.833333333 348.333333333 339.666666667 347 291 c 0
 345.666666667 242.333333333 344.5 194.666666667 343.5 148 c 0
 342.5 101.333333333 341.666666667 58 341 18 c 1
 399 18 l 1
 400.333333333 36.6666666667 402 60.3333333333 404 89 c 0
 406 117.666666667 408.166666667 148 410.5 180 c 0
 414 228 414 228 417.5 276 c 0
 419.833333333 308 422.333333333 336.666666667 425 362 c 0
 427.666666667 392.666666667 431.333333333 422.166666667 436 450.5 c 0
 440.666666667 478.833333333 446.666666667 505 454 529 c 0
 461.333333333 553 470.5 574.5 481.5 593.5 c 0
 492.5 612.5 505.666666667 627.666666667 521 639 c 0
 534.333333333 649 547.666666667 656.166666667 561 660.5 c 0
 574.333333333 664.833333333 588.333333333 667 603 667 c 0
 605.666666667 667 609.166666667 666.666666667 613.5 666 c 0
 617.833333333 665.333333333 621.333333333 664 624 662 c 0
 624 659.333333333 623.833333333 656.333333333 623.5 653 c 0
 623.166666667 649.666666667 622.333333333 647 621 645 c 0
 615.666666667 641.666666667 610.666666667 635.666666667 606 627 c 0
 601.333333333 618.333333333 598 610.333333333 596 603 c 0
 593.333333333 592.333333333 592 581 592 569 c 0
 592 560.333333333 593 552 595 544 c 0
 595 538 592.333333333 535 587 535 c 0
 575 541.666666667 565.333333333 546.333333333 558 549 c 0
 550.666666667 551.666666667 541.333333333 553 530 553 c 0
 514 553 499.666666667 548.333333333 487 539 c 1
 481.666666667 530.333333333 476 518.5 470 503.5 c 0
 464 488.5 459 471 455 451 c 0
 452.333333333 437.666666667 450 422.333333333 448 405 c 0
 446 387.666666667 444.333333333 372.666666667 443 360 c 0
 439.666666667 334 436.666666667 304 434 270 c 0
 431.333333333 236 429 201.833333333 427 167.5 c 0
 425 133.166666667 423 101 421 71 c 0
 419 41 417.666666667 17.3333333333 417 0 c 1
 341 0 l 1
 341 -7 l 2
 341 -21 345 -33.3333333333 353 -44 c 0
 361 -54.6666666667 371.666666667 -63.3333333333 385 -70 c 0
 389.666666667 -72.6666666667 392 -76.6666666667 392 -82 c 256
 392 -87.3333333333 389.666666667 -91 385 -93 c 0
 378.333333333 -95.6666666667 371.5 -100.666666667 364.5 -108 c 0
 357.5 -115.333333333 351 -123.166666667 345 -131.5 c 0
 339 -139.833333333 333.666666667 -148.333333333 329 -157 c 0
 324.333333333 -165.666666667 321.333333333 -172.666666667 320 -178 c 0
 318 -183.333333333 314 -186.333333333 308 -187 c 0
 302.666666667 -186.333333333 299 -183.333333333 297 -178 c 0
 295.666666667 -172.666666667 292.666666667 -165.666666667 288 -157 c 0
 283.333333333 -148.333333333 278 -139.833333333 272 -131.5 c 0
 266 -123.166666667 259.5 -115.333333333 252.5 -108 c 0
 245.5 -100.666666667 238.666666667 -95.6666666667 232 -93 c 0
 226.666666667 -91 224 -87.3333333333 224 -82 c 0
 224 -77.3333333333 226.666666667 -73.3333333333 232 -70 c 0
 245.333333333 -63.3333333333 256 -54.6666666667 264 -44 c 0
 272 -33.3333333333 276 -21 276 -7 c 2
 276 0 l 1
 142 0 l 1xe8
EndSplineSet
Fore
SplineSet
587 535 m 0xe8
 565.816644349 546.768530918 558.004602198 553 530 553 c 0
 514 553 499.666666667 548.333333333 487 539 c 1
 459.946478464 495.0380275 450.057100721 427.042456863 443 360 c 0
 431.850082716 273.030645175 427.13902826 163.085423905 421 71 c 0
 419 41 417.666666667 17.3333333333 417 0 c 1
 341 0 l 1
 341 -7 l 2
 341 -38.6991621875 362.196789035 -58.5983945173 385 -70 c 0
 389.666666667 -72.6666666667 392 -76.6666666667 392 -82 c 256
 392 -87.3333333333 389.666666667 -91 385 -93 c 0
 369.560774888 -99.1756900444 354.83521071 -117.839985125 345 -131.5 c 0
 335.957192262 -144.059455191 323.73674788 -163.053008477 320 -178 c 0
 318 -183.333333333 314 -186.333333333 308 -187 c 0
 302.666666667 -186.333333333 299 -183.333333333 297 -178 c 0
 290.54463274 -152.178530956 269.206657649 -125.502212775 252.5 -108 c 0
 245.5 -100.666666667 238.666666667 -95.6666666667 232 -93 c 0
 226.666666667 -91 224 -87.3333333333 224 -82 c 0
 224 -77.3333333333 226.666666667 -73.3333333333 232 -70 c 0
 254.825674116 -58.5871629414 276 -38.7189228535 276 -7 c 2
 276 0 l 1
 142 0 l 1
 131.003754656 157.612849932 105.424815196 319.088331618 74 460.5 c 0
 58.7680367476 529.043834635 39.602358418 601.182340962 15 655 c 0
 15 658.369416284 18.0626608017 662.062660802 20 664 c 0
 32.6666666667 666 49.3333333333 667 70 667 c 0
 88.6666666667 667 106 666 122 664 c 1
 141.669010677 621.085794885 154.232445444 559.020523866 165.5 500 c 0
 193.958198754 350.93324462 214.202608288 181.166744307 227 18 c 1
 276 18 l 1xe8
 276 196.08308264 268.256552761 390.842733725 261 565 c 0
 257.761186861 642.731515327 253.367930738 725.530606047 246 790 c 1
 228 788 l 2
 222 787.333333333 215.666666667 786.666666667 209 786 c 1
 207 804 l 1
 248.824046164 808.326625465 270.8860079 811.396002258 308 822 c 256
 343.159606715 832.045601918 372.975714598 839.487857298 402 854 c 1
 410 838 l 1
 396.629432838 831.31471642 382.704505616 826.347092952 368 821 c 1xf0
 351.523758738 562.872220225 345.463012818 285.780768973 341 18 c 1
 399 18 l 1
 402.385155434 65.3921760944 406.6689078 127.459306969 410.5 180 c 2
 417.5 276 l 2
 426.183045304 395.081764179 434.695706053 512.656219546 481.5 593.5 c 0
 504.954554151 634.012411716 542.975993832 667 603 667 c 0
 609.898497786 667 619.759711485 665.180216386 624 662 c 1
 624 656.225374064 623.37350522 648.56025783 621 645 c 0
 610.464633998 638.415396249 599.717252821 616.629927008 596 603 c 0
 593.333333333 592.333333333 592 581 592 569 c 0
 592 560.333333333 593 552 595 544 c 0
 595 538 592.333333333 535 587 535 c 0xe8
EndSplineSet
Validated: 524289
EndChar

StartChar: uni047E
Encoding: 1150 1150 25
Width: 945
Flags: W
HStem: -11 50<259.037 386.553 557.087 685.957> 164 91<398.148 462 482 545.99> 370 20<360.078 392.508 551.01 583.922> 485 114<314.372 401.321 542.744 630.628> 654 20<276.514 366.618 577.375 668.712> 724 153<422 522> 859 18<142.099 169.6 302.375 422 522 641.625 774.39 801.956>
VStem: 55 109<179.289 499.526> 261 12<711.001 731.157> 417 18<550.724 605.629> 422 100<724 859> 462 20<106.943 164 255 307.817> 510 18<549.154 604.671> 671 12<711.001 731.166> 781 109<180.9 497.994>
AnchorPoint: "Yerok" 855 716 basechar 0
AnchorPoint: "Diacritic" 855 716 basechar 0
LayerCount: 2
Back
SplineSet
890 315 m 0xf370
 890 263.666666667 883.333333333 214.666666667 870 168 c 0
 856.666666667 121.333333333 835.666666667 83 807 53 c 0
 787.666666667 33.6666666667 765.5 18.1666666667 740.5 6.5 c 0
 715.5 -5.16666666667 685.666666667 -11 651 -11 c 0
 631 -11 611.333333333 -8.16666666667 592 -2.5 c 0
 572.666666667 3.16666666667 554.833333333 11 538.5 21 c 0
 522.166666667 31 508.166666667 43 496.5 57 c 0
 484.833333333 71 476.666666667 86.3333333333 472 103 c 1
 467.333333333 86.3333333333 459.166666667 71 447.5 57 c 0
 435.833333333 43 421.833333333 31 405.5 21 c 0
 389.166666667 11 371.5 3.16666666667 352.5 -2.5 c 0
 333.5 -8.16666666667 314 -11 294 -11 c 0
 259.333333333 -11 229.333333333 -5.16666666667 204 6.5 c 0
 178.666666667 18.1666666667 156.333333333 33.6666666667 137 53 c 0
 122.333333333 67.6666666667 109.833333333 84.8333333333 99.5 104.5 c 0
 89.1666666667 124.166666667 80.6666666667 145.333333333 74 168 c 0
 67.3333333333 190.666666667 62.5 214.5 59.5 239.5 c 0
 56.5 264.5 55 289.666666667 55 315 c 256
 55 340.333333333 55.8333333333 365.666666667 57.5 391 c 0
 59.1666666667 416.333333333 62.3333333333 440.833333333 67 464.5 c 0
 71.6666666667 488.166666667 78.5 510.333333333 87.5 531 c 0
 96.5 551.666666667 108.333333333 570 123 586 c 0
 149 614.666666667 177.666666667 636.5 209 651.5 c 0
 240.333333333 666.5 278.666666667 674 324 674 c 0
 338.666666667 674 352.666666667 671.333333333 366 666 c 0
 379.333333333 660.666666667 391.166666667 653.166666667 401.5 643.5 c 0
 411.833333333 633.833333333 420 622.5 426 609.5 c 0
 432 596.5 435 582.666666667 435 568 c 0
 435 556.666666667 432.833333333 546 428.5 536 c 0
 424.166666667 526 418.333333333 517.166666667 411 509.5 c 0
 403.666666667 501.833333333 395.333333333 495.833333333 386 491.5 c 0
 376.666666667 487.166666667 367.333333333 485 358 485 c 0
 342.666666667 485 329.333333333 490.666666667 318 502 c 0
 306.666666667 513.333333333 301 526.666666667 301 542 c 256
 301 557.333333333 306.666666667 570.666666667 318 582 c 0
 329.333333333 593.333333333 342.666666667 599 358 599 c 0
 372 599 384.333333333 594.166666667 395 584.5 c 0
 405.666666667 574.833333333 412 563.333333333 414 550 c 1
 416 554.666666667 417 560.666666667 417 568 c 0
 417 580.666666667 414.5 592.166666667 409.5 602.5 c 0
 404.5 612.833333333 397.666666667 621.833333333 389 629.5 c 0
 380.333333333 637.166666667 370.5 643.166666667 359.5 647.5 c 0
 348.5 651.833333333 337 654 325 654 c 0
 293 654 266.666666667 644.333333333 246 625 c 0
 225.333333333 605.666666667 209 580.666666667 197 550 c 0
 185 519.333333333 176.5 484.666666667 171.5 446 c 0
 166.5 407.333333333 164 368.666666667 164 330 c 0
 164 292.666666667 167.666666667 256.5 175 221.5 c 0
 182.333333333 186.5 192.666666667 155.5 206 128.5 c 0
 219.333333333 101.5 235.833333333 79.8333333333 255.5 63.5 c 0
 275.166666667 47.1666666667 297 39 321 39 c 0
 336.333333333 39 352.333333333 41.6666666667 369 47 c 0
 385.666666667 52.3333333333 400.833333333 59.5 414.5 68.5 c 0
 428.166666667 77.5 439.5 88.1666666667 448.5 100.5 c 0
 457.5 112.833333333 462 126.333333333 462 141 c 2
 462 164 l 1
 453.333333333 164 444.5 165 435.5 167 c 0
 426.5 169 418.5 171.833333333 411.5 175.5 c 0
 404.5 179.166666667 398.833333333 184 394.5 190 c 0
 390.166666667 196 388 203.333333333 388 212 c 0
 388 229.333333333 395.666666667 240.666666667 411 246 c 0
 426.333333333 251.333333333 443.333333333 254.333333333 462 255 c 1
 462 274 l 2
 462 283.333333333 459.666666667 293 455 303 c 0
 450.333333333 313 443.833333333 322.5 435.5 331.5 c 0
 427.166666667 340.5 416.833333333 348.333333333 404.5 355 c 0
 392.166666667 361.666666667 378.333333333 366.666666667 363 370 c 0
 361 370 360 372.666666667 360 378 c 0
 360 384 361.666666667 388 365 390 c 0
 379.666666667 388 396.833333333 386.166666667 416.5 384.5 c 0
 436.166666667 382.833333333 454.666666667 382 472 382 c 256
 489.333333333 382 507.833333333 382.833333333 527.5 384.5 c 0
 547.166666667 386.166666667 564.333333333 388 579 390 c 0
 582.333333333 388 584 384 584 378 c 0
 584 372.666666667 583 370 581 370 c 0
 565.666666667 366.666666667 551.833333333 361.666666667 539.5 355 c 0
 527.166666667 348.333333333 516.666666667 340.5 508 331.5 c 0
 499.333333333 322.5 492.833333333 313 488.5 303 c 0
 484.166666667 293 482 283.333333333 482 274 c 2
 482 255 l 1
 490.666666667 255 499.5 254.333333333 508.5 253 c 0
 517.5 251.666666667 525.5 249.5 532.5 246.5 c 0
 539.5 243.5 545.166666667 239.166666667 549.5 233.5 c 0
 553.833333333 227.833333333 556 220.666666667 556 212 c 256
 556 203.333333333 553.833333333 196 549.5 190 c 0
 545.166666667 184 539.5 179.166666667 532.5 175.5 c 0
 525.5 171.833333333 517.5 169 508.5 167 c 0
 499.5 165 490.666666667 164 482 164 c 1
 482 141 l 2
 482 126.333333333 486.5 112.833333333 495.5 100.5 c 0
 504.5 88.1666666667 516 77.5 530 68.5 c 0
 544 59.5 559.333333333 52.3333333333 576 47 c 0
 592.666666667 41.6666666667 608.666666667 39 624 39 c 0
 648 39 669.833333333 47.1666666667 689.5 63.5 c 0
 709.166666667 79.8333333333 725.666666667 101.5 739 128.5 c 0
 752.333333333 155.5 762.666666667 186.5 770 221.5 c 0
 777.333333333 256.5 781 292.666666667 781 330 c 0
 781 368.666666667 778.5 407.333333333 773.5 446 c 0
 768.5 484.666666667 760 519.333333333 748 550 c 0
 736 580.666666667 719.666666667 605.666666667 699 625 c 0
 678.333333333 644.333333333 652 654 620 654 c 0
 608 654 596.5 651.833333333 585.5 647.5 c 0
 574.5 643.166666667 564.666666667 637.166666667 556 629.5 c 0
 547.333333333 621.833333333 540.5 612.833333333 535.5 602.5 c 0
 530.5 592.166666667 528 580.666666667 528 568 c 0
 528 564.666666667 528.166666667 561.5 528.5 558.5 c 0
 528.833333333 555.5 529.333333333 552.333333333 530 549 c 1
 532 563 538.333333333 574.833333333 549 584.5 c 0
 559.666666667 594.166666667 572.333333333 599 587 599 c 0
 602.333333333 599 615.666666667 593.333333333 627 582 c 0
 638.333333333 570.666666667 644 557.333333333 644 542 c 256
 644 526.666666667 638.333333333 513.333333333 627 502 c 0
 615.666666667 490.666666667 602.333333333 485 587 485 c 0
 577.666666667 485 568.333333333 487.166666667 559 491.5 c 0
 549.666666667 495.833333333 541.333333333 501.833333333 534 509.5 c 0
 526.666666667 517.166666667 520.833333333 526 516.5 536 c 0
 512.166666667 546 510 556.666666667 510 568 c 0
 510 582.666666667 513 596.5 519 609.5 c 0
 525 622.5 533.166666667 633.833333333 543.5 643.5 c 0
 553.833333333 653.166666667 565.666666667 660.666666667 579 666 c 0
 592.333333333 671.333333333 606.333333333 674 621 674 c 0
 666.333333333 674 704.5 666.5 735.5 651.5 c 0
 766.5 636.5 795 614.666666667 821 586 c 0
 835.666666667 570 847.5 551.666666667 856.5 531 c 0
 865.5 510.333333333 872.5 488.166666667 877.5 464.5 c 0
 882.5 440.833333333 885.833333333 416.333333333 887.5 391 c 0
 889.166666667 365.666666667 890 340.333333333 890 315 c 0xf370
422 724 m 1xfa90
 422 859 l 1
 303 859 l 1
 301.666666667 836.333333333 298.166666667 811.333333333 292.5 784 c 0
 286.833333333 756.666666667 280.333333333 733.666666667 273 715 c 0
 272.333333333 712.333333333 270.333333333 711 267 711 c 0
 263 711 261 712.333333333 261 715 c 0
 256.333333333 747 244.833333333 776.166666667 226.5 802.5 c 0
 208.166666667 828.833333333 181.666666667 848.333333333 147 861 c 0
 143.666666667 861.666666667 142 864.666666667 142 870 c 0
 142 874.666666667 143.666666667 877 147 877 c 2
 797 877 l 2
 800.333333333 877 802 874.333333333 802 869 c 0
 802 865 800.333333333 862.333333333 797 861 c 0
 762.333333333 848.333333333 735.833333333 828.833333333 717.5 802.5 c 0
 699.166666667 776.166666667 687.666666667 747 683 715 c 0
 682.333333333 712.333333333 680.333333333 711 677 711 c 256
 673.666666667 711 671.666666667 712.333333333 671 715 c 0
 663.666666667 733.666666667 657.166666667 756.666666667 651.5 784 c 0
 645.833333333 811.333333333 642.333333333 836.333333333 641 859 c 1
 522 859 l 1xf690
 522 724 l 1
 422 724 l 1xfa90
EndSplineSet
Fore
SplineSet
644 542 m 256xf9de
 644 511.619908991 617.379082427 485 587 485 c 0
 552.029381346 485 527.455644643 510.717743129 516.5 536 c 0
 512.166666667 546 510 556.666666667 510 568 c 0
 510 617.821995131 542.650373411 651.460149365 579 666 c 0
 592.333333333 671.333333333 606.333333333 674 621 674 c 0
 718.498579554 674 772.444053402 639.536043685 821 586 c 0
 875.694759871 526.332989233 890 428.491310058 890 315 c 0
 890 207.354956554 860.941676223 109.450591395 807 53 c 0
 769.977692414 15.9776924136 723.255856589 -11 651 -11 c 0
 583.026116374 -11 528.184594798 18.9784862429 496.5 57 c 0
 484.833333333 71 476.666666667 86.3333333333 472 103 c 1
 456.719999687 48.4285703154 406.852685394 13.7104500298 352.5 -2.5 c 0
 333.5 -8.16666666667 314 -11 294 -11 c 0
 221.794147195 -11 173.978705064 16.0212949359 137 53 c 0
 80.6034532606 109.396546738 55 203.582640503 55 315 c 256
 55 427.853303076 68.7801668011 526.851091057 123 586 c 0
 171.556787848 639.536971218 226.480252528 674 324 674 c 0
 374.323148831 674 409.737219173 644.736025125 426 609.5 c 0
 432 596.5 435 582.666666667 435 568 c 0
 435 530.545946378 412.040646277 503.590300057 386 491.5 c 0
 376.666666667 487.166666667 367.333333333 485 358 485 c 0
 327.619908991 485 301 511.620917573 301 542 c 256
 301 572.380091009 327.620917573 599 358 599 c 0
 386.751040125 599 410.194017448 575.373217016 414 550 c 1
 416 554.666666667 417 560.666666667 417 568 c 0
 417 609.652604008 389.907832901 635.521156737 359.5 647.5 c 0
 348.5 651.833333333 337 654 325 654 c 0
 254.607899536 654 218.030387543 603.744323723 197 550 c 0
 174.243682469 491.844966308 164 409.602207751 164 330 c 0
 164 218.25572663 194.540556986 114.127334027 255.5 63.5 c 0
 275.166666667 47.1666666667 297 39 321 39 c 0
 376.245302066 39 424.516161669 67.6332585834 448.5 100.5 c 0
 457.5 112.833333333 462 126.333333333 462 141 c 2
 462 164 l 1
 426.484460438 164 388 176.644603152 388 212 c 0
 388 247.942137948 427.171996222 253.756142722 462 255 c 1
 462 274 l 2
 462 297.591057778 448.53644523 317.420639151 435.5 331.5 c 0
 418.416954548 349.949689089 392.675563036 363.548790645 363 370 c 0
 361 370 360 372.666666667 360 378 c 0
 360 384 361.666666667 388 365 390 c 0
 393.686603577 386.088190421 439.009464085 382 472 382 c 256
 505.005814936 382 550.309847618 386.087706493 579 390 c 0
 582.333333333 388 584 384 584 378 c 0
 584 372.666666667 583 370 581 370 c 0
 539.144225142 360.90091851 503.582949929 337.806807531 488.5 303 c 0
 484.166666667 293 482 283.333333333 482 274 c 2
 482 255 l 1
 517.756950219 255 556 247.723705198 556 212 c 256
 556 176.64170118 517.515061677 164 482 164 c 1
 482 141 l 2
 482 106.878537467 507.126248936 83.2045542557 530 68.5 c 0
 553.642147172 53.301476818 588.273177267 39 624 39 c 0
 681.354775873 39 717.763429804 85.495945352 739 128.5 c 0
 764.555087321 180.249051827 781 253.702454788 781 330 c 0
 781 450.782392134 761.466799694 566.563316417 699 625 c 0
 678.333333333 644.333333333 652 654 620 654 c 0
 579.250695307 654 549.093865686 630.593989084 535.5 602.5 c 0
 530.5 592.166666667 528 580.666666667 528 568 c 0
 528 560.740433351 528.73346261 555.332686949 530 549 c 1
 533.821820845 575.752745912 556.880509725 599 587 599 c 0
 617.380091009 599 644 572.379082427 644 542 c 256xf9de
422 724 m 1xfda6
 422 859 l 1
 303 859 l 1
 300.3533756 814.007385182 286.502283765 749.369449585 273 715 c 0
 272.333333333 712.333333333 270.333333333 711 267 711 c 0
 263 711 261 712.333333333 261 715 c 0
 250.631795366 786.096260344 210.136042989 837.931061215 147 861 c 0
 143.666666667 861.666666667 142 864.666666667 142 870 c 0
 142 874.666666667 143.666666667 877 147 877 c 2
 797 877 l 2
 800.333333333 877 802 874.333333333 802 869 c 0
 802 865 800.333333333 862.333333333 797 861 c 0
 733.829249504 837.918379626 693.37503254 786.143080271 683 715 c 0
 682.333333333 712.333333333 680.333333333 711 677 711 c 256
 673.666666667 711 671.666666667 712.333333333 671 715 c 0
 657.485195386 749.401320839 643.647531604 813.991962716 641 859 c 1
 522 859 l 1xfba6
 522 724 l 1
 422 724 l 1xfda6
EndSplineSet
Validated: 524289
EndChar

StartChar: uni0478
Encoding: 1144 1144 26
Width: 900
Flags: W
HStem: -11 21G<187.333 223.692 581.333 599.5> 9 18<667 687> 423 20G<527 545.278 855.511 882.333> 653 20G<264.159 301>
VStem: 35 106<274.37 481.456> 180 59<28 84.4067> 334 108<180.16 369.104> 578 89<26 246.559> 685 45<-260.634 8.00146>
DStem2: 699.5 191 752 278 0.0526315 0.998614<-302.473 -182.406 0 140.202>
AnchorPoint: "Yerok" 692 556 basechar 0
AnchorPoint: "Diacritic" 691 556 basechar 0
LayerCount: 2
Back
SplineSet
299 673 m 0xbf80
 303 671.666666667 305.666666667 668.666666667 307 664 c 0
 311 633.333333333 318.333333333 603.833333333 329 575.5 c 0
 339.666666667 547.166666667 354.666666667 516 374 482 c 0
 382.666666667 467.333333333 391 452.5 399 437.5 c 0
 407 422.5 414.166666667 407 420.5 391 c 0
 426.833333333 375 432 358.166666667 436 340.5 c 0
 440 322.833333333 442 303.666666667 442 283 c 0
 442 245 434.666666667 210 420 178 c 0
 405.333333333 146 386.166666667 117.5 362.5 92.5 c 0
 338.833333333 67.5 312 46.1666666667 282 28.5 c 0
 252 10.8333333333 221.333333333 -2.33333333333 190 -11 c 1
 184.666666667 -7 181.333333333 -3.66666666667 180 -1 c 2
 180 18 l 1
 177.333333333 34.6666666667 173.333333333 50 168 64 c 0
 162.666666667 78 156.666666667 91 150 103 c 0
 143.333333333 115 136.5 126.166666667 129.5 136.5 c 0
 122.5 146.833333333 116 157 110 167 c 0
 98.6666666667 185.666666667 88.3333333333 203 79 219 c 0
 69.6666666667 235 61.6666666667 251.166666667 55 267.5 c 0
 48.3333333333 283.833333333 43.3333333333 300.833333333 40 318.5 c 0
 36.6666666667 336.166666667 35 356 35 378 c 0
 35 416.666666667 43 452.5 59 485.5 c 0
 75 518.5 95.6666666667 547.833333333 121 573.5 c 0
 146.333333333 599.166666667 174.666666667 620.666666667 206 638 c 0
 237.333333333 655.333333333 268.333333333 667 299 673 c 0xbf80
881 443 m 0
 883.666666667 443 885 440.333333333 885 435 c 1
 875.666666667 423.666666667 868.833333333 412.5 864.5 401.5 c 0
 860.166666667 390.5 858 378.333333333 858 365 c 0
 858 357 859 348 861 338 c 0
 861 336 860.666666667 334 860 332 c 0
 859.333333333 330 858 329 856 329 c 0
 847.333333333 332.333333333 839.5 335.5 832.5 338.5 c 0
 825.5 341.5 817.333333333 343 808 343 c 0
 792 343 779.166666667 336 769.5 322 c 0
 759.833333333 308 754 293.333333333 752 278 c 0
 749.333333333 255.333333333 747 233.666666667 745 213 c 0
 743 192.333333333 741.166666667 171.5 739.5 150.5 c 0
 737.833333333 129.5 736.333333333 107.666666667 735 85 c 0
 733.666666667 62.3333333333 732.666666667 37.6666666667 732 11 c 0
 730.666666667 -13.6666666667 730 -35.8333333333 730 -55.5 c 0
 730 -85 730 -85 730 -113.5 c 0
 730 -132.5 729.833333333 -152 729.5 -172 c 0
 729.166666667 -192 728 -214 726 -238 c 0
 724 -264.666666667 721.833333333 -291.666666667 719.5 -319 c 0
 717.166666667 -346.333333333 714.333333333 -372 711 -396 c 0
 707.666666667 -420 704 -441.666666667 700 -461 c 0
 696 -480.333333333 691.666666667 -495.333333333 687 -506 c 0
 685.666666667 -509.333333333 683.333333333 -512.5 680 -515.5 c 0
 676.666666667 -518.5 670 -520.333333333 660 -521 c 1
 656.666666667 -518.333333333 655 -514.333333333 655 -509 c 1
 658.333333333 -507.666666667 661 -503.166666667 663 -495.5 c 0
 665 -487.833333333 666.333333333 -481 667 -475 c 0
 670.333333333 -433.666666667 673.166666667 -392.5 675.5 -351.5 c 0
 677.833333333 -310.5 680 -264 682 -212 c 0
 682.666666667 -190 683.166666667 -170.166666667 683.5 -152.5 c 0
 683.833333333 -134.833333333 684.166666667 -117.5 684.5 -100.5 c 0
 684.833333333 -83.5 685 -66.3333333333 685 -49 c 0
 685 -31.6666666667 685.666666667 -12.3333333333 687 9 c 1x7f80
 669.666666667 7 652.333333333 4.33333333333 635 1 c 0
 617.666666667 -2.33333333333 600.333333333 -6.33333333333 583 -11 c 0xbf80
 579.666666667 -11 578 -9 578 -5 c 0
 578 55.6666666667 574.833333333 114 568.5 170 c 0
 562.166666667 226 554.666666667 279.333333333 546 330 c 0
 542.666666667 346.666666667 539.166666667 364.833333333 535.5 384.5 c 0
 531.833333333 404.166666667 528.333333333 421.333333333 525 436 c 0
 525 440.666666667 526 443 528 443 c 0
 533.333333333 443 540.166666667 442.833333333 548.5 442.5 c 0
 556.833333333 442.166666667 565.666666667 441.5 575 440.5 c 0
 584.333333333 439.5 593.833333333 438.5 603.5 437.5 c 0
 613.166666667 436.5 622 435.333333333 630 434 c 1
 634 411.333333333 638 383.5 642 350.5 c 0
 646 317.5 649.666666667 282.5 653 245.5 c 0
 656.333333333 208.5 659.166666667 170.833333333 661.5 132.5 c 0
 663.833333333 94.1666666667 665.666666667 58.6666666667 667 26 c 1
 688 27 l 1x7f80
 689.333333333 49.6666666667 690.5 70.1666666667 691.5 88.5 c 0
 692.5 106.833333333 693.666666667 124.333333333 695 141 c 0
 696.333333333 157.666666667 697.833333333 174.333333333 699.5 191 c 0
 702 216 702 216 705 246 c 256
 707 266 710 286 714 306 c 0
 718 326 723.5 344.5 730.5 361.5 c 0
 737.5 378.5 746.333333333 393.333333333 757 406 c 0
 767.666666667 418.666666667 781.333333333 427.333333333 798 432 c 0
 812.666666667 436 827 438.666666667 841 440 c 0
 855 441.333333333 868.333333333 442.333333333 881 443 c 0
245 29 m 1
 270.333333333 53 291.5 85.8333333333 308.5 127.5 c 0
 325.5 169.166666667 334 215.333333333 334 266 c 0
 334 281.333333333 332.666666667 295.666666667 330 309 c 0
 327.333333333 322.333333333 324 335.333333333 320 348 c 0
 316 360.666666667 311.5 373 306.5 385 c 0
 301.5 397 296.666666667 409.666666667 292 423 c 0
 286.666666667 437.666666667 282 451.166666667 278 463.5 c 0
 274 475.833333333 270.5 488.166666667 267.5 500.5 c 0
 264.5 512.833333333 262.333333333 525.333333333 261 538 c 0
 259.666666667 550.666666667 259 565 259 581 c 0
 259 593.666666667 259.333333333 605.166666667 260 615.5 c 0
 260.666666667 625.833333333 262 635.666666667 264 645 c 1
 259 644 l 1
 243 634.666666667 227.833333333 621.166666667 213.5 603.5 c 0
 199.166666667 585.833333333 186.666666667 565.5 176 542.5 c 0
 165.333333333 519.5 156.833333333 494.666666667 150.5 468 c 0
 144.166666667 441.333333333 141 414.666666667 141 388 c 0
 141 352 145.666666667 321 155 295 c 0
 164.333333333 269 176 241.333333333 190 212 c 0
 221.333333333 144.666666667 237.666666667 83.3333333333 239 28 c 1
 245 29 l 1
EndSplineSet
Fore
SplineSet
299 673 m 0xbf80
 303 671.666666667 305.666666667 668.666666667 307 664 c 0
 316.654381825 589.983072672 340.139947847 541.546988269 374 482 c 0
 406.551759719 426.91240663 442 368.91100527 442 283 c 0
 442 200.089641962 405.025002703 137.420777503 362.5 92.5 c 0
 318.947007 46.4933172546 257.384207405 7.63818502718 190 -11 c 1
 184.666666667 -7 181.333333333 -3.66666666667 180 -1 c 1
 180 18 l 1
 169.777667844 81.8895759644 137.301369661 121.497717232 110 167 c 0
 72.4991270423 228.766143696 35 280.412666293 35 378 c 0
 35 463.151000412 76.1224643525 528.031970462 121 573.5 c 0
 165.264699082 618.347129334 229.317142828 659.36639751 299 673 c 0xbf80
687 9 m 1x7f80
 650.493381517 4.78769786732 615.999649984 -2.1154788504 583 -11 c 0xbf80
 579.666666667 -11 578 -9 578 -5 c 0
 578 137.656089049 557.695183884 265.453104632 535.5 384.5 c 0
 531.833333333 404.166666667 528.333333333 421.333333333 525 436 c 0
 525 440.666666667 526 443 528 443 c 0
 562.556546375 443 599.195961009 439.134006497 630 434 c 1
 651.418399996 312.629066687 661.425106725 162.584885282 667 26 c 1
 688 27 l 1
 691.450865049 85.6647058433 694.018134531 136.18134532 699.5 191 c 2
 705 246 l 258
 711.299842864 308.998428637 725.27092001 368.321717512 757 406 c 0
 782.348369953 436.101189319 830.021914026 440.316942842 881 443 c 0
 883.666666667 443 885 440.333333333 885 435 c 1
 868.940125688 415.49872405 858 396.752188321 858 365 c 0
 858 357 859 348 861 338 c 0
 861 334.078156998 860.026144022 329 856 329 c 0
 839.861076059 335.207278438 828.654342342 343 808 343 c 0
 775.280946933 343 755.780383989 306.982943918 752 278 c 0
 739.583813186 172.462412096 730 61.1052768269 730 -55.5 c 2
 730 -113.5 l 2
 730 -234.936044525 721.263642049 -358.225730097 700 -461 c 0
 693.367274575 -493.058172885 693.203484842 -518.786434343 660 -521 c 1
 656.666666667 -518.333333333 655 -514.333333333 655 -509 c 1
 662.175748745 -506.129700503 665.952920078 -484.423719291 667 -475 c 0
 677.900344315 -339.835730479 685 -198.270621434 685 -49 c 0
 685 -31.6666666667 685.666666667 -12.3333333333 687 9 c 1x7f80
245 29 m 1
 295.600038339 76.9368784269 334 166.471114113 334 266 c 0
 334 331.364898126 309.159263929 373.973531636 292 423 c 0
 274.125286652 472.15546171 259 514.535997173 259 581 c 0
 259 605.492898841 259.771565305 625.267304758 264 645 c 1
 259 644 l 1
 203.227233174 611.465886019 167.716639679 540.491114444 150.5 468 c 0
 144.166666667 441.333333333 141 414.666666667 141 388 c 0
 141 352 145.666666667 321 155 295 c 0
 164.333333333 269 176 241.333333333 190 212 c 0
 221.333333333 144.666666667 237.666666667 83.3333333333 239 28 c 1
 245 29 l 1
EndSplineSet
Validated: 524289
Ligature2: "'ccmp' Precomposed Glyphs-1" afii10032 uni0443
EndChar

StartChar: uni0474
Encoding: 1140 1140 27
Width: 493
Flags: W
HStem: 0 18<116 142 238.726 271 289 321> 578 95<399.186 467.366> 645 18<20 50.4476 152 192>
VStem: 48 104<559.477 645> 142 97<18 253.105> 271 18<18 178.594>
AnchorPoint: "Yerok" 255 716 basechar 0
AnchorPoint: "Diacritic" 255 716 basechar 0
LayerCount: 2
Back
SplineSet
339 515 m 0xd8
 335 503.666666667 331.666666667 491.333333333 329 478 c 0
 326.333333333 464.666666667 324 450.333333333 322 435 c 0
 318.666666667 409 315.333333333 379.166666667 312 345.5 c 0
 308.666666667 311.833333333 305.5 276.666666667 302.5 240 c 0
 299.5 203.333333333 296.833333333 166 294.5 128 c 0
 292.166666667 90 290.333333333 53.3333333333 289 18 c 1
 321 18 l 1
 321 0 l 1
 116 0 l 1
 116 18 l 1
 142 18 l 1
 141.333333333 43.3333333333 139.5 73.1666666667 136.5 107.5 c 0
 133.5 141.833333333 129.666666667 178.333333333 125 217 c 0
 120.333333333 255.666666667 115 295.333333333 109 336 c 0
 103 376.666666667 96.6666666667 416 90 454 c 0
 83.3333333333 492 76.3333333333 527.5 69 560.5 c 0
 61.6666666667 593.5 54.6666666667 621.666666667 48 645 c 1
 20 645 l 1
 20 663 l 1
 192 663 l 1
 192 645 l 1
 152 645 l 1xb8
 158.666666667 622.333333333 165.166666667 594.5 171.5 561.5 c 0
 177.833333333 528.5 184 493 190 455 c 0
 196 417 201.666666667 377.5 207 336.5 c 0
 212.333333333 295.5 217.166666667 255.666666667 221.5 217 c 0
 225.833333333 178.333333333 229.5 141.666666667 232.5 107 c 0
 235.5 72.3333333333 237.666666667 42.6666666667 239 18 c 1
 271 18 l 1
 272.333333333 54 274.166666667 91 276.5 129 c 0
 278.833333333 167 281.5 204.5 284.5 241.5 c 0
 287.5 278.5 290.666666667 313.833333333 294 347.5 c 0
 297.333333333 381.166666667 300.666666667 411 304 437 c 0
 309.333333333 479 317.333333333 517.666666667 328 553 c 0
 338.666666667 588.333333333 357.666666667 617.666666667 385 641 c 0
 397 651 409.166666667 658.833333333 421.5 664.5 c 0
 433.833333333 670.166666667 447.666666667 673 463 673 c 0
 472.333333333 673 480.833333333 672.166666667 488.5 670.5 c 0
 496.166666667 668.833333333 502.333333333 667 507 665 c 0
 508.333333333 663.666666667 509.333333333 661.833333333 510 659.5 c 0
 510.666666667 657.166666667 511 655 511 653 c 0
 503.666666667 646.333333333 497.833333333 640.333333333 493.5 635 c 0
 489.166666667 629.666666667 484.333333333 623 479 615 c 256
 473.666666667 607 470.5 598.333333333 469.5 589 c 0
 468.5 579.666666667 468 570.666666667 468 562 c 0
 466.666666667 559.333333333 463.666666667 558 459 558 c 0
 450.333333333 563.333333333 442.5 568 435.5 572 c 0
 428.5 576 419.333333333 578 408 578 c 0
 388 578 373.333333333 571.833333333 364 559.5 c 0
 354.666666667 547.166666667 346.333333333 532.333333333 339 515 c 0xd8
EndSplineSet
Fore
SplineSet
459 558 m 0xcc
 442.701507583 568.029841486 432.6087128 578 408 578 c 0
 388 578 373.333333333 571.833333333 364 559.5 c 0
 325.750764744 508.956367697 320.30228871 429.353115977 312 345.5 c 0
 301.74650879 241.939738768 293.136487456 127.616917622 289 18 c 1
 321 18 l 1
 321 0 l 1
 116 0 l 1
 116 18 l 1
 142 18 l 1xcc
 139.188341417 124.843026113 123.885112709 235.112013861 109 336 c 0
 93.3135676337 442.319152706 74.3366118884 552.821858392 48 645 c 1
 20 645 l 1
 20 663 l 1
 192 663 l 1
 192 645 l 1
 152 645 l 1xb4
 178.393242572 555.262975259 193.415840566 440.928225659 207 336.5 c 0
 220.443535375 233.1528218 233.263019097 124.134146729 239 18 c 1
 271 18 l 1
 276.263883931 160.124866175 287.255544759 306.393249111 304 437 c 0
 317.136864335 540.452806641 340.554722294 627.308926456 421.5 664.5 c 0
 433.833333333 670.166666667 447.666666667 673 463 673 c 0
 482.741636301 673 511 671.938105333 511 653 c 1
 495.981569465 639.34688133 490.316035049 631.974052574 479 615 c 256
 469.665692344 600.998538515 468 583.373675205 468 562 c 0
 466.666666667 559.333333333 463.666666667 558 459 558 c 0xcc
EndSplineSet
Validated: 524289
EndChar

StartChar: uni0460
Encoding: 1120 1120 28
Width: 780
Flags: W
HStem: -10 21G<169.667 171 510.333 511.667> 645 21.0628G<108.376 116.957 393.406 411 657.547 672.667>
VStem: 45 109<200.93 558.99> 320 107<248.086 593.593> 634 101<266.817 512.648>
AnchorPoint: "Yerok" 395 716 basechar 0
AnchorPoint: "Diacritic" 395 716 basechar 0
LayerCount: 2
Back
SplineSet
347 657 m 0
 348.333333333 661 351.666666667 663 357 663 c 0
 364.333333333 663.666666667 371.666666667 664.166666667 379 664.5 c 0
 386.333333333 664.833333333 393.666666667 665 401 665 c 0
 421 665 441 664 461 662 c 0
 463 661 463 661 466 659.5 c 0
 468 658.5 469 657 469 655 c 0
 463.666666667 642.333333333 458.5 627.166666667 453.5 609.5 c 0
 448.5 591.833333333 444 572.833333333 440 552.5 c 0
 436 532.166666667 432.833333333 510.5 430.5 487.5 c 0
 428.166666667 464.5 427 441.333333333 427 418 c 0
 427 378.666666667 430.666666667 338.166666667 438 296.5 c 0
 445.333333333 254.833333333 456.666666667 216 472 180 c 0
 482.666666667 155.333333333 495 133.333333333 509 114 c 0
 523 94.6666666667 537 77.6666666667 551 63 c 1
 593 102.333333333 617.666666667 150.333333333 625 207 c 0
 627.666666667 227 629.833333333 245.666666667 631.5 263 c 0
 633.166666667 280.333333333 634 299.666666667 634 321 c 0
 634 383.666666667 628 442.666666667 616 498 c 0
 604 553.333333333 588.333333333 601.333333333 569 642 c 0
 569 646.666666667 571 649.666666667 575 651 c 0
 581 651.666666667 588 653.166666667 596 655.5 c 0
 604 657.833333333 612.333333333 660.166666667 621 662.5 c 0
 629.666666667 664.833333333 638.166666667 667 646.5 669 c 0
 654.833333333 671 662.666666667 672.666666667 670 674 c 0
 675.333333333 674 678.666666667 673.333333333 680 672 c 0
 692.666666667 640 705 603.666666667 717 563 c 0
 729 522.333333333 735 477.333333333 735 428 c 0
 735 378 729.5 332.333333333 718.5 291 c 0
 707.5 249.666666667 694 213.333333333 678 182 c 0
 658 143.333333333 634.833333333 109.333333333 608.5 80 c 0
 582.166666667 50.6666666667 551.666666667 21.3333333333 517 -8 c 0
 514.333333333 -9.33333333333 512.333333333 -10 511 -10 c 256
 509.666666667 -10 507.666666667 -9.33333333333 505 -8 c 0
 489.666666667 4 476 16.1666666667 464 28.5 c 0
 452 40.8333333333 440.666666667 53.8333333333 430 67.5 c 0
 419.333333333 81.1666666667 409.166666667 96 399.5 112 c 0
 389.833333333 128 380 146 370 166 c 1
 356 150.666666667 342.333333333 136.333333333 329 123 c 0
 315.666666667 109.666666667 300.333333333 95.3333333333 283 80 c 0
 263 62 245.333333333 46.8333333333 230 34.5 c 0
 214.666666667 22.1666666667 196.333333333 8 175 -8 c 0
 173.666666667 -9.33333333333 172 -10 170 -10 c 0
 169.333333333 -10 167.666666667 -9.33333333333 165 -8 c 0
 127.666666667 38 98.3333333333 92.6666666667 77 156 c 0
 55.6666666667 219.333333333 45 288.666666667 45 364 c 0
 45 421.333333333 49 476 57 528 c 0
 65 580 74 622.666666667 84 656 c 0
 84.6666666667 660 87.6666666667 662.666666667 93 664 c 0
 97 664.666666667 101.833333333 665.166666667 107.5 665.5 c 0
 113.166666667 665.833333333 119 666 125 666 c 0
 138.333333333 666 151.833333333 665.333333333 165.5 664 c 0
 179.166666667 662.666666667 189.666666667 661.333333333 197 660 c 0
 199.666666667 658 201 655.333333333 201 652 c 0
 187.666666667 612 176.5 566.833333333 167.5 516.5 c 0
 158.5 466.166666667 154 412 154 354 c 0
 154 304.666666667 159.5 259.166666667 170.5 217.5 c 0
 181.5 175.833333333 197 139 217 107 c 0
 221 99.6666666667 226 93.8333333333 232 89.5 c 0
 238 85.1666666667 244.333333333 82 251 80 c 1
 254.333333333 82.6666666667 257.666666667 85.5 261 88.5 c 0
 264.333333333 91.5 267.666666667 94.6666666667 271 98 c 0
 289 114 304.666666667 128.5 318 141.5 c 0
 331.333333333 154.5 345.333333333 169.333333333 360 186 c 1
 333.333333333 250 320 322.333333333 320 403 c 0
 320 451.666666667 322.833333333 498.666666667 328.5 544 c 0
 334.166666667 589.333333333 340.333333333 627 347 657 c 0
EndSplineSet
Fore
SplineSet
201 652 m 0
 173.537377095 569.612131282 154 466.023924338 154 354 c 0
 154 253.586742543 177.985937342 169.422500253 217 107 c 0
 224.266665316 93.6777802532 236.057923017 84.4826230946 251 80 c 1
 273.581623109 98.065298489 300.107288638 124.054606422 318 141.5 c 0
 331.333333333 154.5 345.333333333 169.333333333 360 186 c 1
 333.333333333 250 320 322.333333333 320 403 c 0
 320 489.486862272 332.166008691 590.247039113 347 657 c 0
 348.333333333 661 351.666666667 663 357 663 c 0
 371.189300904 664.289936447 385.811298687 665 401 665 c 0
 421 665 441 664 461 662 c 1
 463.97783276 660.51108362 469 659.07122131 469 655 c 0
 442.348798968 591.703397543 427 507.487362578 427 418 c 0
 427 297.899456857 457.309744589 185.38178128 509 114 c 0
 523 94.6666666667 537 77.6666666667 551 63 c 1
 593 102.333333333 617.666666667 150.333333333 625 207 c 0
 630.34977863 247.12333972 634 276.325419119 634 321 c 0
 634 443.352042754 607.953985187 560.062307018 569 642 c 1
 569 653.778006307 585.016073472 652.296354763 596 655.5 c 0
 619.249478433 662.281097875 645.093670204 669.471576402 670 674 c 0
 675.333333333 674 678.666666667 673.333333333 680 672 c 0
 706.332534421 605.475702517 735 523.226221015 735 428 c 0
 735 210.966315719 634.476050665 91.4028121003 517 -8 c 0
 514.333333333 -9.33333333333 512.333333333 -10 511 -10 c 256
 509.666666667 -10 507.666666667 -9.33333333333 505 -8 c 0
 445.480829571 38.5802203369 405.600145188 94.7997096233 370 166 c 1
 310.746508993 101.103319374 246.02454341 45.2684075584 175 -8 c 0
 173.666666667 -9.33333333333 172 -10 170 -10 c 0
 169.333333333 -10 167.666666667 -9.33333333333 165 -8 c 0
 93.7179378338 79.8296837412 45 208.013611705 45 364 c 0
 45 466.177314711 61.737634069 581.792113564 84 656 c 0
 85.5208304338 665.124982603 101.558581009 666.06277302 115.193032503 666.06277302 c 0
 118.720567152 666.06277302 122.087231804 666 125 666 c 0
 147.056849362 666 179.762879902 663.134021835 197 660 c 0
 199.666666667 658 201 655.333333333 201 652 c 0
EndSplineSet
Validated: 524289
EndChar

StartChar: uni046E
Encoding: 1134 1134 29
Width: 607
Flags: W
HStem: -179 41<118.953 249.31> -86 26<374.795 483.717> -9 18<243.179 362.817> 118 18<35 50 165.108 193> 333 18<237.255 362.776> 421 18<35 53 170.591 193> 788 18<136 162>
VStem: 37 100<-123.143 -14.5888> 47 114<136.583 250.977> 53 113<136 165.47 439 537.299> 428 104<418.888 589.644> 451 110<79.9894 258.268> 463 123<-174.656 -101.819>
AnchorPoint: "Yerok" 445 870 basechar 0
AnchorPoint: "Diacritic" 295 870 basechar 0
LayerCount: 2
Back
SplineSet
35 439 m 1xfe60
 53 439 l 1
 53.6666666667 454.333333333 55 470 57 486 c 0
 59 502 64.3333333333 518.333333333 73 535 c 0
 80.3333333333 549.666666667 90.3333333333 564.5 103 579.5 c 0
 115.666666667 594.5 129.666666667 608.166666667 145 620.5 c 0
 160.333333333 632.833333333 176.833333333 643.166666667 194.5 651.5 c 0
 212.166666667 659.833333333 229.666666667 665 247 667 c 1
 162 788 l 1
 136 788 l 1
 136 806 l 1
 257 806 l 1
 295 730 l 2
 295.666666667 732 296.666666667 734.333333333 298 737 c 0
 300.666666667 742.333333333 305 748.833333333 311 756.5 c 0
 317 764.166666667 321 768.666666667 323 770 c 0
 336.333333333 780.666666667 352.333333333 790.166666667 371 798.5 c 0
 389.666666667 806.833333333 407.333333333 813.333333333 424 818 c 0
 426.666666667 818 429.166666667 817.833333333 431.5 817.5 c 0
 433.833333333 817.166666667 435 816.333333333 435 815 c 0
 435 801.666666667 431 788 423 774 c 0
 419 766.666666667 413.333333333 762.333333333 406 761 c 0
 394.666666667 759.666666667 383.666666667 756.666666667 373 752 c 0
 362.333333333 747.333333333 350 740.333333333 336 731 c 0
 332.666666667 726.333333333 329 720.833333333 325 714.5 c 0
 321 708.166666667 317 701.333333333 313 694 c 1
 325 670 l 1
 332.333333333 669.333333333 340 668.5 348 667.5 c 0
 360 666 360 666 376 664 c 0
 394 660.666666667 411.5 656 428.5 650 c 0
 445.5 644 461 636.166666667 475 626.5 c 0
 489 616.833333333 500.666666667 605.166666667 510 591.5 c 0
 519.333333333 577.833333333 525.666666667 562 529 544 c 0
 531 532 532 520 532 508 c 0xfe60
 532 499.333333333 531.5 490.5 530.5 481.5 c 0
 529.5 472.5 528.333333333 463.333333333 527 454 c 0
 523.666666667 436.666666667 516.333333333 422.833333333 505 412.5 c 0
 493.666666667 402.166666667 481.333333333 391.333333333 468 380 c 1
 436 368 411 355.333333333 393 342 c 1
 420.333333333 337.333333333 444.166666667 330.333333333 464.5 321 c 0
 484.833333333 311.666666667 504.666666667 298.666666667 524 282 c 0
 531.333333333 272.666666667 537.833333333 262 543.5 250 c 0
 549.166666667 238 553.666666667 224 557 208 c 0
 559.666666667 194.666666667 561 180.333333333 561 165 c 256xfe10
 561 149.666666667 558.666666667 132.666666667 554 114 c 0
 548 90.6666666667 537.166666667 71.1666666667 521.5 55.5 c 0
 505.833333333 39.8333333333 487.333333333 27.1666666667 466 17.5 c 0
 444.666666667 7.83333333333 421.5 1 396.5 -3 c 0
 371.5 -7 346.333333333 -9 321 -9 c 0
 299.666666667 -9 280.333333333 -8 263 -6 c 0
 245.666666667 -4 227.333333333 -3 208 -3 c 0
 181.333333333 -3 162.833333333 -8.33333333333 152.5 -19 c 0
 142.166666667 -29.6666666667 137 -47 137 -71 c 0
 137 -82.3333333333 139 -92.3333333333 143 -101 c 0
 147 -109.666666667 152.166666667 -116.666666667 158.5 -122 c 0
 164.833333333 -127.333333333 171.666666667 -131.333333333 179 -134 c 0
 186.333333333 -136.666666667 193.333333333 -138 200 -138 c 0
 221.333333333 -138 240.166666667 -135.5 256.5 -130.5 c 0
 272.833333333 -125.5 290.333333333 -117.333333333 309 -106 c 0
 333.666666667 -91.3333333333 357 -80 379 -72 c 0
 401 -64 427 -60 457 -60 c 0
 473.666666667 -60 489.666666667 -62 505 -66 c 0
 520.333333333 -70 534 -75.8333333333 546 -83.5 c 0
 558 -91.1666666667 567.666666667 -100.666666667 575 -112 c 0
 582.333333333 -123.333333333 586 -136.333333333 586 -151 c 0
 586 -159 584.666666667 -167 582 -175 c 1
 575.333333333 -176.333333333 567.166666667 -177.166666667 557.5 -177.5 c 0
 547.833333333 -177.833333333 537.333333333 -178 526 -178 c 0
 514 -178 502.166666667 -177.833333333 490.5 -177.5 c 0
 478.833333333 -177.166666667 469 -176.333333333 461 -175 c 1
 462.333333333 -168.333333333 463 -161 463 -153 c 0
 463 -147.666666667 461.666666667 -141.166666667 459 -133.5 c 0
 456.333333333 -125.833333333 452.833333333 -118.5 448.5 -111.5 c 0
 444.166666667 -104.5 438.833333333 -98.5 432.5 -93.5 c 0
 426.166666667 -88.5 419 -86 411 -86 c 0
 393.666666667 -86 378.333333333 -89.8333333333 365 -97.5 c 0
 351.666666667 -105.166666667 336.333333333 -113.666666667 319 -123 c 0
 303.666666667 -131.666666667 289.5 -139.333333333 276.5 -146 c 0
 263.5 -152.666666667 250.5 -158.5 237.5 -163.5 c 0
 224.5 -168.5 211 -172.333333333 197 -175 c 0
 183 -177.666666667 167.666666667 -179 151 -179 c 0
 117 -179 89.5 -169.666666667 68.5 -151 c 0
 47.5 -132.333333333 37 -106.666666667 37 -74 c 0xff08
 37 -37.3333333333 48.6666666667 -11 72 5 c 0
 95.3333333333 21 125 29 161 29 c 0
 174.333333333 29 187.166666667 28 199.5 26 c 0
 211.833333333 24 224.166666667 21.6666666667 236.5 19 c 0
 248.833333333 16.3333333333 261.166666667 14 273.5 12 c 0
 285.833333333 10 298.666666667 9 312 9 c 0
 358 9 392.666666667 24.3333333333 416 55 c 0
 439.333333333 85.6666666667 451 126.333333333 451 177 c 0
 451 204.333333333 445.833333333 231.333333333 435.5 258 c 0
 425.166666667 284.666666667 410.666666667 304.666666667 392 318 c 1
 374.666666667 325.333333333 358 329.666666667 342 331 c 0
 326 332.333333333 308 333 288 333 c 256
 268 333 250.166666667 329.5 234.5 322.5 c 0
 218.833333333 315.5 205.5 305.833333333 194.5 293.5 c 0
 183.5 281.166666667 175.166666667 266.666666667 169.5 250 c 0
 163.833333333 233.333333333 161 215.333333333 161 196 c 0
 161 185.333333333 161.5 174.666666667 162.5 164 c 0
 163.5 153.333333333 165 144 167 136 c 1
 193 136 l 1
 193 118 l 1
 35 118 l 1
 35 136 l 1
 50 136 l 1
 48 144.666666667 47 154.666666667 47 166 c 0xfe90
 48.3333333333 216 64.3333333333 256.833333333 95 288.5 c 0
 125.666666667 320.166666667 165.666666667 339 215 345 c 0
 245.666666667 349 273.333333333 351 298 351 c 0
 316 351 334.666666667 350 354 348 c 0
 358 349.333333333 361.666666667 351.333333333 365 354 c 0
 370 358 370 358 380 366 c 0
 398.666666667 382 411.333333333 401.833333333 418 425.5 c 0
 424.666666667 449.166666667 428 473.666666667 428 499 c 0
 428 520.333333333 425.666666667 540.5 421 559.5 c 0
 416.333333333 578.5 408.833333333 595 398.5 609 c 0
 388.166666667 623 375 634.166666667 359 642.5 c 0
 343 650.833333333 323.666666667 655 301 655 c 0
 279.666666667 655 260.5 650.333333333 243.5 641 c 0
 226.5 631.666666667 212.333333333 619.666666667 201 605 c 0
 189.666666667 590.333333333 181 573.666666667 175 555 c 0
 169 536.333333333 166 518 166 500 c 0
 166 488 166.5 477.666666667 167.5 469 c 0
 168.5 460.333333333 170 450.333333333 172 439 c 1
 193 439 l 1
 193 421 l 1
 35 421 l 1
 35 439 l 1xfe60
EndSplineSet
Fore
SplineSet
166 500 m 0xfe60
 166 474.146784323 167.990248901 461.721922894 172 439 c 1
 193 439 l 1
 193 421 l 1
 35 421 l 1
 35 439 l 1
 53 439 l 1
 54.6667588422 477.335453369 57.862533265 505.889487048 73 535 c 0
 97.570288844 584.140577689 143.956218294 627.658593536 194.5 651.5 c 0
 212.166666667 659.833333333 229.666666667 665 247 667 c 1
 162 788 l 1
 136 788 l 1
 136 806 l 1
 257 806 l 1
 295 730 l 1
 298.513606324 740.540818967 314.435966088 764.29064406 323 770 c 0
 347.800092249 789.8400738 389.794400248 808.422432069 424 818 c 0
 427.582039041 818 435 818.098542639 435 815 c 0
 435 796.967459694 425.317180887 764.512214706 406 761 c 0
 376.501553747 757.529594559 359.293639087 746.529092724 336 731 c 1
 328.280437184 720.192612056 320.022253722 706.874131823 313 694 c 1
 325 670 l 1
 332.333333333 669.333333333 340 668.5 348 667.5 c 2
 376 664 l 1
 461.99333465 648.0753084 532 609.934869537 532 508 c 0xfe60
 532 468.283659493 526.29681026 431.917679942 505 412.5 c 0
 493.666666667 402.166666667 481.333333333 391.333333333 468 380 c 1
 436 368 411 355.333333333 393 342 c 1
 450.865273156 332.120563119 486.485371533 314.340196955 524 282 c 1
 545.979574731 254.025995796 561 215.611035604 561 165 c 256xfe10
 561 34.7610623996 450.983946197 -9 321 -9 c 0
 278.816151015 -9 249.063756979 -3 208 -3 c 0
 156.452371688 -3 137 -20.9077638582 137 -71 c 0
 137 -109.570456156 162.750358808 -138 200 -138 c 0
 249.302357147 -138 275.265516715 -126.481650565 309 -106 c 0
 354.45696372 -78.9715350857 389.904480945 -60 457 -60 c 0
 510.433563762 -60 553.780420008 -79.2061036483 575 -112 c 0
 582.333333333 -123.333333333 586 -136.333333333 586 -151 c 0
 586 -159 584.666666667 -167 582 -175 c 1
 567.411830802 -177.917633839 548.111838823 -178.000298279 529.370201545 -178.000298279 c 0
 528.244405543 -178.000298279 527.12062426 -178 526 -178 c 0
 504.635714251 -178 478.495860903 -177.915976816 461 -175 c 1
 462.333333333 -168.333333333 463 -161 463 -153 c 0
 463 -128.919470313 446.941376235 -104.901086502 432.5 -93.5 c 0
 426.166666667 -88.5 419 -86 411 -86 c 0
 393.666666667 -86 378.333333333 -89.8333333333 365 -97.5 c 0
 326.421678392 -119.682534926 280.544442791 -146.94444508 237.5 -163.5 c 0
 212.07378579 -173.279313158 185.534263416 -179 151 -179 c 0
 84.4018224918 -179 37 -140.150843938 37 -74 c 0xff08
 37 -0.940830839035 88.8403688717 29 161 29 c 0
 217.053494626 29 255.945706489 9 312 9 c 0
 407.230553835 9 451 80.0953143024 451 177 c 0
 451 234.598184925 426.517801746 293.344427325 392 318 c 1
 358.893031044 332.006794558 332.594437886 333 288 333 c 256
 207.283186664 333 161 276.426594748 161 196 c 0
 161 175.580666219 162.982122237 152.071511052 167 136 c 1
 193 136 l 1
 193 118 l 1
 35 118 l 1
 35 136 l 1
 50 136 l 1
 48 144.666666667 47 154.666666667 47 166 c 0xfe90
 49.7341818912 268.531820924 119.801516481 333.421806058 215 345 c 0
 245.666666667 349 273.333333333 351 298 351 c 0
 316 351 334.666666667 350 354 348 c 0
 358 349.333333333 361.666666667 351.333333333 365 354 c 2
 380 366 l 1
 413.5025388 394.716461828 428 440.865720563 428 499 c 0
 428 568.644853233 405.250809383 618.411036781 359 642.5 c 0
 343 650.833333333 323.666666667 655 301 655 c 0
 232.611708211 655 191.847619023 607.41481474 175 555 c 0
 169 536.333333333 166 518 166 500 c 0xfe60
EndSplineSet
Validated: 524289
EndChar

StartChar: uni0476
Encoding: 1142 1142 30
Width: 493
Flags: W
HStem: 0 18<116 142 238.726 271 289 321> 578 95<399.186 467.366> 645 18<20 50.4476 152 192> 706 90<155.938 215.062 282.938 342.062>
VStem: 48 104<559.477 645> 142 97<18 253.105> 271 18<18 178.594>
AnchorPoint: "Yerok" 252 856 basechar 0
AnchorPoint: "Diacritic" 252 855 basechar 0
LayerCount: 2
Back
SplineSet
333 796 m 2x9c
 335 796 336.666666667 794 338 790 c 2
 358 712 l 2
 358 708 356.666666667 706 354 706 c 2
 292 706 l 2
 290 706 288.333333333 708 287 712 c 2
 267 790 l 2
 267 794 268.333333333 796 271 796 c 2
 333 796 l 2x9c
206 796 m 2
 208 796 209.666666667 794 211 790 c 2
 231 712 l 2
 231 708 229.666666667 706 227 706 c 2
 165 706 l 2
 163 706 161.333333333 708 160 712 c 2
 140 790 l 2
 140 794 141.333333333 796 144 796 c 2
 206 796 l 2
339 515 m 0
 335 503.666666667 331.666666667 491.333333333 329 478 c 0
 326.333333333 464.666666667 324 450.333333333 322 435 c 0
 318.666666667 409 315.333333333 379.166666667 312 345.5 c 0
 308.666666667 311.833333333 305.5 276.666666667 302.5 240 c 0
 299.5 203.333333333 296.833333333 166 294.5 128 c 0
 292.166666667 90 290.333333333 53.3333333333 289 18 c 1
 321 18 l 1
 321 0 l 1
 116 0 l 1
 116 18 l 1
 142 18 l 1
 141.333333333 43.3333333333 139.5 73.1666666667 136.5 107.5 c 0
 133.5 141.833333333 129.666666667 178.333333333 125 217 c 0
 120.333333333 255.666666667 115 295.333333333 109 336 c 0
 103 376.666666667 96.6666666667 416 90 454 c 0
 83.3333333333 492 76.3333333333 527.5 69 560.5 c 0
 61.6666666667 593.5 54.6666666667 621.666666667 48 645 c 1
 20 645 l 1
 20 663 l 1
 192 663 l 1
 192 645 l 1
 152 645 l 1xbc
 158.666666667 622.333333333 165.166666667 594.5 171.5 561.5 c 0
 177.833333333 528.5 184 493 190 455 c 0
 196 417 201.666666667 377.5 207 336.5 c 0
 212.333333333 295.5 217.166666667 255.666666667 221.5 217 c 0
 225.833333333 178.333333333 229.5 141.666666667 232.5 107 c 0
 235.5 72.3333333333 237.666666667 42.6666666667 239 18 c 1
 271 18 l 1
 272.333333333 54 274.166666667 91 276.5 129 c 0
 278.833333333 167 281.5 204.5 284.5 241.5 c 0
 287.5 278.5 290.666666667 313.833333333 294 347.5 c 0
 297.333333333 381.166666667 300.666666667 411 304 437 c 0
 309.333333333 479 317.333333333 517.666666667 328 553 c 0
 338.666666667 588.333333333 357.666666667 617.666666667 385 641 c 0
 397 651 409.166666667 658.833333333 421.5 664.5 c 0
 433.833333333 670.166666667 447.666666667 673 463 673 c 0
 472.333333333 673 480.833333333 672.166666667 488.5 670.5 c 0
 496.166666667 668.833333333 502.333333333 667 507 665 c 0
 508.333333333 663.666666667 509.333333333 661.833333333 510 659.5 c 0
 510.666666667 657.166666667 511 655 511 653 c 0
 503.666666667 646.333333333 497.833333333 640.333333333 493.5 635 c 0
 489.166666667 629.666666667 484.333333333 623 479 615 c 256
 473.666666667 607 470.5 598.333333333 469.5 589 c 0
 468.5 579.666666667 468 570.666666667 468 562 c 0
 466.666666667 559.333333333 463.666666667 558 459 558 c 0
 450.333333333 563.333333333 442.5 568 435.5 572 c 0
 428.5 576 419.333333333 578 408 578 c 0xdc
 388 578 373.333333333 571.833333333 364 559.5 c 0
 354.666666667 547.166666667 346.333333333 532.333333333 339 515 c 0
EndSplineSet
Fore
SplineSet
333 796 m 2x92
 335 796 336.666666667 794 338 790 c 2
 358 712 l 2
 358 708 356.666666667 706 354 706 c 2
 292 706 l 2
 290 706 288.333333333 708 287 712 c 2
 267 790 l 2
 267 794 268.333333333 796 271 796 c 2
 333 796 l 2x92
206 796 m 2
 208 796 209.666666667 794 211 790 c 2
 231 712 l 2
 231 708 229.666666667 706 227 706 c 2
 165 706 l 2
 163 706 161.333333333 708 160 712 c 2
 140 790 l 2
 140 794 141.333333333 796 144 796 c 2
 206 796 l 2
459 558 m 0
 442.701507583 568.029841486 432.6087128 578 408 578 c 0
 388 578 373.333333333 571.833333333 364 559.5 c 0
 325.750764744 508.956367697 320.30228871 429.353115977 312 345.5 c 0
 301.74650879 241.939738768 293.136487456 127.616917622 289 18 c 1
 321 18 l 1
 321 0 l 1
 116 0 l 1
 116 18 l 1
 142 18 l 1xd6
 139.188341417 124.843026113 123.885112709 235.112013861 109 336 c 0
 93.3135676337 442.319152706 74.3366118884 552.821858392 48 645 c 1
 20 645 l 1
 20 663 l 1
 192 663 l 1
 192 645 l 1
 152 645 l 1xba
 178.393242572 555.262975259 193.415840566 440.928225659 207 336.5 c 0
 220.443535375 233.1528218 233.263019097 124.134146729 239 18 c 1
 271 18 l 1
 276.263883931 160.124866175 287.255544759 306.393249111 304 437 c 0
 317.136864335 540.452806641 340.554722294 627.308926456 421.5 664.5 c 0
 433.833333333 670.166666667 447.666666667 673 463 673 c 0xd6
 482.741636301 673 511 671.938105333 511 653 c 1
 495.981569465 639.34688133 490.316035049 631.974052574 479 615 c 256
 469.665692344 600.998538515 468 583.373675205 468 562 c 0
 466.666666667 559.333333333 463.666666667 558 459 558 c 0
EndSplineSet
Validated: 524289
Ligature2: "'ccmp' Precomposed Glyphs-1" uni0474 uni030F
EndChar

StartChar: uni0466
Encoding: 1126 1126 31
Width: 777
Flags: W
HStem: 0 18<42 76 194.082 242 283 333 433 483 533 572.038 701 733> 386 18<304 333 433 450> 645 18<283 331.978 443 490>
VStem: 70 105<22.0406 200.793> 333 100<18 386> 338 105<552.309 644.355> 590 114<19.5191 229.178>
AnchorPoint: "Yerok" 377 716 basechar 0
AnchorPoint: "Diacritic" 376 716 basechar 0
LayerCount: 2
Back
SplineSet
443 645 m 1xf6
 443 627 445.333333333 609 450 591 c 0
 455.333333333 573 462.833333333 554.5 472.5 535.5 c 0
 482.166666667 516.5 492.333333333 500.333333333 503 487 c 0
 511.666666667 476.333333333 522 463.333333333 534 448 c 0
 546 432.666666667 558.666666667 416.833333333 572 400.5 c 0
 585.333333333 384.166666667 598.333333333 367.833333333 611 351.5 c 0
 623.666666667 335.166666667 635 320.333333333 645 307 c 0
 662.333333333 283 676.5 254.5 687.5 221.5 c 0
 698.5 188.5 704 156.666666667 704 126 c 0
 704 104.666666667 703.833333333 85.1666666667 703.5 67.5 c 0
 703.166666667 49.8333333333 702.333333333 33.3333333333 701 18 c 1
 733 18 l 1
 733 0 l 1
 533 0 l 1
 533 18 l 1
 568 18 l 1
 575.333333333 32.6666666667 580.833333333 50 584.5 70 c 0
 588.166666667 90 590 112 590 136 c 0
 590 162 585.166666667 187 575.5 211 c 0
 565.833333333 235 552.333333333 259.666666667 535 285 c 0
 523.666666667 301 511.833333333 317.5 499.5 334.5 c 0
 487.166666667 351.5 474.666666667 368.666666667 462 386 c 1
 433 386 l 1
 433 18 l 1
 483 18 l 1
 483 0 l 1
 283 0 l 1
 283 18 l 1
 333 18 l 1
 333 386 l 1xfa
 295 386 l 1
 282.333333333 363.333333333 269.833333333 342.5 257.5 323.5 c 0
 245.166666667 304.5 231.666666667 282.333333333 217 257 c 0
 201.666666667 229.666666667 190.833333333 205.166666667 184.5 183.5 c 0
 178.166666667 161.833333333 175 137.666666667 175 111 c 0
 175 94.3333333333 177.166666667 77.6666666667 181.5 61 c 0
 185.833333333 44.3333333333 191.666666667 30 199 18 c 1
 242 18 l 1
 242 0 l 1
 42 0 l 1
 42 18 l 1
 76 18 l 1
 74.6666666667 25.3333333333 73.3333333333 35.8333333333 72 49.5 c 0
 70.6666666667 63.1666666667 70 78 70 94 c 0
 70 122 74.8333333333 151.5 84.5 182.5 c 0
 94.1666666667 213.5 111.333333333 245.666666667 136 279 c 0
 148.666666667 295.666666667 163.166666667 315 179.5 337 c 0
 195.833333333 359 212 381 228 403 c 0
 244 425 259 446.166666667 273 466.5 c 0
 287 486.833333333 298 504 306 518 c 0
 315.333333333 535.333333333 322.5 550.333333333 327.5 563 c 0
 332.5 575.666666667 336 589 338 603 c 2
 338 606 l 2
 336 612 334.5 618.333333333 333.5 625 c 0
 332.5 631.666666667 331.666666667 638.333333333 331 645 c 1
 283 645 l 1
 283 663 l 1
 490 663 l 1
 490 645 l 1
 443 645 l 1xf6
413 457 m 0
 401.666666667 473.666666667 391 490.5 381 507.5 c 0
 371 524.5 362 542 354 560 c 1
 349.333333333 533.333333333 342.666666667 506 334 478 c 0
 325.333333333 450 315.333333333 425.333333333 304 404 c 1
 450 404 l 1
 443.333333333 413.333333333 436.833333333 422.333333333 430.5 431 c 0
 424.166666667 439.666666667 418.333333333 448.333333333 413 457 c 0
EndSplineSet
Fore
SplineSet
338 606 m 1xf6
 334.153573726 617.539278823 332.375334721 631.246652798 331 645 c 1
 283 645 l 1
 283 663 l 1
 490 663 l 1
 490 645 l 1
 443 645 l 1xf6
 443 600.639235752 455.994237766 567.942360251 472.5 535.5 c 0
 491.872731911 497.422561417 508.37630813 480.741384055 534 448 c 0
 569.504506977 402.633129974 610.646566251 352.804578331 645 307 c 0
 675.112672551 265.305530314 704 194.052734273 704 126 c 0
 704 86.6735982907 703.989978948 52.384757911 701 18 c 1
 733 18 l 1
 733 0 l 1
 533 0 l 1
 533 18 l 1
 568 18 l 1
 583.127679758 48.2553595174 590 89.7474322893 590 136 c 0
 590 222.955417053 538.983214636 280.077190636 499.5 334.5 c 0
 487.166666667 351.5 474.666666667 368.666666667 462 386 c 1
 433 386 l 1
 433 18 l 1
 483 18 l 1
 483 0 l 1
 283 0 l 1
 283 18 l 1
 333 18 l 1
 333 386 l 1xfa
 295 386 l 1
 267.656569703 337.069651048 245.847300309 306.827155078 217 257 c 0
 190.23889495 209.295421433 175 176.257353036 175 111 c 0
 175 76.1654920433 185.462021116 40.153056357 199 18 c 1
 242 18 l 1
 242 0 l 1
 42 0 l 1
 42 18 l 1
 76 18 l 1
 72.4717338323 37.4054639228 70 68.2754497498 70 94 c 0
 70 203.339365638 128.01759338 267.656350265 179.5 337 c 0
 210.611920555 378.905852177 243.909639902 424.249715096 273 466.5 c 0
 296.530774478 500.675648647 313.877387304 528.48938117 327.5 563 c 0
 332.5 575.666666667 336 589 338 603 c 1
 338 606 l 1xf6
450 404 m 1
 414.907134578 453.130011586 379.672519056 502.236832124 354 560 c 1
 344.695775945 506.833005403 325.776613113 444.991271743 304 404 c 1
 450 404 l 1
EndSplineSet
Validated: 524289
EndChar

StartChar: bracketleft
Encoding: 91 91 32
Width: 311
Flags: W
HStem: -362 18<160 311> 814 18<160 311>
VStem: 60 100<-344 814>
LayerCount: 2
Fore
SplineSet
311 -362 m 1
 60 -362 l 1
 60 832 l 1
 311 832 l 1
 311 814 l 1
 160 814 l 1
 160 -344 l 1
 311 -344 l 1
 311 -362 l 1
EndSplineSet
Validated: 1
EndChar

StartChar: bracketright
Encoding: 93 93 33
Width: 311
Flags: W
HStem: -362 18<0 149> 814 18<0 149>
VStem: 149 102<-344 814>
LayerCount: 2
Fore
SplineSet
251 -362 m 1
 0 -362 l 1
 0 -344 l 1
 149 -344 l 1
 149 814 l 1
 0 814 l 1
 0 832 l 1
 251 832 l 1
 251 -362 l 1
EndSplineSet
Validated: 1
EndChar

StartChar: grave
Encoding: 96 96 34
Width: 235
Flags: W
HStem: 655.974 77.2064<87.8228 139.795>
VStem: 33 56<551.131 650.013>
LayerCount: 2
Fore
SplineSet
148 453 m 0
 90.9125012226 486.829628906 33 551.964720489 33 642 c 0
 33 682.09646086 46.114338253 718.845735302 74 730 c 0
 79.5619099867 732.224763995 85.1043247841 733.180140699 90.5412353627 733.180140699 c 0
 111.889904685 733.180140699 131.611875508 718.44983067 144.5 708 c 0
 169.235902967 687.943862459 192.787745882 656.008554442 207 625 c 0
 211.2248951 616.5502098 201.985775232 612.767780962 197 619 c 0
 184.381801525 635.824264633 160.336636132 655.973773809 131.60669916 655.973773809 c 0
 129.10516587 655.973773809 126.568115958 655.821014495 124 655.5 c 0
 99.0950072245 652.386875903 89 622.432335046 89 598 c 0
 89 576.666666667 95.1666666667 554.5 107.5 531.5 c 0
 119.833333333 508.5 134.666666667 485.666666667 152 463 c 0
 156.666666667 457.666666667 157.833333333 454.333333333 155.5 453 c 0
 153.166666667 451.666666667 150.666666667 451.666666667 148 453 c 0
EndSplineSet
Validated: 524289
EndChar

StartChar: uni2DED
Encoding: 11757 11757 35
Width: 1
Flags: W
HStem: 543 54<-208.846 -139.327> 673 8<-163.004 -143.012>
VStem: -273 64<598.438 657.125>
AnchorPoint: "Stacking" -186 766 basemark 0
AnchorPoint: "Stacking" -195 541 mark 0
AnchorPoint: "Diacritic" -194 539 mark 0
LayerCount: 2
Back
SplineSet
-143 673 m 1
 -152.333333333 671 -159.666666667 669.5 -165 668.5 c 0
 -170.333333333 667.5 -177 664.333333333 -185 659 c 0
 -201 649 -209 636.333333333 -209 621 c 0
 -209 614.333333333 -206.166666667 608.666666667 -200.5 604 c 0
 -194.833333333 599.333333333 -188 597 -180 597 c 0
 -165.333333333 597 -153 601.333333333 -143 610 c 0
 -134.333333333 617.333333333 -128.166666667 624 -124.5 630 c 0
 -120.833333333 636 -116.666666667 642.666666667 -112 650 c 1
 -109.333333333 648.666666667 -106.5 647.166666667 -103.5 645.5 c 0
 -100.5 643.833333333 -98 641.333333333 -96 638 c 1
 -99.3333333333 624.666666667 -103.833333333 612.833333333 -109.5 602.5 c 0
 -115.166666667 592.166666667 -123 581.666666667 -133 571 c 0
 -141 562.333333333 -150.5 555.5 -161.5 550.5 c 0
 -172.5 545.5 -184.333333333 543 -197 543 c 0
 -217.666666667 543 -235.5 548.833333333 -250.5 560.5 c 0
 -265.5 572.166666667 -273 589.666666667 -273 613 c 0
 -273 623.666666667 -270.666666667 633.5 -266 642.5 c 0
 -261.333333333 651.5 -255.166666667 659.166666667 -247.5 665.5 c 0
 -239.833333333 671.833333333 -231 676.666666667 -221 680 c 0
 -211 683.333333333 -201 685 -191 685 c 256
 -181 685 -172.666666667 684.833333333 -166 684.5 c 0
 -159.333333333 684.166666667 -152 683 -144 681 c 0
 -143.333333333 679 -143 676.333333333 -143 673 c 1
EndSplineSet
Fore
SplineSet
-197 543 m 0
 -240.194258138 543 -273 568.295046716 -273 613 c 0
 -273 657.346664306 -235.088392563 685 -191 685 c 256
 -189.449258866 685 -187.960618023 685.000948956 -186.526457956 685.000948956 c 0
 -168.827222075 685.000948956 -159.425673542 684.856418386 -144 681 c 0
 -143.333333333 679 -143 676.333333333 -143 673 c 1
 -163.989014663 668.502354001 -168.826374688 669.782416874 -185 659 c 0
 -201 649 -209 636.333333333 -209 621 c 0
 -209 606.805332118 -194.704245573 597 -180 597 c 0
 -142.102716289 597 -126.453894173 627.286737731 -112 650 c 1
 -105.825919427 646.912959715 -99.69880228 644.164670466 -96 638 c 1
 -103.355449479 608.578202083 -114.19466079 591.059028491 -133 571 c 0
 -147.241801592 555.571381608 -168.993118326 543 -197 543 c 0
EndSplineSet
Validated: 524289
EndChar

StartChar: uni2DE3
Encoding: 11747 11747 36
Width: 1
Flags: W
HStem: 606 18<-359 -255 -235 -129 -38.0885 50> 871 17<-257.734 -232.497>
DStem2: -255 624 -235 624 0.479288 0.877658<9.58576 145.181> -151 880 -183 776 0.397124 -0.917765<-12.5506 94.6395 118.188 241.86>
AnchorPoint: "Stacking" -177 959 basemark 0
AnchorPoint: "Stacking" -178 554 mark 0
AnchorPoint: "Diacritic" -178 554 mark 0
LayerCount: 2
Back
SplineSet
115 612 m 1
 50 528 l 1
 40 533 l 1
 50 606 l 1
 -359 606 l 1
 -349 533 l 1
 -359 528 l 1
 -424 612 l 1
 -424 624 l 1
 -255 624 l 1
 -178 765 l 2
 -179.333333333 766.333333333 -180.166666667 768 -180.5 770 c 0
 -180.833333333 772 -181.666666667 774 -183 776 c 0
 -192.333333333 798 -202.333333333 817.833333333 -213 835.5 c 0
 -223.666666667 853.166666667 -233 865 -241 871 c 1
 -253 871 l 1
 -256.333333333 865.666666667 -260 858.833333333 -264 850.5 c 0
 -268 842.166666667 -272.166666667 833.166666667 -276.5 823.5 c 0
 -280.833333333 813.833333333 -284.666666667 804.5 -288 795.5 c 0
 -291.333333333 786.5 -294 778.666666667 -296 772 c 1
 -310 773.333333333 -323.5 775.166666667 -336.5 777.5 c 0
 -349.5 779.833333333 -360.666666667 783.333333333 -370 788 c 0
 -371.333333333 789.333333333 -372 791.666666667 -372 795 c 0
 -366 810.333333333 -358.333333333 825.666666667 -349 841 c 0
 -339.666666667 856.333333333 -330.666666667 871 -322 885 c 1
 -305.333333333 887 -285.666666667 888 -263 888 c 0
 -243.666666667 888 -224.166666667 887.333333333 -204.5 886 c 0
 -184.833333333 884.666666667 -167 882.666666667 -151 880 c 1
 -143.666666667 864 -135.666666667 845.333333333 -127 824 c 0
 -118.333333333 802.666666667 -109.333333333 781.333333333 -100 760 c 0
 -87.3333333333 732 -76 706.666666667 -66 684 c 0
 -56 661.333333333 -45 641.333333333 -33 624 c 1
 115 624 l 1
 115 612 l 1
-235 624 m 1
 -129 624 l 1
 -132.333333333 639.333333333 -137.666666667 657.333333333 -145 678 c 0
 -152.333333333 698.666666667 -160.666666667 720.333333333 -170 743 c 1
 -235 624 l 1
EndSplineSet
Fore
SplineSet
-253 871 m 1
 -269.923570729 843.922286833 -286.022128855 805.259570485 -296 772 c 1
 -322.677763352 774.540739366 -350.883904346 778.441952172 -370 788 c 0
 -371.333333333 789.333333333 -372 791.666666667 -372 795 c 0
 -359.88066507 825.971633708 -338.671641905 858.068886154 -322 885 c 1
 -305.333333333 887 -285.666666667 888 -263 888 c 0
 -225.464858752 888 -182.871390454 885.31189841 -151 880 c 1
 -134.753894215 844.553951012 -116.577517164 797.891467805 -100 760 c 0
 -77.330002556 709.887374071 -60.8233110116 664.189227016 -33 624 c 1
 115 624 l 1
 115 612 l 1
 50 528 l 1
 40 533 l 1
 50 606 l 1
 -359 606 l 1
 -349 533 l 1
 -359 528 l 1
 -424 612 l 1
 -424 624 l 1
 -255 624 l 1
 -178 765 l 1
 -180.938823172 767.938823172 -180.529527594 772.29429139 -183 776 c 0
 -196.736767172 808.379522621 -218.10066173 853.825496298 -241 871 c 1
 -253 871 l 1
-235 624 m 1
 -129 624 l 1
 -137.400894146 662.644113073 -154.620463735 705.64969764 -170 743 c 1
 -235 624 l 1
EndSplineSet
Validated: 524289
EndChar

StartChar: uni0473
Encoding: 1139 1139 37
Width: 604
Flags: W
HStem: -175.001 193.001<54.479 145.318 286.002 322.806 471.83 493.457> 0 18<29.0012 54 146 221 398 472> 426 20G<310.667 314.667>
VStem: 54 92<-174.36 0> 215 49<18 161.838> 245 132<189.244 361.852> 352 46<18 75.0095> 358 47<18.8365 160.302> 472 17<-174.989 -141.8>
AnchorPoint: "Yerok" 476 557 basechar 0
AnchorPoint: "Diacritic" 310 556 basechar 0
LayerCount: 2
Back
SplineSet
221 18 m 1x7b
 217 36.6666666667 215 57 215 79 c 0
 215 112.333333333 217.833333333 147.5 223.5 184.5 c 0
 229.166666667 221.5 236.333333333 256.833333333 245 290.5 c 0
 253.666666667 324.166666667 263.333333333 354.5 274 381.5 c 0
 284.666666667 408.5 295 429 305 443 c 0
 305.666666667 445 308.333333333 446 313 446 c 0
 316.333333333 446 319 445 321 443 c 0
 330.333333333 429.666666667 340 410.166666667 350 384.5 c 0
 360 358.833333333 369 329.333333333 377 296 c 0
 385 262.666666667 391.666666667 227 397 189 c 0
 402.333333333 151 405 113.666666667 405 77 c 0x7b
 405 66.3333333333 404.333333333 56.1666666667 403 46.5 c 0
 401.666666667 36.8333333333 400 27.3333333333 398 18 c 1
 572 18 l 2x7d
 576 18 578 15.6666666667 578 11 c 0
 578 7 576.666666667 3 574 -1 c 0
 565.333333333 -13 556.5 -26.1666666667 547.5 -40.5 c 0
 538.5 -54.8333333333 530.166666667 -69.5 522.5 -84.5 c 0
 514.833333333 -99.5 508 -114.5 502 -129.5 c 0
 496 -144.5 491.666666667 -158 489 -170 c 0
 488.333333333 -173.333333333 485.333333333 -175 480 -175 c 256xbd
 474.666666667 -175 472 -173.333333333 472 -170 c 0
 471.333333333 -164.666666667 470.833333333 -155.5 470.5 -142.5 c 0
 470.166666667 -129.5 470 -116.666666667 470 -104 c 256
 470 -85 470 -85 470 -66.5 c 0
 470 -54.1666666667 470.333333333 -43 471 -33 c 0
 471 -21 471.333333333 -10 472 0 c 1
 394 0 l 1x7d
 384.666666667 -34 372.666666667 -65.1666666667 358 -93.5 c 0
 343.333333333 -121.833333333 328 -147.666666667 312 -171 c 0
 310 -173.666666667 307.333333333 -175 304 -175 c 0xbb
 299.333333333 -175 296.666666667 -173.666666667 296 -171 c 0
 284.666666667 -152.333333333 272.333333333 -127.833333333 259 -97.5 c 0
 245.666666667 -67.1666666667 234.333333333 -34.6666666667 225 0 c 1
 146 0 l 1x7b
 146 -172 l 1
 138.666666667 -173.333333333 130.666666667 -174.166666667 122 -174.5 c 0
 113.333333333 -174.833333333 104.666666667 -175 96 -175 c 256xbb
 87.3333333333 -175 79.3333333333 -174.833333333 72 -174.5 c 0
 64.6666666667 -174.166666667 58.6666666667 -173.333333333 54 -172 c 1
 54 0 l 1
 34 0 l 2
 30.6666666667 0 29 3 29 9 c 0
 29 11 29.3333333333 13 30 15 c 0
 30.6666666667 17 32 18 34 18 c 2
 221 18 l 1x7b
358 76 m 256
 358 87.3333333333 356.5 99.3333333333 353.5 112 c 0
 350.5 124.666666667 346.833333333 136.5 342.5 147.5 c 0
 338.166666667 158.5 333.166666667 167.666666667 327.5 175 c 0
 321.833333333 182.333333333 316.333333333 186 311 186 c 0
 305 186 299.333333333 182.166666667 294 174.5 c 0
 288.666666667 166.833333333 283.666666667 157.5 279 146.5 c 0
 274.333333333 135.5 270.666666667 123.5 268 110.5 c 0
 265.333333333 97.5 264 86 264 76 c 0
 264 64.6666666667 264.333333333 54.1666666667 265 44.5 c 0
 265.666666667 34.8333333333 266.666666667 26 268 18 c 1
 352 18 l 1x7d
 353.333333333 26 354.666666667 34.8333333333 356 44.5 c 0
 357.333333333 54.1666666667 358 64.6666666667 358 76 c 256
EndSplineSet
Fore
SplineSet
29 9 m 0x7280
 29 12.9218430023 29.9738559782 18 34 18 c 2
 221 18 l 1
 217 36.6666666667 215 57 215 79 c 0x7a80
 215 151.529388253 229.414316543 229.955614265 245 290.5 c 0
 259.05119485 345.083487683 279.241349107 406.93788875 305 443 c 0
 305.666666667 445 308.333333333 446 313 446 c 0
 316.333333333 446 319 445 321 443 c 0
 345.48787323 408.017323957 364.115603582 349.684985072 377 296 c 0x7480
 392.056165377 233.265977597 405 152.992401191 405 77 c 0x7180
 405 55.0848615645 401.924385699 36.31379993 398 18 c 1
 572 18 l 2
 576 18 578 15.6666666667 578 11 c 0
 578 7 576.666666667 3 574 -1 c 0
 546.785199883 -38.6820309294 520.531002568 -83.1724935799 502 -129.5 c 0
 496 -144.5 491.666666667 -158 489 -170 c 0
 488.333333333 -173.333333333 485.333333333 -175 480 -175 c 256
 474.666666667 -175 472 -173.333333333 472 -170 c 0
 470.137208602 -155.097668827 470 -122.652634354 470 -104 c 258
 470 -66.5 l 2
 470 -54.1666666667 470.333333333 -43 471 -33 c 0
 471 -21 471.333333333 -10 472 0 c 1
 394 0 l 1
 376.00738603 -65.5445223229 345.245040565 -122.517649176 312 -171 c 0
 310 -173.666666667 307.333333333 -175 304 -175 c 0
 299.333333333 -175 296.666666667 -173.666666667 296 -171 c 0
 269.511813461 -127.372398639 241.033020072 -59.5512174121 225 0 c 1
 146 0 l 1x7280
 146 -172 l 1
 131.519367944 -174.632842191 113.140112269 -175 96 -175 c 256
 94.955991298 -175 93.9062039726 -175.000570296 92.8528211686 -175.000570296 c 0xb280
 78.8193459225 -175.000570296 64.1477325171 -174.899352147 54 -172 c 1
 54 0 l 1
 34 0 l 2
 30.6666666667 0 29 3 29 9 c 0x7280
352 18 m 1
 354.889083473 35.3345008419 358 54.843063416 358 76 c 256x7180
 358 113.227771735 344.200264647 153.387892812 327.5 175 c 0
 321.833333333 182.333333333 316.333333333 186 311 186 c 0
 295.270399001 186 284.921486538 160.457789695 279 146.5 c 0
 271.30162499 128.353830335 264 99.781180969 264 76 c 0
 264 54.8863112374 265.103961621 35.3762302784 268 18 c 1
 352 18 l 1
EndSplineSet
Validated: 524289
EndChar

StartChar: uni2DE2
Encoding: 11746 11746 38
Width: 1
Flags: W
HStem: 555 139<-306.685 -227.57> 611 83<-153.837 -113.045> 669 25<-352.997 -307 -227 -172.693>
VStem: -307 80<558.75 669>
AnchorPoint: "Stacking" -224 757 basemark 0
AnchorPoint: "Stacking" -225 554 mark 0
AnchorPoint: "Diacritic" -223 554 mark 0
LayerCount: 2
Back
SplineSet
-90 694 m 2x30
 -88.6666666667 694 -87.8333333333 693.166666667 -87.5 691.5 c 0
 -87.1666666667 689.833333333 -87 688.333333333 -87 687 c 0
 -94.3333333333 677.666666667 -99.3333333333 670 -102 664 c 0
 -104.666666667 658 -107.666666667 650.333333333 -111 641 c 0
 -113 635.666666667 -114.666666667 630.333333333 -116 625 c 0
 -117.333333333 619.666666667 -118.666666667 615 -120 611 c 0x50
 -121.333333333 611 -123.166666667 611.166666667 -125.5 611.5 c 0
 -127.833333333 611.833333333 -130 612.666666667 -132 614 c 0
 -142.666666667 621.333333333 -152 629.666666667 -160 639 c 0
 -168 648.333333333 -174.333333333 658.333333333 -179 669 c 1
 -227 669 l 1x30
 -227 567 l 1
 -233.666666667 563 -241.666666667 560 -251 558 c 0
 -260.333333333 556 -269.333333333 555 -278 555 c 0x90
 -290.666666667 555 -300.333333333 560 -307 570 c 1
 -307 669 l 1
 -350 669 l 1
 -352 671.666666667 -353 676 -353 682 c 0
 -353 686 -352 690 -350 694 c 1
 -90 694 l 2x30
EndSplineSet
Fore
SplineSet
-227 567 m 1x30
 -239.019248055 559.788451168 -259.417824982 555 -278 555 c 0x90
 -290.666666667 555 -300.333333333 560 -307 570 c 1
 -307 669 l 1
 -350 669 l 1
 -352 671.666666667 -353 676 -353 682 c 0
 -353 686 -352 690 -350 694 c 1
 -90 694 l 2x30
 -87.3072810007 694 -87 689.588234602 -87 687 c 0
 -105.118566887 663.940005781 -109.696228324 641.911315036 -120 611 c 1x50
 -124.315500542 611 -128.975310913 611.983540609 -132 614 c 0
 -151.971391299 627.730331517 -169.086262052 646.340027548 -179 669 c 1
 -227 669 l 1
 -227 567 l 1x30
EndSplineSet
Validated: 524289
EndChar

StartChar: uni0456
Encoding: 1110 1110 39
Width: 241
Flags: W
HStem: -4 21G<119.202 138.02> 422 20G<159.367 178.066>
VStem: 68 105<0.470703 420.56>
AnchorPoint: "Yerok" 132 557 basechar 0
AnchorPoint: "Diacritic" 131 556 basechar 0
LayerCount: 2
Back
SplineSet
180 0 m 1xd0
 172.666666667 -1.33333333333 164.666666667 -2.33333333333 156 -3 c 0
 147.333333333 -3.66666666667 138.333333333 -4 129 -4 c 256
 119.666666667 -4 110.166666667 -3.66666666667 100.5 -3 c 0
 90.8333333333 -2.33333333333 81.3333333333 -1.33333333333 72 0 c 1
 70.6666666667 17.3333333333 69.6666666667 39.3333333333 69 66 c 0
 68.3333333333 92.6666666667 68 121.333333333 68 152 c 0
 68 174.666666667 68.3333333333 198.666666667 69 224 c 0xe0
 69.6666666667 249.333333333 70.5 274.5 71.5 299.5 c 0
 72.5 324.5 73.6666666667 348.5 75 371.5 c 0
 76.3333333333 394.5 77.6666666667 415 79 433 c 1
 97 436.333333333 113.5 438.666666667 128.5 440 c 0
 143.5 441.333333333 160.666666667 442 180 442 c 1xd0
 179.333333333 428.666666667 178.666666667 412.5 178 393.5 c 0
 177.333333333 374.5 176.666666667 354 176 332 c 0
 175.333333333 310 174.666666667 287.5 174 264.5 c 0
 173.333333333 241.5 173 219 173 197 c 0xe0
 173 179 173.166666667 160.5 173.5 141.5 c 0
 173.833333333 122.5 174.333333333 104.333333333 175 87 c 0
 175.666666667 69.6666666667 176.333333333 53.3333333333 177 38 c 0
 177.666666667 22.6666666667 178.666666667 10 180 0 c 1xd0
EndSplineSet
Fore
SplineSet
180 442 m 1
 176.131500449 364.630009023 173 278.283855954 173 197 c 0
 173 143.777750747 174.819656601 88.1478981465 177 38 c 0
 177.666666667 22.6666666667 178.666666667 10 180 0 c 1
 164.982001579 -2.73054516749 147.039204072 -4 129 -4 c 256
 109.403178941 -4 89.6305144994 -2.51864492849 72 0 c 1
 68.6771890153 43.1965428017 68 100.869957369 68 152 c 0
 68 246.472499608 72.4834225232 345.026204062 79 433 c 1
 114.829501642 439.635092896 138.734035131 442 180 442 c 1
EndSplineSet
Validated: 524289
EndChar

StartChar: uni047B
Encoding: 1147 1147 40
Width: 650
Flags: W
HStem: -52 102<286.422 362.532> 388 102<287.179 362.822>
VStem: 48 103<108.385 329.514> 499 103<104.726 332.81>
AnchorPoint: "Yerok" 526 557 basechar 0
AnchorPoint: "Diacritic" 321 556 basechar 0
LayerCount: 2
Back
SplineSet
325 -52 m 0
 313 -52 302.833333333 -48 294.5 -40 c 0
 286.166666667 -32 281 -22.3333333333 279 -11 c 1
 207.666666667 -7.66666666667 151.333333333 12.5 110 49.5 c 0
 68.6666666667 86.5 48 143 48 219 c 256
 48 295 68.6666666667 351.5 110 388.5 c 0
 151.333333333 425.5 207.666666667 445.666666667 279 449 c 1
 281 460.333333333 286 470 294 478 c 0
 302 486 312.333333333 490 325 490 c 0
 337 490 347.166666667 486 355.5 478 c 0
 363.833333333 470 369 460.333333333 371 449 c 1
 443.666666667 445.666666667 500.333333333 425.666666667 541 389 c 0
 581.666666667 352.333333333 602 295.666666667 602 219 c 0
 602 141.666666667 581.666666667 84.8333333333 541 48.5 c 0
 500.333333333 12.1666666667 443.666666667 -7.66666666667 371 -11 c 1
 368.333333333 -22.3333333333 362.833333333 -32 354.5 -40 c 0
 346.166666667 -48 336.333333333 -52 325 -52 c 0
325 50 m 256
 338.333333333 50 349 45.8333333333 357 37.5 c 0
 365 29.1666666667 369.666666667 18.3333333333 371 5 c 1
 400.333333333 9 423.5 18.6666666667 440.5 34 c 0
 457.5 49.3333333333 470.333333333 67.5 479 88.5 c 0
 487.666666667 109.5 493.166666667 131.666666667 495.5 155 c 0
 497.833333333 178.333333333 499 199.666666667 499 219 c 0
 499 237.666666667 497.833333333 258.666666667 495.5 282 c 0
 493.166666667 305.333333333 487.666666667 327.5 479 348.5 c 0
 470.333333333 369.5 457.5 387.833333333 440.5 403.5 c 0
 423.5 419.166666667 400.333333333 429 371 433 c 1
 369.666666667 420.333333333 364.833333333 409.666666667 356.5 401 c 0
 348.166666667 392.333333333 337.666666667 388 325 388 c 256
 312.333333333 388 301.833333333 392.333333333 293.5 401 c 0
 285.166666667 409.666666667 280.333333333 420.333333333 279 433 c 1
 250.333333333 429 227.5 419 210.5 403 c 0
 193.5 387 180.666666667 368.5 172 347.5 c 0
 163.333333333 326.5 157.666666667 304.5 155 281.5 c 0
 152.333333333 258.5 151 237.666666667 151 219 c 0
 151 199.666666667 152.333333333 178.5 155 155.5 c 0
 157.666666667 132.5 163.333333333 110.5 172 89.5 c 0
 180.666666667 68.5 193.5 50.1666666667 210.5 34.5 c 0
 227.5 18.8333333333 250.333333333 9 279 5 c 1
 280.333333333 17.6666666667 285 28.3333333333 293 37 c 0
 301 45.6666666667 311.666666667 50 325 50 c 256
EndSplineSet
Fore
SplineSet
325 -52 m 0
 300.188781941 -52 282.784282354 -32.4442666734 279 -11 c 1
 135.715039148 -4.30444108166 48 67.7745864526 48 219 c 256
 48 370.227948735 135.712290914 442.30431266 279 449 c 1
 282.876859988 470.968873264 299.277717663 490 325 490 c 0
 349.811218059 490 367.215717646 470.444266673 371 449 c 1
 516.535499941 442.324059636 602 372.099899662 602 219 c 0
 602 64.9937791884 517.062495128 -4.29988554464 371 -11 c 1
 366.18867247 -31.4481419989 349.320336266 -52 325 -52 c 0
279 5 m 1
 281.591335253 29.6176849133 297.927148993 50 325 50 c 256
 352.554493565 50 368.451497463 30.4850253796 371 5 c 1
 471.670268207 18.7277638466 499 107.237898687 499 219 c 0
 499 329.420144883 470.093250278 419.487284053 371 433 c 1
 368.464848551 408.916061227 351.172387073 388 325 388 c 256
 298.831175106 388 281.534484014 408.922401864 279 433 c 1
 181.202019556 419.353770171 151 327.755489802 151 219 c 0
 151 109.78669743 181.266148766 18.6372815674 279 5 c 1
EndSplineSet
Validated: 524289
EndChar

StartChar: uni0471
Encoding: 1137 1137 41
Width: 612
Flags: W
HStem: 0 18<254.342 257 344 349> 343 106<460.526 592.359> 427 20G<45.3931 66.2312>
VStem: 254 94<18 529.124> 275 39<-320 0> 349 18<18 123.473>
AnchorPoint: "Yerok" 516 557 basechar 0
AnchorPoint: "Diacritic" 101 556 basechar 0
LayerCount: 2
Back
SplineSet
314 0 m 1xc3
 314 -320 l 1
 322 -315.333333333 329.833333333 -310.333333333 337.5 -305 c 0
 345.166666667 -299.666666667 352 -294.666666667 358 -290 c 0
 360 -290 362.166666667 -290.333333333 364.5 -291 c 0
 366.833333333 -291.666666667 368 -293.333333333 368 -296 c 0
 366.666666667 -304.666666667 365.666666667 -311 365 -315 c 0
 364.333333333 -319 362.333333333 -323.666666667 359 -329 c 0
 347.666666667 -341.666666667 334.333333333 -351.833333333 319 -359.5 c 0
 303.666666667 -367.166666667 290.333333333 -371.666666667 279 -373 c 1
 271.666666667 -371 268 -365.666666667 268 -357 c 0
 268 -354.333333333 268.333333333 -351.833333333 269 -349.5 c 0
 269.666666667 -347.166666667 270.666666667 -344.333333333 272 -341 c 0
 273.333333333 -339.666666667 274.333333333 -339 275 -339 c 2xc3
 270 0 l 1
 184 0 l 1
 176.666666667 36.6666666667 168.833333333 72.6666666667 160.5 108 c 0
 152.166666667 143.333333333 142.333333333 178 131 212 c 0
 115.666666667 258 99.6666666667 300.666666667 83 340 c 0
 66.3333333333 379.333333333 51.6666666667 412.666666667 39 440 c 0
 39 442 40 443.666666667 42 445 c 0
 44 446.333333333 45.6666666667 447 47 447 c 0
 64.3333333333 447 82.3333333333 445.666666667 101 443 c 0
 119.666666667 440.333333333 138 436.666666667 156 432 c 1
 165.333333333 410 175 385 185 357 c 0
 195 329 203.666666667 300 211 270 c 0
 222.333333333 227.333333333 231.666666667 183.833333333 239 139.5 c 0
 246.333333333 95.1666666667 251.666666667 54.6666666667 255 18 c 1
 257 18 l 1
 256.333333333 48.6666666667 255.833333333 85.5 255.5 128.5 c 0
 255.166666667 171.5 254.833333333 217.333333333 254.5 266 c 0xa4
 254.166666667 314.666666667 254 364.5 254 415.5 c 0xa8
 254 466.5 253.833333333 515 253.5 561 c 0
 253.166666667 607 252.833333333 649 252.5 687 c 0
 252.166666667 725 252 755.333333333 252 778 c 1
 247.333333333 776.666666667 243.333333333 776 240 776 c 0
 236.666666667 776 233.666666667 775.666666667 231 775 c 0
 225.666666667 776.333333333 223 779 223 783 c 256
 223 787 224.666666667 790.666666667 228 794 c 1
 238.666666667 795.333333333 251.833333333 797.333333333 267.5 800 c 0
 283.166666667 802.666666667 299.166666667 805.5 315.5 808.5 c 0
 331.833333333 811.5 347.333333333 814.666666667 362 818 c 0
 376.666666667 821.333333333 388 824 396 826 c 0
 400.666666667 825.333333333 403 822.333333333 403 817 c 0
 403 813.666666667 402 810.666666667 400 808 c 0
 396 806.666666667 390.833333333 805.166666667 384.5 803.5 c 0
 378.166666667 801.833333333 371.333333333 800.333333333 364 799 c 1
 362.666666667 769 361.333333333 733.666666667 360 693 c 0xb0
 358.666666667 652.333333333 357.333333333 608.833333333 356 562.5 c 0
 354.666666667 516.166666667 353.333333333 468.166666667 352 418.5 c 0xa8
 350.666666667 368.833333333 349.333333333 320.166666667 348 272.5 c 0xa4
 346.666666667 224.833333333 345.666666667 179.166666667 345 135.5 c 0
 344.333333333 91.8333333333 344 52.6666666667 344 18 c 1
 349 18 l 1
 349.666666667 44 351.333333333 69.1666666667 354 93.5 c 0
 356.666666667 117.833333333 360.666666667 145 366 175 c 0
 373.333333333 215 383.5 253 396.5 289 c 0
 409.5 325 426.666666667 357 448 385 c 0
 463.333333333 405.666666667 481.5 421.166666667 502.5 431.5 c 0
 523.5 441.833333333 552.333333333 447.666666667 589 449 c 0
 592.333333333 449 594.5 447.666666667 595.5 445 c 0
 596.5 442.333333333 597 439.333333333 597 436 c 0
 581.666666667 422.666666667 568.833333333 407 558.5 389 c 0
 548.166666667 371 543 351.333333333 543 330 c 0
 543 324 543.166666667 318.5 543.5 313.5 c 0
 543.833333333 308.5 544.333333333 304.333333333 545 301 c 0
 545 297.666666667 543.833333333 295.5 541.5 294.5 c 0
 539.166666667 293.5 537 293 535 293 c 0
 525.666666667 300.333333333 518.333333333 306.833333333 513 312.5 c 0
 507.666666667 318.166666667 501.666666667 324.666666667 495 332 c 0
 491 336 487.333333333 338.833333333 484 340.5 c 0
 480.666666667 342.166666667 476.333333333 343 471 343 c 0
 461.666666667 343 453.333333333 339.666666667 446 333 c 0
 438.666666667 326.333333333 433 318.333333333 429 309 c 0
 419 288.333333333 410.333333333 266.833333333 403 244.5 c 0
 395.666666667 222.166666667 389.333333333 197.666666667 384 171 c 0
 378 139 373.666666667 109.5 371 82.5 c 0
 368.333333333 55.5 367 28 367 0 c 1
 314 0 l 1xc3
EndSplineSet
Fore
SplineSet
543 330 m 0xd4
 543 319.653853 543.403136138 308.984319304 545 301 c 0
 545 295.112269155 540.196759144 293 535 293 c 0
 516.635609962 307.429163601 509.918806063 315.589313332 495 332 c 0
 487.962959194 339.037040806 483.487432472 343 471 343 c 0xd4
 450.052183474 343 435.723808004 324.688885342 429 309 c 0
 389.432772681 227.227730207 367 119.175716977 367 0 c 1
 314 0 l 1
 314 -320 l 1
 328.762124109 -311.388760936 345.309808226 -299.870149159 358 -290 c 0
 362.632876693 -290 368 -290.955352974 368 -296 c 0
 365.347976738 -313.238151206 366.428686103 -317.114102234 359 -329 c 0
 341.347523577 -348.729238356 308.677802716 -369.508493799 279 -373 c 1
 271.666666667 -371 268 -365.666666667 268 -357 c 0
 268 -352.303736584 270.134196578 -339 275 -339 c 1
 270 0 l 1
 184 0 l 1
 169.14392126 74.2803937051 153.428844523 144.713466428 131 212 c 0
 104.695208852 290.914373447 69.550171902 374.075944844 39 440 c 0
 39 443.4843952 43.786236202 447 47 447 c 0xac
 85.4623567975 447 123.651740014 440.386585923 156 432 c 1
 205.388586909 315.584045138 241.317737626 168.504886124 255 18 c 1
 257 18 l 1
 254.288734287 142.718222721 254 284.076686781 254 415.5 c 0
 254 537.352842594 252 662.901018159 252 778 c 1
 247.333333333 776.666666667 243.333333333 776 240 776 c 0
 236.666666667 776 233.666666667 775.666666667 231 775 c 0
 225.666666667 776.333333333 223 779 223 783 c 256
 223 787 224.666666667 790.666666667 228 794 c 1
 282.860808843 800.857601103 346.402404874 813.600601218 396 826 c 0
 400.666666667 825.333333333 403 822.333333333 403 817 c 0
 403 802.811539717 377.019561454 801.367192991 364 799 c 1
 356.545667697 631.277523138 352.820633135 444.83763462 348 272.5 c 0
 345.652716172 188.58460314 344 98.3278209416 344 18 c 1
 349 18 l 1
 351.557460048 117.740941813 368.261064299 210.799870366 396.5 289 c 0
 417.275424266 346.531944121 450.781591976 406.051259545 502.5 431.5 c 0
 523.5 441.833333333 552.333333333 447.666666667 589 449 c 0
 595.718771332 449 597 442.588234602 597 436 c 1
 570.204032886 412.699159031 543 377.112468937 543 330 c 0xd4
EndSplineSet
Validated: 524289
EndChar

StartChar: uni047D
Encoding: 1149 1149 42
Width: 969
Flags: W
HStem: -10 78<689.699 798.937> -10 18<208.135 321.526> 388 66<700.732 799.813> 401 23<429.186 485.237> 425 20G<222 246.091> 514 73<409.151 508.317> 543 23<823.201 894.527> 669 45<384.469 533.069>
VStem: 48 46<109.835 268.318> 142 149<497.556 551.683> 340 17<462.119 480.033> 495 90<441.685 507.333> 873 50<140.43 338.648>
DStem2: 633 665 565 629 0.862639 -0.50582<-134.227 193.314>
AnchorPoint: "Yerok" 480 786 basechar 0
AnchorPoint: "Diacritic" 481 786 basechar 0
LayerCount: 2
Back
SplineSet
48 246 m 0x41e0
 48 272.666666667 52.5 298.166666667 61.5 322.5 c 0
 70.5 346.833333333 83.3333333333 368 100 386 c 0
 116.666666667 404 136.5 418.333333333 159.5 429 c 0
 182.5 439.666666667 208 445 236 445 c 0
 246 445 255.166666667 444.333333333 263.5 443 c 0
 271.833333333 441.666666667 280 440 288 438 c 0
 318 425.333333333 346.5 410.166666667 373.5 392.5 c 0
 400.5 374.833333333 424.333333333 357.333333333 445 340 c 1
 442.333333333 319.333333333 432.666666667 302.833333333 416 290.5 c 0
 399.333333333 278.166666667 381.333333333 271.333333333 362 270 c 1
 354 274.666666667 344.333333333 282.333333333 333 293 c 0
 321.666666667 303.666666667 309.833333333 314.666666667 297.5 326 c 0
 285.166666667 337.333333333 272.666666667 348.333333333 260 359 c 0
 247.333333333 369.666666667 235 378 223 384 c 1
 201.666666667 378.666666667 182.833333333 368 166.5 352 c 0
 150.166666667 336 136.666666667 316.5 126 293.5 c 0
 115.333333333 270.5 107.333333333 245.333333333 102 218 c 0
 96.6666666667 190.666666667 94 163.333333333 94 136 c 1
 96.6666666667 116.666666667 103.166666667 99.1666666667 113.5 83.5 c 0
 123.833333333 67.8333333333 136.666666667 54.5 152 43.5 c 0
 167.333333333 32.5 184.833333333 23.8333333333 204.5 17.5 c 0
 224.166666667 11.1666666667 244.666666667 8 266 8 c 0x49e0
 294 8 320.833333333 14 346.5 26 c 0
 372.166666667 38 395.666666667 53.3333333333 417 72 c 0
 438.333333333 90.6666666667 456.833333333 110.833333333 472.5 132.5 c 0
 488.166666667 154.166666667 499.666666667 175 507 195 c 1
 513 195 l 1
 529 183 547.833333333 169.5 569.5 154.5 c 0
 591.166666667 139.5 614 125.666666667 638 113 c 0
 662 100.333333333 686.333333333 89.6666666667 711 81 c 0
 735.666666667 72.3333333333 759 68 781 68 c 0
 790.333333333 68 799 68.6666666667 807 70 c 0
 815 71.3333333333 823 74.6666666667 831 80 c 0
 845.666666667 91.3333333333 857 106.666666667 865 126 c 0
 868.333333333 138 870.5 152.666666667 871.5 170 c 0
 872.5 187.333333333 873 206 873 226 c 0
 873 246.666666667 871.333333333 266.833333333 868 286.5 c 0
 864.666666667 306.166666667 859.166666667 323.5 851.5 338.5 c 0
 843.833333333 353.5 833.666666667 365.5 821 374.5 c 0
 808.333333333 383.5 793 388 775 388 c 0
 749.666666667 388 729.333333333 383.666666667 714 375 c 0
 698.666666667 366.333333333 686.833333333 355.5 678.5 342.5 c 0
 670.166666667 329.5 664.666666667 315.333333333 662 300 c 0
 659.333333333 284.666666667 657.666666667 270 657 256 c 0
 657 254 656 252.333333333 654 251 c 0
 652 249.666666667 650.333333333 249 649 249 c 0
 627.666666667 264.333333333 606.833333333 278.166666667 586.5 290.5 c 0
 566.166666667 302.833333333 543.333333333 315 518 327 c 1
 518 330.333333333 518.666666667 333 520 335 c 0
 532.666666667 351 546.166666667 366.166666667 560.5 380.5 c 0
 574.833333333 394.833333333 590.333333333 407.333333333 607 418 c 0
 623.666666667 428.666666667 641.666666667 437.333333333 661 444 c 0
 680.333333333 450.666666667 701.333333333 454 724 454 c 0
 742.666666667 452 760.333333333 447.833333333 777 441.5 c 0
 793.666666667 435.166666667 809.333333333 427.5 824 418.5 c 0
 838.666666667 409.5 852.333333333 399.833333333 865 389.5 c 0
 877.666666667 379.166666667 889 369 899 359 c 1
 908.333333333 340.333333333 914.666666667 322.666666667 918 306 c 0
 921.333333333 289.333333333 923 269.666666667 923 247 c 0
 923 217 917.833333333 186.833333333 907.5 156.5 c 0
 897.166666667 126.166666667 883 98.6666666667 865 74 c 0
 847 49.3333333333 825.833333333 29.1666666667 801.5 13.5 c 0
 777.166666667 -2.16666666667 751.333333333 -10 724 -10 c 0xa1e0
 698 -10 672.666666667 -6.5 648 0.5 c 0
 623.333333333 7.5 600.166666667 16.5 578.5 27.5 c 0
 556.833333333 38.5 537.166666667 50.5 519.5 63.5 c 0
 501.833333333 76.5 487 89 475 101 c 1
 462.333333333 88.3333333333 448.833333333 75.3333333333 434.5 62 c 0
 420.166666667 48.6666666667 404.5 36.6666666667 387.5 26 c 0
 370.5 15.3333333333 351.833333333 6.66666666667 331.5 0 c 0
 311.166666667 -6.66666666667 288.666666667 -10 264 -10 c 0
 188 -10 133 12.3333333333 99 57 c 0
 65 101.666666667 48 164.666666667 48 246 c 0x41e0
340 473 m 0
 342.666666667 489 348.5 503.833333333 357.5 517.5 c 0
 366.5 531.166666667 377.833333333 543.166666667 391.5 553.5 c 0
 405.166666667 563.833333333 420.166666667 572 436.5 578 c 0
 452.833333333 584 469.666666667 587 487 587 c 0
 499.666666667 587 511.833333333 584.833333333 523.5 580.5 c 0
 535.166666667 576.166666667 545.5 570.333333333 554.5 563 c 0
 563.5 555.666666667 570.833333333 546.666666667 576.5 536 c 0
 582.166666667 525.333333333 585 513.666666667 585 501 c 0
 585 487.666666667 582.166666667 475 576.5 463 c 0
 570.833333333 451 563 440.5 553 431.5 c 0
 543 422.5 531.5 415.166666667 518.5 409.5 c 0
 505.5 403.833333333 492 401 478 401 c 0
 466 401 454.166666667 402.833333333 442.5 406.5 c 0
 430.833333333 410.166666667 422.333333333 415.333333333 417 422 c 0
 417 424 417.166666667 425.833333333 417.5 427.5 c 0
 417.833333333 429.166666667 419.666666667 430.666666667 423 432 c 0
 435.666666667 426.666666667 450.333333333 424 467 424 c 0
 474.333333333 425.333333333 480.833333333 429.5 486.5 436.5 c 0
 492.166666667 443.5 495 452 495 462 c 0
 495 476 488 488.166666667 474 498.5 c 0
 460 508.833333333 445 514 429 514 c 0x15e0
 410.333333333 514 395 508.666666667 383 498 c 0
 371 487.333333333 362.333333333 477.333333333 357 468 c 0
 354.333333333 464 351 462 347 462 c 0
 343.666666667 462 341.666666667 463.333333333 341 466 c 0
 340.333333333 468.666666667 340 471 340 473 c 0
146 497 m 0
 144 497 142.833333333 498.166666667 142.5 500.5 c 0
 142.166666667 502.833333333 142 505 142 507 c 0
 151.333333333 530.333333333 162.666666667 552.666666667 176 574 c 0
 189.333333333 595.333333333 206.666666667 616.666666667 228 638 c 0
 231 641 231 641 233.5 643.5 c 0
 235.166666667 645.166666667 237.666666667 646.666666667 241 648 c 0
 278.333333333 662 316.5 674.333333333 355.5 685 c 0
 394.5 695.666666667 440 705.333333333 492 714 c 0
 495 714 495 714 507.5 714 c 0
 515.833333333 714 521 713.666666667 523 713 c 0
 536.333333333 710.333333333 547.666666667 707.833333333 557 705.5 c 0
 566.333333333 703.166666667 577 698.666666667 589 692 c 0
 603 684 617.666666667 675 633 665 c 0
 656 650 656 650 679 635 c 0
 694.333333333 625 709.833333333 615.5 725.5 606.5 c 0
 741.166666667 597.5 756.666666667 590.666666667 772 586 c 0
 784.666666667 582 795.833333333 579.333333333 805.5 578 c 0
 815.166666667 576.666666667 826.666666667 575.333333333 840 574 c 0
 849.333333333 573.333333333 858 572.666666667 866 572 c 0
 874 571.333333333 881.666666667 569.333333333 889 566 c 0
 892.333333333 563.333333333 894.666666667 560 896 556 c 0
 897.333333333 552 898 547.666666667 898 543 c 1x03e0
 868 535.666666667 837.833333333 531.333333333 807.5 530 c 0
 777.166666667 528.666666667 752.333333333 528 733 528 c 1
 707 540 684.5 551.833333333 665.5 563.5 c 0
 646.5 575.166666667 628.833333333 586.5 612.5 597.5 c 0
 596.166666667 608.5 580.333333333 619 565 629 c 0
 549.666666667 639 532.333333333 648.333333333 513 657 c 1
 497.666666667 660.333333333 484.666666667 663.166666667 474 665.5 c 0
 463.333333333 667.833333333 450 669 434 669 c 0
 409.333333333 669 388 665.333333333 370 658 c 0
 352 650.666666667 337.166666667 640.666666667 325.5 628 c 0
 313.833333333 615.333333333 305.166666667 600.833333333 299.5 584.5 c 0
 293.833333333 568.166666667 291 550.666666667 291 532 c 0
 291 524.666666667 291.166666667 518.333333333 291.5 513 c 0
 291.833333333 507.666666667 292.333333333 502.333333333 293 497 c 1
 281.666666667 496.333333333 268.5 495.666666667 253.5 495 c 0
 238.5 494.333333333 223.333333333 494 208 494 c 0
 195.333333333 494 183.666666667 494.333333333 173 495 c 0
 162.333333333 495.666666667 153.333333333 496.333333333 146 497 c 0
EndSplineSet
Fore
SplineSet
264 -10 m 0x41f8
 107.981829979 -10 48 88.1406448805 48 246 c 0
 48 337.100275363 96.0447813702 399.571492808 159.5 429 c 0
 182.5 439.666666667 208 445 236 445 c 0
 256.181218558 445 271.827730267 442.043067433 288 438 c 0
 344.776408659 414.027738566 402.177154952 375.915934555 445 340 c 1
 439.925437134 300.672137793 402.311894821 272.780130677 362 270 c 1
 341.295452021 282.077652988 316.809083328 308.256518023 297.5 326 c 0
 275.593854452 346.129971585 249.488851992 370.755574004 223 384 c 1
 152.216096036 366.30402401 116.65762378 293.120321875 102 218 c 0
 96.6666666667 190.666666667 94 163.333333333 94 136 c 1
 102.636611643 73.3845655928 149.865849179 35.0940485691 204.5 17.5 c 0
 224.166666667 11.1666666667 244.666666667 8 266 8 c 0x49f8
 329.432952891 8 380.427258843 39.9988514873 417 72 c 0
 453.69838111 104.111083471 489.915169754 148.405008419 507 195 c 1
 513 195 l 1
 569.321010411 152.759242192 637.236925095 106.916756048 711 81 c 0
 735.666666667 72.3333333333 759 68 781 68 c 0
 866.340714174 68 873 138.932642126 873 226 c 0
 873 290.837443035 858.98956302 347.50741575 821 374.5 c 0
 808.333333333 383.5 793 388 775 388 c 0
 689.882598212 388 660.782274003 335.427754015 657 256 c 0
 657 252.5156048 652.213763798 249 649 249 c 0
 605.242744961 280.450527059 569.214911259 302.740305193 518 327 c 1
 518 330.333333333 518.666666667 333 520 335 c 0
 556.910919474 381.624319334 599.374748618 422.749913315 661 444 c 0
 680.333333333 450.666666667 701.333333333 454 724 454 c 0
 800.798937455 445.771542416 856.173319223 401.826680777 899 359 c 1
 916.802144237 323.395711524 923 297.255275117 923 247 c 0
 923 178.601619116 896.033466902 116.527343532 865 74 c 0
 835.407090004 33.4467529683 787.77817814 -10 724 -10 c 0xa1f8
 638.660423184 -10 569.867414664 26.4371854363 519.5 63.5 c 0
 501.833333333 76.5 487 89 475 101 c 1
 423.119724227 49.119724228 366.915524352 -10 264 -10 c 0x41f8
495 462 m 0
 495 491.154760601 458.699586244 514 429 514 c 0
 394.201994308 514 368.984305134 488.972533985 357 468 c 0
 354.333333333 464 351 462 347 462 c 0
 340.945900524 462 340 467.677872959 340 473 c 0
 348.830841479 525.985048868 390.619575841 561.145966635 436.5 578 c 0
 452.833333333 584 469.666666667 587 487 587 c 0
 529.633332342 587 561.355374499 564.507530354 576.5 536 c 0
 582.166666667 525.333333333 585 513.666666667 585 501 c 0
 585 453.671991437 552.41712418 424.284387464 518.5 409.5 c 0
 505.5 403.833333333 492 401 478 401 c 0
 454.401900063 401 427.44327505 408.945906186 417 422 c 0
 417 428.115563471 417.452239644 429.780895858 423 432 c 1
 435.666666667 426.666666667 450.333333333 424 467 424 c 0x15f8
 482.404114185 426.800748033 495 443.183765442 495 462 c 0
208 494 m 0
 186.381227963 494 164.029565817 495.360948561 146 497 c 0
 141.843686003 497 142 503.104576087 142 507 c 0
 164.183418181 562.458545454 192.412575716 602.412575716 233.5 643.5 c 0
 235.166666667 645.166666667 237.666666667 646.666666667 241 648 c 0
 322.421687948 678.533132981 392.40799735 697.401332891 492 714 c 1
 507.5 714 l 2
 528.577634378 714 542.873533749 709.031616562 557 705.5 c 0
 583.92013488 698.769966281 609.835839357 680.107061289 633 665 c 2
 679 635 l 2
 715.387054092 611.269312548 755.267384667 584.928636596 805.5 578 c 0
 829.884262731 574.636653417 868.453063557 575.339516564 889 566 c 0
 895.096244506 561.123004394 898 553.374969601 898 543 c 1x03f8
 850.256597176 531.329390421 786.316778331 528 733 528 c 1
 667.883738549 558.053659131 620.431026659 592.849330439 565 629 c 0
 549.666666667 639 532.333333333 648.333333333 513 657 c 1
 482.529648412 663.623989475 469.218604075 669 434 669 c 0
 345.546564148 669 291 618.882059442 291 532 c 0
 291 518.004238463 291.513060012 508.895519894 293 497 c 1
 268.253379247 495.544316426 235.558550015 494 208 494 c 0
EndSplineSet
Validated: 524289
LCarets2: 1 0
Ligature2: "'ccmp' Precomposed Glyphs-1" uniA64D uniE005
EndChar

StartChar: uni047F
Encoding: 1151 1151 43
Width: 671
Flags: W
HStem: -10 21G<173 174.667 442.667 445.667> 426 20G<183.215 203.667 394.934 415.32 581.864 605.667> 607 157<73 168 295 390 515 533.941> 746 18<37.0012 73 168 295 390 515 625.129 647.63>
VStem: 60 98<157.741 393.446> 70 101<607 746> 282 99<168.22 397.2> 292 101<607 746> 515 19<607.011 634.281> 547 74<179.057 330.533>
AnchorPoint: "Yerok" 340 846 basechar 0
AnchorPoint: "Diacritic" 341 846 basechar 0
LayerCount: 2
Back
SplineSet
296 426 m 1xca20
 314 427.333333333 332.833333333 429.666666667 352.5 433 c 0
 372.166666667 436.333333333 392.666666667 440.666666667 414 446 c 0
 415.333333333 446 416.5 445.333333333 417.5 444 c 0
 418.5 442.666666667 419 441.333333333 419 440 c 0
 415 428 410.5 415.833333333 405.5 403.5 c 0
 400.5 391.166666667 395.333333333 380.333333333 390 371 c 0
 386.666666667 359.666666667 384.333333333 348.333333333 383 337 c 0
 381.666666667 325.666666667 381 311.333333333 381 294 c 0
 381 270.666666667 382.833333333 247.833333333 386.5 225.5 c 0
 390.166666667 203.166666667 396 182.333333333 404 163 c 0
 412 143.666666667 422.333333333 126 435 110 c 0
 447.666666667 94 462.666666667 81 480 71 c 1
 505.333333333 88.3333333333 522.833333333 110.5 532.5 137.5 c 0
 542.166666667 164.5 547 195.666666667 547 231 c 0xca20
 547 247 545 263 541 279 c 0
 537 295 532.166666667 310.166666667 526.5 324.5 c 0
 520.833333333 338.833333333 514.666666667 352.166666667 508 364.5 c 0
 501.333333333 376.833333333 495.333333333 387 490 395 c 0
 488 397.666666667 487 400.666666667 487 404 c 1
 505 407.333333333 523.666666667 413.5 543 422.5 c 0
 562.333333333 431.5 580.666666667 439.333333333 598 446 c 1xc080
 613.333333333 407.333333333 621 362.666666667 621 312 c 0
 621 290 619.833333333 269.833333333 617.5 251.5 c 0
 615.166666667 233.166666667 611.333333333 215.5 606 198.5 c 0
 600.666666667 181.5 594 164.5 586 147.5 c 0
 578 130.5 568 113 556 95 c 0
 523.333333333 43.6666666667 488.333333333 9 451 -9 c 0
 449.666666667 -9.66666666667 447.333333333 -10 444 -10 c 0
 441.333333333 -10 439.666666667 -9.66666666667 439 -9 c 0
 427 -1 416.166666667 6.66666666667 406.5 14 c 0
 396.833333333 21.3333333333 387.833333333 29.5 379.5 38.5 c 0
 371.166666667 47.5 363 57.5 355 68.5 c 0
 347 79.5 338.666666667 92.6666666667 330 108 c 0
 329.333333333 108.666666667 328.833333333 109.333333333 328.5 110 c 0
 328.166666667 110.666666667 327.666666667 111.333333333 327 112 c 0
 315.666666667 101.333333333 303.833333333 90.3333333333 291.5 79 c 0
 279.166666667 67.6666666667 266.5 56.6666666667 253.5 46 c 0
 240.5 35.3333333333 227.666666667 25.3333333333 215 16 c 0
 202.333333333 6.66666666667 190.666666667 -1.33333333333 180 -8 c 0
 177.333333333 -9.33333333333 175.333333333 -10 174 -10 c 0
 172 -10 170.333333333 -9.33333333333 169 -8 c 0
 155 4 141.5 20.3333333333 128.5 41 c 0
 115.5 61.6666666667 103.833333333 85 93.5 111 c 0
 83.1666666667 137 75 164.833333333 69 194.5 c 0
 63 224.166666667 60 254.666666667 60 286 c 0
 60 314.666666667 62.8333333333 342 68.5 368 c 0
 74.1666666667 394 79.6666666667 414.666666667 85 430 c 1
 101.666666667 431.333333333 120 433.333333333 140 436 c 0
 160 438.666666667 180.666666667 442 202 446 c 0
 205.333333333 446 207 443.666666667 207 439 c 0
 203.666666667 433 199.833333333 426.5 195.5 419.5 c 0
 191.166666667 412.5 187 406.333333333 183 401 c 0
 175.666666667 384.333333333 169.666666667 365.5 165 344.5 c 0
 160.333333333 323.5 158 302.333333333 158 281 c 0
 158 258.333333333 160.5 235.166666667 165.5 211.5 c 0
 170.5 187.833333333 176.833333333 165.666666667 184.5 145 c 0
 192.166666667 124.333333333 200.666666667 106.5 210 91.5 c 0
 219.333333333 76.5 228.666666667 66.6666666667 238 62 c 1
 248.666666667 68 261.5 77.5 276.5 90.5 c 0
 291.5 103.5 305.666666667 116.333333333 319 129 c 1
 294.333333333 181 282 244.666666667 282 320 c 0
 282 341.333333333 283.5 362.333333333 286.5 383 c 0
 289.5 403.666666667 292.666666667 418 296 426 c 1xca20
642 764 m 2xd540
 645.333333333 764 647.166666667 762 647.5 758 c 0
 647.833333333 754 648 751.333333333 648 750 c 0
 632.666666667 743.333333333 618.833333333 734.666666667 606.5 724 c 0
 594.166666667 713.333333333 583.166666667 701.666666667 573.5 689 c 0
 563.833333333 676.333333333 555.833333333 663.333333333 549.5 650 c 0
 543.166666667 636.666666667 538 624 534 612 c 0
 533.333333333 610 532 608.666666667 530 608 c 0
 528 607.333333333 526 607 524 607 c 0xe540
 518 607 515 608.666666667 515 612 c 2
 515 746 l 1
 390 746 l 1xd540
 393 607 l 1
 292 607 l 1xe540
 295 746 l 1
 168 746 l 1xd540
 171 607 l 1
 70 607 l 1xe540
 73 746 l 1
 42 746 l 2
 38.6666666667 746 37 749 37 755 c 0
 37 757 37.3333333333 759 38 761 c 0
 38.6666666667 763 40 764 42 764 c 2
 642 764 l 2xd540
EndSplineSet
Fore
SplineSet
238 62 m 1xcac0
 262.955536606 76.0374893406 297.344034501 108.426832774 319 129 c 1
 294.333333333 181 282 244.666666667 282 320 c 0
 282 352.909132052 287.225634361 404.941522464 296 426 c 1
 337.307313109 429.05980097 375.86795868 436.466989671 414 446 c 0
 416.640614334 446 419 442.614378624 419 440 c 0
 411.426158036 417.278474109 400.816129219 389.928226133 390 371 c 1
 382.646803021 345.999130269 381 327.485589867 381 294 c 0
 381 190.675160701 413.997211492 109.078531832 480 71 c 1
 527.526054174 103.517826541 547 154.511071278 547 231 c 0
 547 297.464844753 517.120055537 354.319916692 490 395 c 0
 488 397.666666667 487 400.666666667 487 404 c 1
 523.792415018 410.813410188 565.72734084 433.587438784 598 446 c 1
 613.333333333 407.333333333 621 362.666666667 621 312 c 0
 621 216.176561049 595.030810958 153.546216436 556 95 c 0
 523.333333333 43.6666666667 488.333333333 9 451 -9 c 0
 449.666666667 -9.66666666667 447.333333333 -10 444 -10 c 0
 441.333333333 -10 439.666666667 -9.66666666667 439 -9 c 0
 391.123244758 22.9178368278 359.252081144 56.2463179785 330 108 c 0
 328.613860996 109.386139004 328.386408989 110.613591011 327 112 c 0
 282.097539242 69.7388604609 233.241834598 25.2761466226 180 -8 c 0
 177.333333333 -9.33333333333 175.333333333 -10 174 -10 c 0
 172 -10 170.333333333 -9.33333333333 169 -8 c 0
 137.012402414 19.4179407879 111.576566106 65.5170272157 93.5 111 c 0
 74.0995033556 159.814152847 60 219.887407766 60 286 c 0
 60 336.387558563 72.8628721217 395.10575735 85 430 c 1
 123.459519546 433.076761563 164.430995613 438.955811677 202 446 c 0
 205.333333333 446 207 443.666666667 207 439 c 0
 200.554717472 427.398491448 190.725699647 411.300932862 183 401 c 0
 169.228412381 369.700937228 158 325.136326128 158 281 c 0
 158 208.173031109 181.526410569 137.261125873 210 91.5 c 0
 219.333333333 76.5 228.666666667 66.6666666667 238 62 c 1xcac0
37 755 m 0
 37 758.921843002 37.9738559782 764 42 764 c 2
 642 764 l 2xd5c0
 648.108717771 764 648 755.185239757 648 750 c 1
 590.965538421 725.202408007 554.164509116 672.493527349 534 612 c 0
 532.777803315 608.333409946 528.577740185 607 524 607 c 0xe5c0
 518 607 515 608.666666667 515 612 c 2
 515 746 l 1
 390 746 l 1xd5c0
 393 607 l 1
 292 607 l 1xe5c0
 295 746 l 1
 168 746 l 1xd5c0
 171 607 l 1
 70 607 l 1xe5c0
 73 746 l 1
 42 746 l 2xd5c0
 38.6666666667 746 37 749 37 755 c 0
EndSplineSet
Validated: 524289
LCarets2: 1 0
Ligature2: "'ccmp' Precomposed Glyphs-1" uni0461 uni2DEE
EndChar

StartChar: uni0479
Encoding: 1145 1145 44
Width: 625
Flags: W
HStem: -11 21G<118 120.333 306.333 324.5> 9 18<392 412> 427 16G<135.667 138 252 270.278 580.511 607.333>
VStem: 56 37<135.819 301.398> 163 38<133.124 301.632> 303 89<26 246.559> 410 45<-260.634 8.00146>
DStem2: 424.5 191 477 278 0.0526315 0.998614<-302.473 -182.406 0 140.202>
AnchorPoint: "Yerok" 546 557 basechar 0
AnchorPoint: "Diacritic" 415 556 basechar 0
LayerCount: 2
Back
SplineSet
201 229 m 0xbe
 201 201.666666667 198.333333333 175.333333333 193 150 c 0
 187.666666667 124.666666667 181.166666667 101.5 173.5 80.5 c 0
 165.833333333 59.5 157.5 41.3333333333 148.5 26 c 0
 139.5 10.6666666667 131.666666667 -1 125 -9 c 0
 123.666666667 -10.3333333333 121.666666667 -11 119 -11 c 0
 117 -11 115.333333333 -10.3333333333 114 -9 c 0
 97.3333333333 16.3333333333 83.5 47.5 72.5 84.5 c 0
 61.5 121.5 56 162 56 206 c 0
 56 254.666666667 63 298.5 77 337.5 c 0
 91 376.5 108.666666667 412 130 444 c 0
 132 446 134.333333333 447 137 447 c 0
 139 447 140.666666667 446 142 444 c 0
 146.666666667 433.333333333 152.5 420.333333333 159.5 405 c 0
 166.5 389.666666667 173 372.666666667 179 354 c 0
 185 335.333333333 190.166666667 315.333333333 194.5 294 c 0
 198.833333333 272.666666667 201 251 201 229 c 0xbe
159 133 m 2
 161.666666667 133 163 134.666666667 163 138 c 2
 163 300 l 2
 163 303.333333333 161.666666667 305 159 305 c 2
 97 305 l 2
 94.3333333333 305 93 303.333333333 93 300 c 2
 93 138 l 2
 93 134.666666667 94.3333333333 133 97 133 c 2
 159 133 l 2
606 443 m 0
 608.666666667 443 610 440.333333333 610 435 c 1
 600.666666667 423.666666667 593.833333333 412.5 589.5 401.5 c 0
 585.166666667 390.5 583 378.333333333 583 365 c 0
 583 357 584 348 586 338 c 0
 586 336 585.666666667 334 585 332 c 0
 584.333333333 330 583 329 581 329 c 0
 572.333333333 332.333333333 564.5 335.5 557.5 338.5 c 0
 550.5 341.5 542.333333333 343 533 343 c 0
 517 343 504.166666667 336 494.5 322 c 0
 484.833333333 308 479 293.333333333 477 278 c 0
 474.333333333 255.333333333 472 233.666666667 470 213 c 0
 468 192.333333333 466.166666667 171.5 464.5 150.5 c 0
 462.833333333 129.5 461.333333333 107.666666667 460 85 c 0
 458.666666667 62.3333333333 457.666666667 37.6666666667 457 11 c 0
 455.666666667 -13.6666666667 455 -35.8333333333 455 -55.5 c 0
 455 -85 455 -85 455 -113.5 c 0
 455 -132.5 454.833333333 -152 454.5 -172 c 0
 454.166666667 -192 453 -214 451 -238 c 0
 449 -264.666666667 446.833333333 -291.666666667 444.5 -319 c 0
 442.166666667 -346.333333333 439.333333333 -372 436 -396 c 0
 432.666666667 -420 429 -441.666666667 425 -461 c 0
 421 -480.333333333 416.666666667 -495.333333333 412 -506 c 0
 410.666666667 -509.333333333 408.333333333 -512.5 405 -515.5 c 0
 401.666666667 -518.5 395 -520.333333333 385 -521 c 1
 381.666666667 -518.333333333 380 -514.333333333 380 -509 c 1
 383.333333333 -507.666666667 386 -503.166666667 388 -495.5 c 0
 390 -487.833333333 391.333333333 -481 392 -475 c 0
 395.333333333 -433.666666667 398.166666667 -392.5 400.5 -351.5 c 0
 402.833333333 -310.5 405 -264 407 -212 c 0
 407.666666667 -190 408.166666667 -170.166666667 408.5 -152.5 c 0
 408.833333333 -134.833333333 409.166666667 -117.5 409.5 -100.5 c 0
 409.833333333 -83.5 410 -66.3333333333 410 -49 c 0
 410 -31.6666666667 410.666666667 -12.3333333333 412 9 c 1x7e
 394.666666667 7 377.333333333 4.33333333333 360 1 c 0
 342.666666667 -2.33333333333 325.333333333 -6.33333333333 308 -11 c 0xbe
 304.666666667 -11 303 -9 303 -5 c 0
 303 55.6666666667 299.833333333 114 293.5 170 c 0
 287.166666667 226 279.666666667 279.333333333 271 330 c 0
 267.666666667 346.666666667 264.166666667 364.833333333 260.5 384.5 c 0
 256.833333333 404.166666667 253.333333333 421.333333333 250 436 c 0
 250 440.666666667 251 443 253 443 c 0
 258.333333333 443 265.166666667 442.833333333 273.5 442.5 c 0
 281.833333333 442.166666667 290.666666667 441.5 300 440.5 c 0
 309.333333333 439.5 318.833333333 438.5 328.5 437.5 c 0
 338.166666667 436.5 347 435.333333333 355 434 c 1
 359 411.333333333 363 383.5 367 350.5 c 0
 371 317.5 374.666666667 282.5 378 245.5 c 0
 381.333333333 208.5 384.166666667 170.833333333 386.5 132.5 c 0
 388.833333333 94.1666666667 390.666666667 58.6666666667 392 26 c 1
 413 27 l 1x7e
 414.333333333 49.6666666667 415.5 70.1666666667 416.5 88.5 c 0
 417.5 106.833333333 418.666666667 124.333333333 420 141 c 0
 421.333333333 157.666666667 422.833333333 174.333333333 424.5 191 c 0
 427 216 427 216 430 246 c 256
 432 266 435 286 439 306 c 0
 443 326 448.5 344.5 455.5 361.5 c 0
 462.5 378.5 471.333333333 393.333333333 482 406 c 0
 492.666666667 418.666666667 506.333333333 427.333333333 523 432 c 0
 537.666666667 436 552 438.666666667 566 440 c 0
 580 441.333333333 593.333333333 442.333333333 606 443 c 0
EndSplineSet
Fore
SplineSet
201 229 m 0xbe
 201 131.872330406 169.043908675 43.8526904079 125 -9 c 0
 123.666666667 -10.3333333333 121.666666667 -11 119 -11 c 0
 117 -11 115.333333333 -10.3333333333 114 -9 c 0
 80.3497978532 42.148307263 56 120.079616821 56 206 c 0
 56 306.632962465 88.9341824089 382.401273612 130 444 c 0
 132 446 134.333333333 447 137 447 c 0
 139 447 140.666666667 446 142 444 c 0
 168.063065154 384.42727965 201 315.554985745 201 229 c 0xbe
159 133 m 2
 161.666666667 133 163 134.666666667 163 138 c 2
 163 300 l 2
 163 303.333333333 161.666666667 305 159 305 c 2
 97 305 l 2
 94.3333333333 305 93 303.333333333 93 300 c 2
 93 138 l 2
 93 134.666666667 94.3333333333 133 97 133 c 2
 159 133 l 2
412 9 m 1x7e
 375.493381517 4.78769786732 340.999649984 -2.1154788504 308 -11 c 0xbe
 304.666666667 -11 303 -9 303 -5 c 0
 303 137.656089049 282.695183884 265.453104632 260.5 384.5 c 0
 256.833333333 404.166666667 253.333333333 421.333333333 250 436 c 0
 250 440.666666667 251 443 253 443 c 0
 287.556546375 443 324.195961009 439.134006497 355 434 c 1
 376.418399996 312.629066687 386.425106725 162.584885282 392 26 c 1
 413 27 l 1
 416.450865049 85.6647058433 419.018134531 136.18134532 424.5 191 c 2
 430 246 l 258
 436.299842864 308.998428637 450.27092001 368.321717512 482 406 c 0
 507.348369953 436.101189319 555.021914026 440.316942842 606 443 c 0
 608.666666667 443 610 440.333333333 610 435 c 1
 593.940125688 415.49872405 583 396.752188321 583 365 c 0
 583 357 584 348 586 338 c 0
 586 334.078156998 585.026144022 329 581 329 c 0
 564.861076059 335.207278438 553.654342342 343 533 343 c 0
 500.280946933 343 480.780383989 306.982943918 477 278 c 0
 464.583813186 172.462412096 455 61.1052768269 455 -55.5 c 2
 455 -113.5 l 2
 455 -234.936044525 446.263642049 -358.225730097 425 -461 c 0
 418.367274575 -493.058172885 418.203484842 -518.786434343 385 -521 c 1
 381.666666667 -518.333333333 380 -514.333333333 380 -509 c 1
 387.175748745 -506.129700503 390.952920078 -484.423719291 392 -475 c 0
 402.900344315 -339.835730479 410 -198.270621434 410 -49 c 0
 410 -31.6666666667 410.666666667 -12.3333333333 412 9 c 1x7e
EndSplineSet
Validated: 524289
Ligature2: "'ccmp' Precomposed Glyphs-1" uni1C82 uni0443
EndChar

StartChar: uni0475
Encoding: 1141 1141 45
Width: 481
Flags: W
HStem: -3 21G<199.989 218.857> 419 20G<93.5507 111.229 424.763 443.209>
VStem: 149 113<-2.23953 26.7038>
AnchorPoint: "Yerok" 376 557 basechar 0
AnchorPoint: "Diacritic" 221 556 basechar 0
LayerCount: 2
Back
SplineSet
262 -1 m 1
 255.333333333 -1.66666666667 247.5 -2.16666666667 238.5 -2.5 c 0
 229.5 -2.83333333333 220 -3 210 -3 c 0
 198.666666667 -3 187.5 -2.83333333333 176.5 -2.5 c 0
 165.5 -2.16666666667 156.333333333 -1.33333333333 149 0 c 1
 149 14.6666666667 147.666666667 33.5 145 56.5 c 0
 142.333333333 79.5 138.833333333 104.666666667 134.5 132 c 0
 130.166666667 159.333333333 125 187.5 119 216.5 c 0
 113 245.5 106.166666667 273.5 98.5 300.5 c 0
 90.8333333333 327.5 82.8333333333 352.166666667 74.5 374.5 c 0
 66.1666666667 396.833333333 57.3333333333 415 48 429 c 0
 48 430.333333333 48.1666666667 432 48.5 434 c 0
 48.8333333333 436 50 437 52 437 c 0
 58.6666666667 437.666666667 66.3333333333 438.166666667 75 438.5 c 0
 83.6666666667 438.833333333 92.6666666667 439 102 439 c 256
 111.333333333 439 120.833333333 438.833333333 130.5 438.5 c 0
 140.166666667 438.166666667 149.333333333 437.666666667 158 437 c 1
 166 419 173.333333333 397.666666667 180 373 c 0
 186.666666667 348.333333333 192.833333333 322.333333333 198.5 295 c 0
 204.166666667 267.666666667 209.333333333 239.666666667 214 211 c 0
 218.666666667 182.333333333 223 155 227 129 c 0
 228.333333333 121.666666667 230 113.333333333 232 104 c 0
 234 94.6666666667 236.666666667 85 240 75 c 1
 242 97.6666666667 244.666666667 119.5 248 140.5 c 0
 251.333333333 161.5 255.666666667 184.666666667 261 210 c 0
 264.333333333 223.333333333 268 238.333333333 272 255 c 0
 276 271.666666667 281.333333333 288.666666667 288 306 c 0
 296 328 305 349 315 369 c 0
 325 389 335.666666667 403.333333333 347 412 c 0
 355 418 362.333333333 422.833333333 369 426.5 c 0
 375.666666667 430.166666667 382.5 433 389.5 435 c 0
 396.5 437 404 438.333333333 412 439 c 0
 420 439.666666667 429.333333333 440 440 440 c 0
 443.333333333 440 448 439.666666667 454 439 c 0
 460 438.333333333 464.666666667 437.666666667 468 437 c 0
 468 435.666666667 467.833333333 434 467.5 432 c 0
 467.166666667 430 466.333333333 428.333333333 465 427 c 0
 454.333333333 419.666666667 446 409.666666667 440 397 c 0
 434 384.333333333 431 371.333333333 431 358 c 0
 431 350.666666667 431.666666667 343.5 433 336.5 c 0
 434.333333333 329.5 435.666666667 322.666666667 437 316 c 0
 437 310.666666667 434.666666667 308 430 308 c 0
 414.666666667 318 401.333333333 326.5 390 333.5 c 0
 378.666666667 340.5 367.333333333 345.666666667 356 349 c 1
 348.666666667 348.333333333 340.666666667 343.833333333 332 335.5 c 0
 323.333333333 327.166666667 315.333333333 314.666666667 308 298 c 0
 302 281.333333333 296.333333333 265.166666667 291 249.5 c 0
 285.666666667 233.833333333 281.666666667 219.333333333 279 206 c 0
 275.666666667 189.333333333 272.666666667 173.833333333 270 159.5 c 0
 267.333333333 145.166666667 265.166666667 131 263.5 117 c 0
 261.833333333 103 260.333333333 88.6666666667 259 74 c 0
 257.666666667 59.3333333333 256.333333333 43.6666666667 255 27 c 0
 256.333333333 23.6666666667 257.5 20.5 258.5 17.5 c 0
 259.5 14.5 260.666666667 11.6666666667 262 9 c 2
 262 -1 l 1
EndSplineSet
Fore
SplineSet
255 27 m 0
 257.530314656 20.6742133585 259.139403589 14.7211928235 262 9 c 1
 262 -1 l 1
 246.858336671 -2.51416633287 227.713591669 -3 210 -3 c 0
 189.977605388 -3 165.14890375 -2.93616431838 149 0 c 1
 149 42.0797319972 141.300703818 89.1032528361 134.5 132 c 0
 121.121008651 216.390560825 100.915556381 303.7063089 74.5 374.5 c 0
 66.1666666667 396.833333333 57.3333333333 415 48 429 c 0
 48 432.364916815 48.2361931657 437 52 437 c 0
 66.6361734968 438.46361735 85.1013244628 439 102 439 c 256
 120.457592936 439 140.876102062 438.317222919 158 437 c 1
 195.702096038 352.170283916 210.870573392 233.841272951 227 129 c 0
 230.225779898 111.258210559 234.289755787 92.1307326403 240 75 c 1
 245.786890026 140.584753629 257.65835417 195.243142376 272 255 c 0
 281.528891661 294.703715255 298.110328414 335.220656829 315 369 c 0
 330.156701802 399.313403604 344.525638278 413.039101052 369 426.5 c 0
 388.425258377 437.183892108 409.525061427 440 440 440 c 0
 446.417073554 440 462.630709771 438.073858047 468 437 c 0
 468 433.166307533 467.15365995 429.15365995 465 427 c 0
 446.256587794 414.113904109 431 387.868363284 431 358 c 0
 431 342.877668563 434.427346295 328.863268529 437 316 c 0
 437 310.666666667 434.666666667 308 430 308 c 0
 404.114926709 324.881569538 384.76874375 340.53860478 356 349 c 1
 348.666666667 348.333333333 340.666666667 343.833333333 332 335.5 c 0
 313.451883343 317.665272447 300.844239963 278.417454895 291 249.5 c 0
 268.090655705 182.203801127 261.527810655 108.597633213 255 27 c 0
EndSplineSet
Validated: 524289
EndChar

StartChar: uni0461
Encoding: 1121 1121 46
Width: 670
Flags: W
HStem: -10 21G<172.333 205.374 461.333 482.423> 426 20G<183.274 203.333 400.265 420.797 584.845 608.667>
VStem: 59 98<157.417 393.446> 281 105<181.487 397.2> 541 83<186.587 346.575>
AnchorPoint: "Yerok" 546 557 basechar 0
AnchorPoint: "Diacritic" 351 556 basechar 0
LayerCount: 2
Back
SplineSet
295 426 m 1
 313 427.333333333 332.833333333 429.666666667 354.5 433 c 0
 376.166666667 436.333333333 397.666666667 440.666666667 419 446 c 0
 421 446 422.333333333 445.333333333 423 444 c 0
 423.666666667 442.666666667 424 441.333333333 424 440 c 0
 420 428 415.5 415.833333333 410.5 403.5 c 0
 405.5 391.166666667 400.333333333 380.333333333 395 371 c 0
 391.666666667 359.666666667 389.333333333 348.333333333 388 337 c 0
 386.666666667 325.666666667 386 311.333333333 386 294 c 0
 386 271.333333333 388.666666667 248.833333333 394 226.5 c 0
 399.333333333 204.166666667 406.666666667 183.166666667 416 163.5 c 0
 425.333333333 143.833333333 436.333333333 126.166666667 449 110.5 c 0
 461.666666667 94.8333333333 475.666666667 82.3333333333 491 73 c 1
 509.666666667 90.3333333333 522.666666667 113 530 141 c 0
 537.333333333 169 541 199.666666667 541 233 c 0
 541 272.333333333 535.5 305.666666667 524.5 333 c 0
 513.5 360.333333333 502 383 490 401 c 0
 488.666666667 403 488 404.833333333 488 406.5 c 0
 488 409 488 409 488 411 c 0
 506 414.333333333 525 419.333333333 545 426 c 0
 565 432.666666667 583.666666667 439.333333333 601 446 c 1
 616.333333333 407.333333333 624 362.666666667 624 312 c 0
 624 290 622.666666667 270.166666667 620 252.5 c 0
 617.333333333 234.833333333 613.166666667 217.833333333 607.5 201.5 c 0
 601.833333333 185.166666667 594.833333333 168.833333333 586.5 152.5 c 0
 578.166666667 136.166666667 568 119 556 101 c 0
 540 75.6666666667 524.666666667 54 510 36 c 0
 495.333333333 18 479.666666667 2.66666666667 463 -10 c 0
 459.666666667 -10 457.333333333 -9.66666666667 456 -9 c 0
 430 7 407.666666667 24.6666666667 389 44 c 0
 370.333333333 63.3333333333 351.333333333 88.3333333333 332 119 c 1
 320.666666667 107.666666667 308.5 95.8333333333 295.5 83.5 c 0
 282.5 71.1666666667 269 59.1666666667 255 47.5 c 0
 241 35.8333333333 227.333333333 25 214 15 c 0
 200.666666667 5 188.333333333 -3.33333333333 177 -10 c 0
 175 -10 175 -10 173 -10 c 0
 171.666666667 -10 170.333333333 -9.66666666667 169 -9 c 0
 155 3 141.333333333 19.3333333333 128 40 c 0
 114.666666667 60.6666666667 103 84 93 110 c 0
 83 136 74.8333333333 164 68.5 194 c 0
 62.1666666667 224 59 254.666666667 59 286 c 0
 59 314.666666667 61.8333333333 342 67.5 368 c 0
 73.1666666667 394 78.6666666667 414.666666667 84 430 c 1
 100.666666667 431.333333333 119.166666667 433.333333333 139.5 436 c 0
 159.833333333 438.666666667 180.666666667 442 202 446 c 0
 204.666666667 446 206 444 206 440 c 0
 202.666666667 434 198.833333333 427.333333333 194.5 420 c 0
 190.166666667 412.666666667 186 406.333333333 182 401 c 0
 174.666666667 384.333333333 168.666666667 365.5 164 344.5 c 0
 159.333333333 323.5 157 302.333333333 157 281 c 0
 157 258.333333333 159.5 235.166666667 164.5 211.5 c 0
 169.5 187.833333333 175.833333333 165.666666667 183.5 145 c 0
 191.166666667 124.333333333 199.666666667 106.5 209 91.5 c 0
 218.333333333 76.5 227.666666667 66.6666666667 237 62 c 1
 248.333333333 68.6666666667 262.166666667 79 278.5 93 c 0
 294.833333333 107 309.666666667 120.666666667 323 134 c 1
 309.666666667 160 299.333333333 188.333333333 292 219 c 0
 284.666666667 249.666666667 281 283.333333333 281 320 c 0
 281 341.333333333 282.5 362.333333333 285.5 383 c 0
 288.5 403.666666667 291.666666667 418 295 426 c 1
EndSplineSet
Fore
SplineSet
323 134 m 1
 297.015294089 184.670176527 281 244.563389058 281 320 c 0
 281 352.909132052 286.225634361 404.941522464 295 426 c 1
 335.897593027 429.029451335 381.530653139 436.632663285 419 446 c 0
 422.594617036 446 424 443.243331326 424 440 c 0
 416.426158036 417.278474109 405.816129219 389.928226133 395 371 c 1
 387.646803021 345.999130269 386 327.485589867 386 294 c 0
 386 217.524306275 413.961612496 153.836952965 449 110.5 c 0
 461.666666667 94.8333333333 475.666666667 82.3333333333 491 73 c 1
 527.173603415 106.589774599 541 164.394918321 541 233 c 0
 541 305.537242506 517.335160233 359.997259651 490 401 c 0
 488.666666667 403 488 404.833333333 488 406.5 c 2
 488 411 l 1
 524.921719089 417.837355386 568.690484685 433.573263339 601 446 c 1
 616.333333333 407.333333333 624 362.666666667 624 312 c 0
 624 217.16944476 594.71086825 159.066302375 556 101 c 0
 527.415840613 55.7417476381 501.845176871 19.5223344214 463 -10 c 0
 459.666666667 -10 457.333333333 -9.66666666667 456 -9 c 0
 399.257845468 25.918248943 368.977271661 60.3463966742 332 119 c 1
 286.417590037 73.4175900366 233.748844221 23.3816730721 177 -10 c 1
 173 -10 l 2
 171.666666667 -10 170.333333333 -9.66666666667 169 -9 c 0
 117.723448507 34.9513298511 85.4086725517 113.906287913 68.5 194 c 0
 62.1666666667 224 59 254.666666667 59 286 c 0
 59 336.387558563 71.8628721217 395.10575735 84 430 c 1
 122.38690629 433.070952502 164.548381473 438.977821526 202 446 c 0
 204.666666667 446 206 444 206 440 c 0
 199.596735545 428.47412398 189.674188936 411.232251914 182 401 c 0
 168.228412381 369.700937228 157 325.136326128 157 281 c 0
 157 208.173031109 180.526410569 137.261125873 209 91.5 c 0
 218.333333333 76.5 227.666666667 66.6666666667 237 62 c 1
 262.77339685 77.160821677 301.117496024 112.117496024 323 134 c 1
EndSplineSet
Validated: 524289
EndChar

StartChar: uni046F
Encoding: 1135 1135 47
Width: 478
Flags: W
HStem: -176 47<134.563 200.246> 4 19<152.315 276.274> 415 27<217.594 308.757>
VStem: 45 71<-110.962 -12.284> 62 94<288.064 346.822> 321 92<49.1136 181.589 274.449 388.356>
DStem2: 282 549 246 469 0.695363 0.718658<-137.582 -88.013 0 158.423>
AnchorPoint: "Yerok" 265 698 basechar 0
AnchorPoint: "Diacritic" 263 698 basechar 0
LayerCount: 2
Back
SplineSet
263 -130 m 0xf4
 255.666666667 -132 248.833333333 -134.166666667 242.5 -136.5 c 0
 236.166666667 -138.833333333 228.666666667 -141.666666667 220 -145 c 0
 204.666666667 -151.666666667 190.833333333 -158.5 178.5 -165.5 c 0
 166.166666667 -172.5 151.666666667 -176 135 -176 c 0
 125.666666667 -176 117.833333333 -175.333333333 111.5 -174 c 0
 105.166666667 -172.666666667 98.3333333333 -171.333333333 91 -170 c 1
 77.6666666667 -161.333333333 66.6666666667 -148.5 58 -131.5 c 0
 49.3333333333 -114.5 45 -95.6666666667 45 -75 c 0xf4
 45 -56.3333333333 48.6666666667 -40.6666666667 56 -28 c 0
 63.3333333333 -15.3333333333 72.8333333333 -5.16666666667 84.5 2.5 c 0
 96.1666666667 10.1666666667 109.666666667 15.5 125 18.5 c 0
 140.333333333 21.5 156 23 172 23 c 0
 183.333333333 23 193.5 22.6666666667 202.5 22 c 0
 211.5 21.3333333333 220 21 228 21 c 0
 248.666666667 21 268 26.5 286 37.5 c 0
 304 48.5 314.333333333 64 317 84 c 0
 318.333333333 90.6666666667 319 96.5 319 101.5 c 0
 319 109 319 109 319 117 c 0
 319 124 319 124 319 130.5 c 0
 319 134.833333333 318.333333333 139.333333333 317 144 c 0
 313 165.333333333 302.666666667 182 286 194 c 1
 278 193.333333333 269 192.833333333 259 192.5 c 0
 249 192.166666667 238.833333333 191.333333333 228.5 190 c 0
 218.166666667 188.666666667 208.333333333 186.5 199 183.5 c 0
 189.666666667 180.5 182 176.666666667 176 172 c 1
 171.333333333 160 167.5 148.166666667 164.5 136.5 c 0
 161.5 124.833333333 159.333333333 114.666666667 158 106 c 1
 144 102 127.5 98.6666666667 108.5 96 c 0
 89.5 93.3333333333 69.3333333333 92 48 92 c 1
 48 94 48 94 48 96.5 c 0
 48 98.1666666667 48.6666666667 99.6666666667 50 101 c 0
 55.3333333333 111 60.1666666667 119.666666667 64.5 127 c 0
 68.8333333333 134.333333333 73.3333333333 141.166666667 78 147.5 c 0
 82.6666666667 153.833333333 87.5 160.166666667 92.5 166.5 c 0
 97.5 172.833333333 103.666666667 180 111 188 c 0
 126.333333333 201.333333333 144.333333333 212.5 165 221.5 c 0
 185.666666667 230.5 207 236.333333333 229 239 c 1
 244.333333333 243.666666667 258.833333333 249 272.5 255 c 0
 286.166666667 261 297.666666667 268.333333333 307 277 c 1
 312.333333333 285.666666667 316 294 318 302 c 0
 320 310 321 319.666666667 321 331 c 0
 321 354.333333333 313.666666667 373.833333333 299 389.5 c 0
 284.333333333 405.166666667 266 413.666666667 244 415 c 0
 236 415 227.166666667 413.166666667 217.5 409.5 c 0
 207.833333333 405.833333333 198.666666667 401.333333333 190 396 c 1
 182 382.666666667 175.333333333 370.166666667 170 358.5 c 0
 164.666666667 346.833333333 160.666666667 336.333333333 158 327 c 0
 156.666666667 319.666666667 156 313.5 156 308.5 c 0
 156 301 156 301 156 293 c 1
 150 290.333333333 141.5 288.5 130.5 287.5 c 0
 119.5 286.5 108.333333333 286 97 286 c 0
 91 286 85.1666666667 286.166666667 79.5 286.5 c 0
 73.8333333333 286.833333333 68.3333333333 287.333333333 63 288 c 0
 62.3333333333 289.333333333 62 292.333333333 62 297 c 256xec
 62 301.666666667 62.3333333333 305.333333333 63 308 c 0
 63.6666666667 317.333333333 68.8333333333 328.166666667 78.5 340.5 c 0
 88.1666666667 352.833333333 99.8333333333 366 113.5 380 c 0
 127.166666667 394 142.166666667 408.333333333 158.5 423 c 0
 174.833333333 437.666666667 190.333333333 452.666666667 205 468 c 2
 220 483 l 1
 213.333333333 492.333333333 204.166666667 505.5 192.5 522.5 c 0
 180.833333333 539.5 169.5 556.166666667 158.5 572.5 c 0
 147.5 588.833333333 137.833333333 603.333333333 129.5 616 c 0
 121.166666667 628.666666667 117 635.333333333 117 636 c 0
 117 642.666666667 118 647 120 649 c 0
 123.333333333 649.666666667 127 650.166666667 131 650.5 c 0
 135 650.833333333 139.333333333 651 144 651 c 0
 156.666666667 651 169.833333333 650.666666667 183.5 650 c 0
 197.166666667 649.333333333 209.333333333 648 220 646 c 1
 222.666666667 641.333333333 226.833333333 634.5 232.5 625.5 c 0
 238.166666667 616.5 244.166666667 607 250.5 597 c 0
 256.833333333 587 262.833333333 577.666666667 268.5 569 c 0
 274.166666667 560.333333333 278.666666667 553.666666667 282 549 c 1
 300 568.333333333 317 586.5 333 603.5 c 0
 349 620.5 363.666666667 635.666666667 377 649 c 1
 382.333333333 650.333333333 386.833333333 651.333333333 390.5 652 c 0
 394.166666667 652.666666667 398.666666667 653 404 653 c 0
 408 653 410.5 651.333333333 411.5 648 c 0
 412.5 644.666666667 413 641.666666667 413 639 c 0
 401.666666667 628.333333333 388.833333333 615.833333333 374.5 601.5 c 0
 360.166666667 587.166666667 345.5 572.333333333 330.5 557 c 0
 315.5 541.666666667 300.666666667 526.333333333 286 511 c 0
 271.333333333 495.666666667 258 481.666666667 246 469 c 0
 239.333333333 461.666666667 233 454.5 227 447.5 c 0
 221 440.5 215.333333333 433.333333333 210 426 c 1
 222 430.666666667 235 434.5 249 437.5 c 0
 263 440.5 277.666666667 442 293 442 c 0
 310.333333333 442 326.5 440 341.5 436 c 0
 356.5 432 369 428.333333333 379 425 c 1
 392.333333333 414.333333333 401.333333333 402.166666667 406 388.5 c 0
 410.666666667 374.833333333 413 359.333333333 413 342 c 0
 413 320.666666667 407.5 300 396.5 280 c 0
 385.5 260 370.666666667 242 352 226 c 1
 358.666666667 220.666666667 365.833333333 214.166666667 373.5 206.5 c 0
 381.166666667 198.833333333 388.333333333 189.666666667 395 179 c 0
 401.666666667 168.333333333 407.166666667 156.5 411.5 143.5 c 0
 415.833333333 130.5 418 116.333333333 418 101 c 0
 418 71 409 45.6666666667 391 25 c 0
 373 4.33333333333 344 -6 304 -6 c 0
 294.666666667 -6 286 -5.5 278 -4.5 c 0
 270 -3.5 261.833333333 -2.33333333333 253.5 -1 c 0
 245.166666667 0.333333333333 236.333333333 1.5 227 2.5 c 0
 217.666666667 3.5 207.333333333 4 196 4 c 0
 186 4 176.333333333 2.83333333333 167 0.5 c 0
 157.666666667 -1.83333333333 149.166666667 -5.5 141.5 -10.5 c 0
 133.833333333 -15.5 127.666666667 -21.6666666667 123 -29 c 0
 118.333333333 -36.3333333333 116 -45 116 -55 c 0
 116 -70.3333333333 119 -83 125 -93 c 0
 131 -103 138 -112.333333333 146 -121 c 0
 150.666666667 -123 156.666666667 -124.833333333 164 -126.5 c 0
 171.333333333 -128.166666667 179 -129 187 -129 c 0
 196.333333333 -129 204.833333333 -127.666666667 212.5 -125 c 0
 220.166666667 -122.333333333 228.666666667 -119 238 -115 c 0
 245.333333333 -111.666666667 251.666666667 -108.666666667 257 -106 c 0
 262.333333333 -103.333333333 267.666666667 -101 273 -99 c 0
 278.333333333 -97 284 -95.5 290 -94.5 c 0
 296 -93.5 303.333333333 -93 312 -93 c 0
 324 -93 336 -94.6666666667 348 -98 c 0
 360 -101.333333333 370.833333333 -106.166666667 380.5 -112.5 c 0
 390.166666667 -118.833333333 398.333333333 -126.666666667 405 -136 c 0
 411.666666667 -145.333333333 416 -156.333333333 418 -169 c 0
 418.666666667 -171.666666667 419 -174.333333333 419 -177 c 0
 419 -181 419 -181 419 -185 c 1
 402.333333333 -185 385.166666667 -184.5 367.5 -183.5 c 0
 349.833333333 -182.5 334.333333333 -180.333333333 321 -177 c 1
 314.333333333 -165 306.5 -154.166666667 297.5 -144.5 c 0
 288.5 -134.833333333 277 -130 263 -130 c 0xf4
EndSplineSet
Fore
SplineSet
196 4 m 0xec
 155.128588038 4 116 -14.3813398615 116 -55 c 0
 116 -86.6799785026 130.501854087 -104.210341927 146 -121 c 1
 155.867892637 -125.229096844 172.287413395 -129 187 -129 c 0
 229.783858475 -129 252.77122475 -100.704795875 290 -94.5 c 0
 296 -93.5 303.333333333 -93 312 -93 c 0
 366.686863901 -93 410.4974574 -121.483896864 418 -169 c 0
 418.666666667 -171.666666667 419 -174.333333333 419 -177 c 2
 419 -185 l 1
 386.411344778 -185 346.951164479 -183.487791119 321 -177 c 1
 309.531612002 -156.356901605 293.327395537 -130 263 -130 c 1
 233.492679455 -138.047451058 202.268065804 -152.010016705 178.5 -165.5 c 0
 166.166666667 -172.5 151.666666667 -176 135 -176 c 0
 116.200348124 -176 106.658686942 -172.847033989 91 -170 c 1
 65.3347987274 -153.317619172 45 -116.99003913 45 -75 c 0xf4
 45 -3.17130671143 100.371644206 23 172 23 c 0
 192.462444806 23 209.237584992 21 228 21 c 0
 277.966544168 21 319 50.6895910949 319 101.5 c 2
 319 130.5 l 2
 319 158.473105299 304.416700492 180.739975646 286 194 c 1
 245.287465565 190.607288795 200.544171963 191.089911528 176 172 c 1
 168.248831591 152.068424092 161.334015576 127.671101252 158 106 c 1
 128.275861748 97.5073890708 87.6726349081 92 48 92 c 1
 48 96.5 l 2
 48 98.1666666667 48.6666666667 99.6666666667 50 101 c 0
 68.2935859477 135.300473652 85.8501291657 160.56377727 111 188 c 1
 139.555231077 212.830635719 182.736545848 233.392308587 229 239 c 1
 258.158459094 247.874313638 287.692729284 259.071820048 307 277 c 1
 317.143309098 293.482877285 321 305.961584905 321 331 c 0
 321 377.391839926 287.68510942 412.352417612 244 415 c 0
 224.397826582 415 203.673420655 404.41441271 190 396 c 1
 176.757534223 373.929223705 164.921246923 351.224364226 158 327 c 0
 156.666666667 319.666666667 156 313.5 156 308.5 c 2
 156 293 l 1
 142.961217096 287.204985375 116.764941799 286 97 286 c 0
 85.0000000003 286 73.6666666664 286.666666666 63 288 c 0
 62.3333333333 289.333333333 62 292.333333333 62 297 c 256
 62 315.76058825 65.6931156406 324.160182025 78.5 340.5 c 0
 113.914570725 385.684107475 164.701355677 425.869599119 205 468 c 1
 220 483 l 1
 192.533949981 521.452470024 155.610793841 576.311593359 129.5 616 c 0
 121.166666667 628.666666667 117 635.333333333 117 636 c 0
 117 649.626066168 123.602755899 651.117008714 134.205089589 651.117008714 c 0
 137.175251459 651.117008714 140.45929897 651 144 651 c 0
 168.743433307 651 199.245177223 649.891529271 220 646 c 1
 237.489834985 615.392788777 261.853647282 577.204893809 282 549 c 1
 313.940447669 583.306406755 346.122217389 618.122217389 377 649 c 1
 387.36225956 651.590564889 391.94389091 653 404 653 c 0
 411.363897396 653 413 645.620893241 413 639 c 1
 357.37214533 586.644372073 298.60554936 524.528079882 246 469 c 0
 233.106763194 454.817439515 221.151185203 441.332879654 210 426 c 1
 233.102295895 434.984226182 261.46130451 442 293 442 c 0
 324.514137195 442 356.748594205 432.417135264 379 425 c 1
 403.02777573 405.777779415 413 381.898217363 413 342 c 0
 413 291.177294783 382.442286584 252.0933885 352 226 c 1
 385.024988589 199.580009132 418 160.623010954 418 101 c 0
 418 33.5190617938 376.459329928 -6 304 -6 c 0
 264.690895092 -6 236.764035101 4 196 4 c 0xec
EndSplineSet
Validated: 524289
EndChar

StartChar: uni0477
Encoding: 1143 1143 48
Width: 481
Flags: W
HStem: -3 21G<199.989 218.857> 419 20G<93.5507 111.229 424.763 443.209>
VStem: 149 113<-2.23953 26.7038>
DStem2: 222 693 144 684 0.497587 -0.867414<0 117.713> 394 693 316 684 0.497587 -0.867414<0 117.713>
AnchorPoint: "Yerok" 219 797 basechar 0
AnchorPoint: "Diacritic" 221 796 basechar 0
LayerCount: 2
Back
SplineSet
394 693 m 1
 468 564 l 2
 468 562.666666667 467.833333333 560.833333333 467.5 558.5 c 0
 467.166666667 556.166666667 466 555 464 555 c 2
 390 555 l 1
 316 684 l 2
 316 685.333333333 316.166666667 687.166666667 316.5 689.5 c 0
 316.833333333 691.833333333 318 693 320 693 c 2
 394 693 l 1
222 693 m 1
 296 564 l 2
 296 562.666666667 295.833333333 560.833333333 295.5 558.5 c 0
 295.166666667 556.166666667 294 555 292 555 c 2
 218 555 l 1
 144 684 l 2
 144 685.333333333 144.166666667 687.166666667 144.5 689.5 c 0
 144.833333333 691.833333333 146 693 148 693 c 2
 222 693 l 1
262 -1 m 1
 255.333333333 -1.66666666667 247.5 -2.16666666667 238.5 -2.5 c 0
 229.5 -2.83333333333 220 -3 210 -3 c 0
 198.666666667 -3 187.5 -2.83333333333 176.5 -2.5 c 0
 165.5 -2.16666666667 156.333333333 -1.33333333333 149 0 c 1
 149 14.6666666667 147.666666667 33.5 145 56.5 c 0
 142.333333333 79.5 138.833333333 104.666666667 134.5 132 c 0
 130.166666667 159.333333333 125 187.5 119 216.5 c 0
 113 245.5 106.166666667 273.5 98.5 300.5 c 0
 90.8333333333 327.5 82.8333333333 352.166666667 74.5 374.5 c 0
 66.1666666667 396.833333333 57.3333333333 415 48 429 c 0
 48 430.333333333 48.1666666667 432 48.5 434 c 0
 48.8333333333 436 50 437 52 437 c 0
 58.6666666667 437.666666667 66.3333333333 438.166666667 75 438.5 c 0
 83.6666666667 438.833333333 92.6666666667 439 102 439 c 256
 111.333333333 439 120.833333333 438.833333333 130.5 438.5 c 0
 140.166666667 438.166666667 149.333333333 437.666666667 158 437 c 1
 166 419 173.333333333 397.666666667 180 373 c 0
 186.666666667 348.333333333 192.833333333 322.333333333 198.5 295 c 0
 204.166666667 267.666666667 209.333333333 239.666666667 214 211 c 0
 218.666666667 182.333333333 223 155 227 129 c 0
 228.333333333 121.666666667 230 113.333333333 232 104 c 0
 234 94.6666666667 236.666666667 85 240 75 c 1
 242 97.6666666667 244.666666667 119.5 248 140.5 c 0
 251.333333333 161.5 255.666666667 184.666666667 261 210 c 0
 264.333333333 223.333333333 268 238.333333333 272 255 c 0
 276 271.666666667 281.333333333 288.666666667 288 306 c 0
 296 328 305 349 315 369 c 0
 325 389 335.666666667 403.333333333 347 412 c 0
 355 418 362.333333333 422.833333333 369 426.5 c 0
 375.666666667 430.166666667 382.5 433 389.5 435 c 0
 396.5 437 404 438.333333333 412 439 c 0
 420 439.666666667 429.333333333 440 440 440 c 0
 443.333333333 440 448 439.666666667 454 439 c 0
 460 438.333333333 464.666666667 437.666666667 468 437 c 0
 468 435.666666667 467.833333333 434 467.5 432 c 0
 467.166666667 430 466.333333333 428.333333333 465 427 c 0
 454.333333333 419.666666667 446 409.666666667 440 397 c 0
 434 384.333333333 431 371.333333333 431 358 c 0
 431 350.666666667 431.666666667 343.5 433 336.5 c 0
 434.333333333 329.5 435.666666667 322.666666667 437 316 c 0
 437 310.666666667 434.666666667 308 430 308 c 0
 414.666666667 318 401.333333333 326.5 390 333.5 c 0
 378.666666667 340.5 367.333333333 345.666666667 356 349 c 1
 348.666666667 348.333333333 340.666666667 343.833333333 332 335.5 c 0
 323.333333333 327.166666667 315.333333333 314.666666667 308 298 c 0
 302 281.333333333 296.333333333 265.166666667 291 249.5 c 0
 285.666666667 233.833333333 281.666666667 219.333333333 279 206 c 0
 275.666666667 189.333333333 272.666666667 173.833333333 270 159.5 c 0
 267.333333333 145.166666667 265.166666667 131 263.5 117 c 0
 261.833333333 103 260.333333333 88.6666666667 259 74 c 0
 257.666666667 59.3333333333 256.333333333 43.6666666667 255 27 c 0
 256.333333333 23.6666666667 257.5 20.5 258.5 17.5 c 0
 259.5 14.5 260.666666667 11.6666666667 262 9 c 2
 262 -1 l 1
EndSplineSet
Fore
SplineSet
316 684 m 1
 316 687.384890924 316.21351223 693 320 693 c 2
 394 693 l 1
 468 564 l 1
 468 560.615109076 467.78648777 555 464 555 c 2
 390 555 l 1
 316 684 l 1
144 684 m 1
 144 687.384890924 144.21351223 693 148 693 c 2
 222 693 l 1
 296 564 l 1
 296 560.615109076 295.78648777 555 292 555 c 2
 218 555 l 1
 144 684 l 1
255 27 m 0
 257.530314656 20.6742133585 259.139403589 14.7211928235 262 9 c 1
 262 -1 l 1
 246.858336671 -2.51416633287 227.713591669 -3 210 -3 c 0
 189.977605388 -3 165.14890375 -2.93616431838 149 0 c 1
 149 42.0797319972 141.300703818 89.1032528361 134.5 132 c 0
 121.121008651 216.390560825 100.915556381 303.7063089 74.5 374.5 c 0
 66.1666666667 396.833333333 57.3333333333 415 48 429 c 0
 48 432.364916815 48.2361931657 437 52 437 c 0
 66.6361734968 438.46361735 85.1013244628 439 102 439 c 256
 120.457592936 439 140.876102062 438.317222919 158 437 c 1
 195.702096038 352.170283916 210.870573392 233.841272951 227 129 c 0
 230.225779898 111.258210559 234.289755787 92.1307326403 240 75 c 1
 245.786890026 140.584753629 257.65835417 195.243142376 272 255 c 0
 281.528891661 294.703715255 298.110328414 335.220656829 315 369 c 0
 330.156701802 399.313403604 344.525638278 413.039101052 369 426.5 c 0
 388.425258377 437.183892108 409.525061427 440 440 440 c 0
 446.417073554 440 462.630709771 438.073858047 468 437 c 0
 468 433.166307533 467.15365995 429.15365995 465 427 c 0
 446.256587794 414.113904109 431 387.868363284 431 358 c 0
 431 342.877668563 434.427346295 328.863268529 437 316 c 0
 437 310.666666667 434.666666667 308 430 308 c 0
 404.114926709 324.881569538 384.76874375 340.53860478 356 349 c 1
 348.666666667 348.333333333 340.666666667 343.833333333 332 335.5 c 0
 313.451883343 317.665272447 300.844239963 278.417454895 291 249.5 c 0
 268.090655705 182.203801127 261.527810655 108.597633213 255 27 c 0
EndSplineSet
Validated: 524289
Ligature2: "'ccmp' Precomposed Glyphs-1" uni0475 uni030F
EndChar

